<?xml version="1.0" standalone="no"?>
<!DOCTYPE svg PUBLIC "-//W3C//DTD SVG 1.1//EN" "http://www.w3.org/Graphics/SVG/1.1/DTD/svg11.dtd" >
<svg>
<metadata>
Created by FontForge 20051205 at Fri Oct 29 02:59:53 2010
 By daemon
Copyright (c) 2005 Dalton Maag Ltd. All rights reserved. This font is for exclusive use by Vodafone only. This font may not be altered in any way without prior consent of Dalton Maag Ltd. DaMa is a trademark of Dalton Maag Ltd
</metadata>
<defs>
<font id="VodafoneRg-Bold" horiz-adv-x="513" >
  <font-face 
    font-family="Vodafone Rg"
    font-weight="700"
    font-stretch="normal"
    units-per-em="1000"
    panose-1="2 11 8 3 8 2 2 2 2 4"
    ascent="800"
    descent="-200"
    x-height="482"
    cap-height="667"
    bbox="-239 -220 1040 912"
    underline-thickness="70"
    underline-position="-150"
    unicode-range="U+000D-U+FB02"
  />
<missing-glyph horiz-adv-x="1000" 
 />
    <glyph glyph-name="IJ" unicode="IJ" horiz-adv-x="657" 
d="M73 0v667h128v-667h-128zM403 -14c-35.3333 0 -66.3333 4.83333 -93 14.5c-26.6667 9.66667 -46 18.1667 -58 25.5l37 107c6 -7.33334 16.8333 -14 32.5 -20s28.6667 -9.66666 39 -11c10.3333 -1.33334 19.5 -2 27.5 -2c23.3333 0 41.8333 5.83334 55.5 17.5
c13.6667 11.6667 20.5 33.8333 20.5 66.5v483h128v-484c0 -66.6667 -15.8334 -116.167 -47.5 -148.5c-31.6666 -32.3333 -78.8333 -48.5 -141.5 -48.5z" />
    <glyph glyph-name="ij" unicode="ij" horiz-adv-x="479" 
d="M62 0v482h123v-482h-123zM124 527c-25.3333 0 -44.1667 7.33331 -56.5 22c-12.3333 14.6667 -18.5 31 -18.5 49c0 17.3333 6.16666 33.3333 18.5 48s31.1667 22 56.5 22c24.6667 0 43.1667 -7.33331 55.5 -22s18.5 -30.6667 18.5 -48c0 -18 -6.16667 -34.3333 -18.5 -49
s-30.8333 -22 -55.5 -22zM273 -203l-55 97c28 18.6667 47.5 37.6667 58.5 57c11 19.3333 16.5 42 16.5 68v463h124v-463c0 -55.3333 -11.5 -100.333 -34.5 -135s-59.5 -63.6667 -109.5 -87zM356 527c-24.6667 0 -43.1667 7.33331 -55.5 22s-18.5 31 -18.5 49
c0 17.3333 6.16666 33.3333 18.5 48s30.8333 22 55.5 22c24 0 42.1667 -7.33331 54.5 -22s18.5 -30.6667 18.5 -48c0 -18 -6.16669 -34.3333 -18.5 -49s-30.5 -22 -54.5 -22z" />
    <glyph glyph-name="Ldot" unicode="L&#xb7;" horiz-adv-x="531" 
d="M73 0v667h128v-546h310v-121h-438zM409 277c-20 0 -36.6667 7.66669 -50 23s-20 33.3333 -20 54s6.66669 38.6667 20 54s30 23 50 23c20.6667 0 37.6667 -7.66669 51 -23c13.3333 -15.3333 20 -33.3333 20 -54s-6.66666 -38.6667 -20 -54s-30.3333 -23 -51 -23z" />
    <glyph glyph-name="ldot" unicode="l&#xb7;" horiz-adv-x="365" 
d="M190 -11c-27.3333 0 -49.5 4.16667 -66.5 12.5s-30.1667 19 -39.5 32s-15.3333 27.1667 -18 42.5c-2.66667 15.3333 -4 29 -4 41v550h124v-526c0 -17.3333 3.5 -29.1667 10.5 -35.5c7 -6.33334 16.8333 -9.5 29.5 -9.5s26 3 40 9l22 -94
c-2.66666 -2.66667 -14.6667 -7 -36 -13c-20 -6 -40.6667 -9 -62 -9zM308 277c-20 0 -36.6667 7.66669 -50 23c-13.3333 15.3333 -20 33.3333 -20 54s6.66667 38.6667 20 54c13.3333 15.3333 30 23 50 23c20.6667 0 37.6667 -7.66669 51 -23
c13.3333 -15.3333 20 -33.3333 20 -54s-6.66666 -38.6667 -20 -54s-30.3333 -23 -51 -23z" />
    <glyph glyph-name="ellipsis" unicode="&#x2e;&#x2e;&#x2e;" horiz-adv-x="652" 
d="M327 -11c-23.3333 0 -40.8333 7.5 -52.5 22.5c-11.6667 15 -17.5 31.5 -17.5 49.5c0 18.6667 5.83331 35.5 17.5 50.5c11.6667 15 29.1667 22.5 52.5 22.5c23.3333 0 40.6667 -7.5 52 -22.5c11.3333 -15 17 -31.8333 17 -50.5c0 -18 -5.66669 -34.5 -17 -49.5
s-28.6667 -22.5 -52 -22.5zM548 -11c-23.3334 0 -40.8333 7.5 -52.5 22.5c-11.6667 15 -17.5 31.5 -17.5 49.5c0 18.6667 5.83331 35.5 17.5 50.5s29.1667 22.5 52.5 22.5c23.3333 0 40.6666 -7.5 52 -22.5c11.3333 -15 17 -31.8333 17 -50.5
c0 -18 -5.66669 -34.5 -17 -49.5s-28.6666 -22.5 -52 -22.5zM106 -11c-23.3333 0 -40.8333 7.5 -52.5 22.5c-11.6667 15 -17.5 31.5 -17.5 49.5c0 18.6667 5.83333 35.5 17.5 50.5c11.6667 15 29.1667 22.5 52.5 22.5c23.3333 0 40.6667 -7.5 52 -22.5
c11.3333 -15 17 -31.8333 17 -50.5c0 -18 -5.66667 -34.5 -17 -49.5s-28.6667 -22.5 -52 -22.5z" />
    <glyph glyph-name="afii61352" unicode="No" horiz-adv-x="1031" 
d="M69 0v667h131l257 -416v416h126v-667h-112l-275 441v-441h-127zM825 267c-44 0 -81.6667 11.6667 -113 35c-31.3333 24 -51.3333 51.3333 -60 82c-9.33331 32 -14 59.6667 -14 83c0 30 5 57.5 15 82.5s23.6667 46.5 41 64.5s37.5 31.3333 60.5 40s46.5 13 70.5 13
c48 0 87 -14 117 -42s49 -57 57 -87s12 -53.6667 12 -71c0 -24.6667 -3.66669 -48.8333 -11 -72.5c-7.33331 -23.6667 -18.6666 -45 -34 -64c-15.3333 -19 -34.6666 -34.3333 -58 -46c-23.3333 -11.6667 -51 -17.5 -83 -17.5zM825 360c21.3333 0 38.6666 9.33334 52 28
c13.3333 18.6667 20 45 20 79s-6.66669 60.3333 -20 79s-30.6666 28 -52 28c-22 0 -39.6667 -9.33331 -53 -28s-20 -45 -20 -79c0 -34 6.66669 -60.3333 20 -79s31 -28 53 -28z" />
    <glyph glyph-name="trademark" unicode="TM" horiz-adv-x="624" 
d="M406 378l-54 147v-145h-72v287h88l60 -183l57 183h86v-287h-71v148l-51 -150h-43zM94 380v208h-76v79h225v-79h-76v-208h-73z" />
    <glyph glyph-name="fi" unicode="fi" horiz-adv-x="548" 
d="M79 0v382h-64v100h64v17c0 48 10.8333 85.8333 32.5 113.5c21.6667 27.6667 48.5 46.1667 80.5 55.5c28.6667 8.66669 57 13 85 13c41.3333 0 75.1667 -4.33331 101.5 -13c26.3333 -8.66669 48.1667 -18.3334 65.5 -29l-47 -98
c-12.6667 8.66669 -28.6667 15.8334 -48 21.5c-19.3333 5.66669 -40.3333 8.5 -63 8.5s-42.3333 -5.66669 -59 -17s-25 -31.3333 -25 -60v-12h104v-100h-103v-382h-124zM362 0v482h124v-482h-124z" />
    <glyph glyph-name="fl" unicode="fl" horiz-adv-x="605" 
d="M487 -11c-27.3333 0 -49.5 4.16667 -66.5 12.5s-30.1667 19 -39.5 32s-15.3333 27.1667 -18 42.5s-4 29 -4 41v455c-16 2 -33.6667 3 -53 3c-30 0 -54.8333 -6 -74.5 -18s-29.5 -32 -29.5 -60v-15h97v-100h-96v-382h-124v382h-64v100h65v15c0 51.3333 14.6667 91 44 119
c28.6667 28.6667 61.6667 46.3334 99 53c42 7.33331 74.3333 11 97 11c2.66666 0 10 -0.5 22 -1.5s28.6667 -2.16669 50 -3.5c33.3333 -2.66669 63.6667 -7.33337 91 -14v-520c0 -17.3333 3.5 -29.1667 10.5 -35.5c7 -6.33334 16.8333 -9.5 29.5 -9.5c12.6667 0 26 3 40 9
l22 -94c-2.66669 -2.66667 -14.6667 -7 -36 -13c-20 -6 -40.6667 -9 -62 -9z" />
    <glyph glyph-name=".null" horiz-adv-x="201" 
 />
    <glyph glyph-name=".null" horiz-adv-x="201" 
 />
    <glyph glyph-name="nonmarkingreturn" unicode="&#xd;" horiz-adv-x="190" 
 />
    <glyph glyph-name="space" unicode=" " horiz-adv-x="190" 
 />
    <glyph glyph-name="exclam" unicode="!" horiz-adv-x="229" 
d="M115 -11c-23.3333 0 -42.1667 8.16667 -56.5 24.5c-14.3333 16.3333 -21.5 35.1667 -21.5 56.5s7.16666 40.1667 21.5 56.5s33.1667 24.5 56.5 24.5c22.6667 0 41.1667 -8.16667 55.5 -24.5c14.3333 -16.3333 21.5 -35.1667 21.5 -56.5
c0 -21.3333 -7.16667 -40.1667 -21.5 -56.5s-32.8333 -24.5 -55.5 -24.5zM53 211v456h126v-456h-126z" />
    <glyph glyph-name="quotedbl" unicode="&#x22;" horiz-adv-x="430" 
d="M60 371v296h118v-296h-118zM251 371v296h119v-296h-119z" />
    <glyph glyph-name="numbersign" unicode="#" horiz-adv-x="547" 
d="M132 74v132h-132v119h132v91h-132v118h132v133h113v-133h86v133h112v-133h133v-118h-133v-91h133v-119h-133v-132h-112v132h-86v-132h-113zM245 325h86v91h-86v-91z" />
    <glyph glyph-name="dollar" unicode="$" 
d="M211 -139v128c-42 5.33333 -79.8333 16.6667 -113.5 34c-33.6667 17.3333 -60.8333 39.3333 -81.5 66l80 97c21.3333 -26 44.6667 -46.1667 70 -60.5c25.3333 -14.3333 52.3333 -21.5 81 -21.5c30 0 54 6.5 72 19.5s27 31.5 27 55.5c0 24.6667 -8 43.8333 -24 57.5
c-16 13.6667 -39 26.8333 -69 39.5l-80 32c-26 10.6667 -49.3333 23.8333 -70 39.5c-20.6667 15.6667 -37.3333 35 -50 58s-19 52.1667 -19 87.5c0 40.6667 10.3333 74.3334 31 101c20.6667 28 44.3333 47.8333 71 59.5s51.6667 19.1667 75 22.5v147h87v-144
c34.6667 -4.66669 67.3333 -15.6667 98 -33c30.6667 -17.3333 54.6667 -40 72 -68l-80 -82c-22.6667 25.3333 -44.5 43.3333 -65.5 54s-43.1667 16 -66.5 16c-28.6667 0 -51.3333 -6 -68 -18c-16.6667 -12 -25 -28.6667 -25 -50c0 -11.3333 2.83333 -21.3333 8.5 -30
s12.6667 -16.3333 21 -23c8.33333 -6.66666 17.5 -12.3333 27.5 -17c10 -4.66666 19 -8.66666 27 -12l80.5 -34c27 -11.3333 51.5 -25.3333 73.5 -42s40 -37.3333 54 -62c14 -24.6667 21 -56 21 -94c0 -39.3333 -10 -74 -30 -104c-18 -28 -40.1667 -48.8333 -66.5 -62.5
s-53.5 -22.8333 -81.5 -27.5v-129h-87z" />
    <glyph glyph-name="percent" unicode="%" horiz-adv-x="703" 
d="M541 -8c-26.6667 0 -50 4.5 -70 13.5c-20 9 -36.6667 20.8333 -50 35.5c-13.3333 14.6667 -23.3333 31.3333 -30 50s-10 37.6667 -10 57c0 24 4.33334 45.8333 13 65.5s20.5 36.3333 35.5 50s32.3333 24 52 31s39.8333 10.5 60.5 10.5c38.6667 0 71.3334 -10.6667 98 -32
c20 -18.6667 35 -39.1667 45 -61.5s15 -43.1667 15 -62.5c0 -20 -3.33331 -39.3333 -10 -58s-16.6667 -35.3333 -30 -50s-29.8333 -26.5 -49.5 -35.5s-42.8334 -13.5 -69.5 -13.5zM76 -6l-66 72l624 609l66 -69zM540 78c19.3333 0 33.6666 7.5 43 22.5
c9.33331 15 14 31.1667 14 48.5s-4.66669 33.5 -14 48.5s-23.6666 22.5 -43 22.5c-19.3333 0 -33.6667 -7.5 -43 -22.5s-14 -31.1667 -14 -48.5s4.66666 -33.5 14 -48.5s23.6667 -22.5 43 -22.5zM163 362c-26.6667 0 -49.8333 4.5 -69.5 13.5s-36.1667 20.8333 -49.5 35.5
c-13.3333 14.6667 -23.3333 31.3333 -30 50c-6.66667 18.6667 -10 37.6667 -10 57c0 24.6667 4.33333 46.8334 13 66.5c8.66667 19.6667 20.5 36.3334 35.5 50c15 13.6667 32.1667 23.8334 51.5 30.5c19.3333 6.66669 39 10 59 10c39.3333 0 72.3333 -10.6667 99 -32
c27.3333 -21.3333 44.3333 -44 51 -68c6.66666 -28 10 -46.6667 10 -56c0 -20 -3.33334 -39.3333 -10 -58s-16.6667 -35.3333 -30 -50c-13.3333 -14.6667 -30 -26.5 -50 -35.5c-20 -9 -43.3333 -13.5 -70 -13.5zM162 448c14.6667 0 26 4.5 34 13.5
s13.8333 19.1667 17.5 30.5s5.5 20.6667 5.5 28c0 20.6667 -5.66667 37.6667 -17 51s-24.6667 20 -40 20c-18 0 -32 -7.16669 -42 -21.5s-15 -30.8333 -15 -49.5c0 -8.66666 1.16666 -17.3333 3.5 -26c2.33334 -8.66666 5.83334 -16.3333 10.5 -23
c4.66666 -6.66666 10.5 -12.1667 17.5 -16.5s15.5 -6.5 25.5 -6.5z" />
    <glyph glyph-name="ampersand" unicode="&#x26;" horiz-adv-x="624" 
d="M218 -11c-36 0 -67 5.33333 -93 16s-47.3333 25 -64 43s-28.8333 38.5 -36.5 61.5c-7.66667 23 -11.5 47.1667 -11.5 72.5c0 40 10.6667 77.8333 32 113.5c21.3333 35.6667 55 67.5 101 95.5l27 16c-12.6667 16.6667 -24 34.5 -34 53.5s-15 40.5 -15 64.5
c0 24.6667 5.16667 46.1667 15.5 64.5s23.6667 33.3333 40 45c16.3333 11.6667 34.5 20 54.5 25s38.6667 7.5 56 7.5c40.6667 0 74.1667 -7.5 100.5 -22.5s51.8333 -38.8333 76.5 -71.5l-80 -72c-15.3333 21.3333 -30.5 38.1666 -45.5 50.5
c-15 12.3333 -31.5 18.5 -49.5 18.5c-15.3333 0 -27.3333 -3.66669 -36 -11c-8.66667 -7.33331 -13 -17.3333 -13 -30c0 -17.3333 9.33333 -37.3333 28 -60l133 -183l102 149l85 -77l-116 -168l139 -190h-145l-62 86c-24.6667 -30 -48.1667 -52.1667 -70.5 -66.5
c-22.3333 -14.3333 -43.8333 -23 -64.5 -26c-20.6667 -3 -38.6667 -4.5 -54 -4.5zM222 96c22.6667 0 43.6667 7.83334 63 23.5c19.3333 15.6667 37 35.5 53 59.5l-104 142l-21 -12c-24 -14 -42.8333 -31.3333 -56.5 -52c-13.6667 -20.6667 -20.5 -43.6667 -20.5 -69
c0 -28 7.33333 -50.3333 22 -67c14.6667 -16.6667 36 -25 64 -25z" />
    <glyph glyph-name="quotesingle" unicode="'" horiz-adv-x="238" 
d="M60 371v296h118v-296h-118z" />
    <glyph glyph-name="parenleft" unicode="(" horiz-adv-x="315" 
d="M250 -65c-32 18 -61 40.3333 -87 67s-48.1667 56.8333 -66.5 90.5s-32.6667 70.8333 -43 111.5c-10.3333 40.6667 -15.5 84 -15.5 130c0 70 11.3333 132.667 34 188c22.6667 56.6667 50 101.5 82 134.5s64 58.5 96 76.5l55 -71c-46 -34 -81.1667 -78 -105.5 -132
s-36.5 -119.333 -36.5 -196s12.1667 -142 36.5 -196s59.5 -98 105.5 -132z" />
    <glyph glyph-name="parenright" unicode=")" horiz-adv-x="315" 
d="M65 -65l-55 71c46 34 81.1667 78 105.5 132s36.5 119.333 36.5 196s-12.1667 142 -36.5 196c-24.3333 54 -59.5 98 -105.5 132l55 71c26.6667 -14.6667 50.8333 -32 72.5 -52s40.8333 -43.3333 57.5 -70c30.6667 -48.6667 52 -96.1667 64 -142.5
c12 -46.3333 18 -91.1667 18 -134.5c0 -70 -11.3333 -133 -34 -189c-22.6667 -56 -50 -100.5 -82 -133.5s-64 -58.5 -96 -76.5z" />
    <glyph glyph-name="asterisk" unicode="*" horiz-adv-x="432" 
d="M167 339v105l-91 -61l-48 86l103 66l-105 68l54 81l87 -59v100h94v-100l91 59l55 -81l-105 -67l102 -67l-49 -86l-94 61v-105h-94z" />
    <glyph glyph-name="plus" unicode="+" 
d="M204 77v198h-182v110h182v201h104v-201h182v-110h-182v-198h-104z" />
    <glyph glyph-name="comma" unicode="," horiz-adv-x="204" 
d="M71 -120l-33 45c11.3333 9.33334 22 20.5 32 33.5s15.6667 25.1667 17 36.5c-16 1.33333 -30.1667 8.83333 -42.5 22.5c-12.3333 13.6667 -18.5 30.5 -18.5 50.5c0 18.6667 6 35.1667 18 49.5c12 14.3333 29.3333 21.5 52 21.5c23.3333 0 41.3333 -8.33333 54 -25
c12.6667 -16.6667 19 -38 19 -64c0 -24.6667 -7.33333 -52.1667 -22 -82.5c-14.6667 -30.3333 -40 -59.5 -76 -87.5z" />
    <glyph glyph-name="hyphen" unicode="-" horiz-adv-x="314" 
d="M36 201v119h241v-119h-241z" />
    <glyph glyph-name="period" unicode="." horiz-adv-x="211" 
d="M106 -11c-23.3333 0 -40.8333 7.5 -52.5 22.5c-11.6667 15 -17.5 31.5 -17.5 49.5c0 18.6667 5.83333 35.5 17.5 50.5c11.6667 15 29.1667 22.5 52.5 22.5c23.3333 0 40.6667 -7.5 52 -22.5c11.3333 -15 17 -31.8333 17 -50.5c0 -18 -5.66667 -34.5 -17 -49.5
s-28.6667 -22.5 -52 -22.5z" />
    <glyph glyph-name="slash" unicode="/" horiz-adv-x="516" 
d="M96 -32l-96 57l422 741l94 -53z" />
    <glyph glyph-name="zero" unicode="0" 
d="M257 -14c-45.3333 0 -83.1667 10.5 -113.5 31.5s-54.8333 48 -73.5 81s-32 69.8333 -40 110.5s-12 81 -12 121c0 66 9.66667 127 29 183c20 54.6667 48.8333 95.1667 86.5 121.5c37.6667 26.3333 78.8333 39.5 123.5 39.5c61.3333 0 111 -21.3333 149 -64
c38.6667 -40.6667 63 -88 73 -142c10.6667 -49.3333 16 -95.3333 16 -138c0 -40 -4 -80.3333 -12 -121s-21.3333 -77.5 -40 -110.5s-43.1667 -60 -73.5 -81s-67.8333 -31.5 -112.5 -31.5zM257 101c21.3333 -0.666656 39.1667 6.66667 53.5 22
c14.3333 15.3333 25.6667 34.6667 34 58c8.33334 23.3333 14 48.5 17 75.5s4.16666 51.8333 3.5 74.5c0 40 -3 74.3333 -9 103s-14 52.1667 -24 70.5c-10 18.3333 -21.5 32 -34.5 41s-26.5 13.5 -40.5 13.5c-30 0.666687 -54.3333 -14.3333 -73 -45
c-18.6667 -30.6667 -29.3333 -63 -32 -97c-1.33333 -17.3333 -2.5 -33.1667 -3.5 -47.5c-1 -14.3333 -1.16667 -27.1667 -0.5 -38.5c0 -32 2.16667 -61.8333 6.5 -89.5c4.33333 -27.6667 10.8333 -52 19.5 -73s19.8333 -37.5 33.5 -49.5c13.6667 -12 30.1667 -18 49.5 -18z
" />
    <glyph glyph-name="one" unicode="1" 
d="M241 0v508l-119 -76l-59 97l209 133h99v-662h-130z" />
    <glyph glyph-name="two" unicode="2" 
d="M41 0v79c-1.33334 32 4.83334 63 18.5 93s33.1667 53.3333 58.5 70l139 107c26.6667 18.6667 45 36.6667 55 54s15 38.6667 15 64c0 28 -8.33334 49.8333 -25 65.5s-40 23.5 -70 23.5c-18.6667 0 -35.8333 -3.16669 -51.5 -9.5
c-15.6667 -6.33331 -29.6667 -13.6666 -42 -22c-12.3333 -8.33331 -22.6667 -16.6667 -31 -25l-18.5 -18.5l-61 96c15.3333 17.3333 37.8333 34.5 67.5 51.5c29.6667 17 58.1667 28.8333 85.5 35.5c27.3333 6.66669 50.6667 10 70 10c47.3333 0 87.3333 -10.3333 120 -31
c34 -20.6667 57.5 -46.1667 70.5 -76.5s19.5 -60.5 19.5 -90.5c0 -43.3333 -8.16666 -79.8333 -24.5 -109.5s-42.1667 -57.5 -77.5 -83.5l-100 -74c-34.6667 -26 -57.5 -44.5 -68.5 -55.5s-16.5 -23.5 -16.5 -37.5h295v-116h-428z" />
    <glyph glyph-name="three" unicode="3" 
d="M236 -14c-48 0 -90.3333 7.16667 -127 21.5s-68 32.8333 -94 55.5l56 105c23.3333 -20.6667 48.3333 -37.3333 75 -50c26.6667 -12.6667 56 -19 88 -19c40.6667 0 70.1667 10.3333 88.5 31c18.3333 20.6667 27.5 46 27.5 76c0 40 -12.8333 68.5 -38.5 85.5
s-59.8333 25.5 -102.5 25.5c-19.3333 0 -38.3333 -1.33334 -57 -4v82c13.3333 23.3333 24.6667 40.6667 34 52c13.3333 17.3333 29.3333 36 48 56l33.5 32.5c9 8.33331 15.1667 14.1666 18.5 17.5h-255v114h417v-111c-26 -18 -50 -36.3333 -72 -55
c-28 -22.6667 -48.5 -41.5 -61.5 -56.5s-22.1667 -26.8333 -27.5 -35.5c45.3333 1.33334 83.6667 -9.33331 115 -32c27.3333 -20 47 -44.3333 59 -73s18 -59.3333 18 -92c0 -38 -6.5 -71 -19.5 -99s-30.5 -51.5 -52.5 -70.5s-47.8333 -33.1667 -77.5 -42.5
s-60.8333 -14 -93.5 -14z" />
    <glyph glyph-name="four" unicode="4" 
d="M303 0v130h-277v99l299 438h103v-422h65v-115h-65v-130h-125zM162 245h141v214z" />
    <glyph glyph-name="five" unicode="5" 
d="M223 -14c-36.6667 0 -70 4.16667 -100 12.5s-53 17 -69 26s-28.3333 17.8333 -37 26.5l52 111c23.3333 -18 47.5 -32.5 72.5 -43.5s52.5 -16.5 82.5 -16.5c20.6667 -0.666656 38.8333 1.83334 54.5 7.5s28.6667 13.8333 39 24.5s18 23 23 37s7.16666 29 6.5 45
c0 40.6667 -12.6667 70.3333 -38 89c-25.3333 18.6667 -62 28 -110 28c-29.3333 0 -70.3333 -5.66666 -123 -17v351h370v-114h-257v-111c5.33333 1.33334 15 2 29 2c80.6667 0 142.833 -18.1667 186.5 -54.5c43.6667 -36.3333 65.5 -92.8333 65.5 -169.5
c0 -60.6667 -14 -109.333 -42 -146c-27.3333 -37.3333 -60 -61.3333 -98 -72c-34.6667 -10.6667 -70.3333 -16 -107 -16z" />
    <glyph glyph-name="six" unicode="6" 
d="M262 -14c-42.6667 0 -82.6667 11.6667 -120 35c-36 23.3333 -61.6667 55 -77 95s-23 82.6667 -23 128c0 44.6667 5.16666 88 15.5 130s27.1667 83 50.5 123c12.6667 22.6667 27.3333 42.8334 44 60.5c16.6667 17.6667 35.3333 33.1667 56 46.5
c42 26.6667 82.5 43.8334 121.5 51.5c39 7.66669 73.8333 11.5 104.5 11.5l29 -100h-7c-61.3333 0 -111.667 -10.6667 -151 -32c-38.6667 -20.6667 -65 -43.6667 -79 -69c-13.3333 -25.3333 -22.3333 -45.3333 -27 -60c12.6667 8 26.5 14.3333 41.5 19s31.8333 7 50.5 7
c32.6667 0.666656 61.1667 -6.16669 85.5 -20.5c24.3333 -14.3333 44.3333 -32.8333 60 -55.5s26.6667 -47.3333 33 -74c6.33334 -26.6667 9.5 -52 9.5 -76c0 -27.3333 -4.5 -54.1667 -13.5 -80.5s-22.5 -49.8333 -40.5 -70.5s-40.6667 -37.3333 -68 -50s-59 -19 -95 -19z
M264 101c25.3333 0 45.6667 9.33334 61 28c15.3333 18.6667 23 44 23 76c0 36 -8.16666 64.1667 -24.5 84.5s-37.5 30.5 -63.5 30.5c-15.3333 0 -30.1667 -2.5 -44.5 -7.5c-14.3333 -5 -25.8333 -10.1667 -34.5 -15.5c-4 -12 -6 -33.6667 -6 -65c0 -34 5 -62 15 -84
c10 -21.3333 22 -34.5 36 -39.5s26.6667 -7.5 38 -7.5z" />
    <glyph glyph-name="seven" unicode="7" 
d="M101 0c13.3333 93.3333 40.1667 185.667 80.5 277c40.3333 91.3333 92.8333 183.333 157.5 276h-298v114h441v-109c-67.3333 -94 -121.333 -186.167 -162 -276.5s-69 -184.167 -85 -281.5h-134z" />
    <glyph glyph-name="eight" unicode="8" 
d="M257 -14c-34.6667 0 -65.5 5.66667 -92.5 17s-49.8333 26.5 -68.5 45.5s-32.8333 40.5 -42.5 64.5c-9.66667 24 -14.5 48.6667 -14.5 74c0 22 4.66666 45 14 69c10 24 21.1667 42.6667 33.5 56s23.8333 23.3333 34.5 30c-25.3333 19.3333 -43.6667 41.8333 -55 67.5
c-11.3333 25.6667 -17 50.5 -17 74.5c0 37.3333 11 71.6666 33 103c22 32 48.5 54.5 79.5 67.5s62.8333 19.5 95.5 19.5c45.3333 0 84.6667 -11 118 -33c24.6667 -16 44 -35.5 58 -58.5s22.8333 -42.5 26.5 -58.5s5.5 -28.6667 5.5 -38c0 -24 -6 -49.5 -18 -76.5
s-30 -49.1667 -54 -66.5c18.6667 -11.3333 34.5 -26.3333 47.5 -45s21.8333 -38.1667 26.5 -58.5c4.66666 -20.3333 7 -37.5 7 -51.5c0 -25.3333 -4.83334 -50 -14.5 -74s-23.6667 -45.5 -42 -64.5s-41 -34.3333 -68 -46s-57.8333 -17.5 -92.5 -17.5zM257 99
c30 0 52.8333 9.33334 68.5 28c15.6667 18.6667 23.5 40.6667 23.5 66s-8 47.3333 -24 66c-16 18.6667 -39 28 -69 28c-28.6667 0 -51 -9.16666 -67 -27.5c-16 -18.3333 -24 -39.8333 -24 -64.5c-0.666672 -14.6667 1.66666 -28.1667 7 -40.5
c5.33333 -12.3333 12.5 -22.8333 21.5 -31.5c9 -8.66666 19 -15.1667 30 -19.5s22.1667 -5.83334 33.5 -4.5zM257 391c20 0 36.8333 7.33334 50.5 22s22.3333 28.6667 26 42c3.66666 13.3333 5.16666 22.3333 4.5 27c0 18.6667 -5.5 35 -16.5 49s-22.8333 23.3333 -35.5 28
s-22.3333 7 -29 7c-16.6667 0 -32.6667 -5.66669 -48 -17c-14 -10.6667 -23 -22.1667 -27 -34.5c-4 -12.3333 -6 -23.5 -6 -33.5c-0.666672 -12.6667 1.16666 -24.6667 5.5 -36c4.33333 -11.3333 10.3333 -21.3333 18 -30s16.5 -15.1667 26.5 -19.5
s20.3333 -5.83334 31 -4.5z" />
    <glyph glyph-name="nine" unicode="9" 
d="M116 -11c-16 0 -28 0.666672 -36 2l13 107c6 -1.33334 13 -2 21 -2c56.6667 0 101.333 14.6667 134 44c32.6667 29.3333 55.3333 71 68 125c-11.3333 -8 -25.3333 -14.3333 -42 -19s-33.3333 -7 -50 -7c-30.6667 0 -57.6667 5.33333 -81 16
c-23.3333 10.6667 -43 25.6667 -59 45s-28 42 -36 68s-12 54.6667 -12 86c0 46 10.6667 86.6667 32 122c21.3333 36 48.5 61.3333 81.5 76s67.5 22 103.5 22c50 0 92.6667 -14.8333 128 -44.5s59 -65.1667 71 -106.5c6.66666 -20.6667 11.1667 -40.3333 13.5 -59
c2.33334 -18.6667 3.5 -36.6667 3.5 -54c0 -59.3333 -7.66666 -114.5 -23 -165.5s-37.8333 -95.5 -67.5 -133.5s-66.5 -67.8333 -110.5 -89.5c-44 -21.6667 -94.6667 -32.5 -152 -32.5zM255 351c14.6667 0 28.5 1.5 41.5 4.5s25.5 8.16666 37.5 15.5c4 20 6 38.3333 6 55
c0 38 -6.66666 67.1667 -20 87.5c-13.3333 20.3333 -26.6667 33 -40 38c-13.3333 5 -22.6667 7.5 -28 7.5c-22.6667 0 -41 -7.66669 -55 -23s-22.3333 -30.5 -25 -45.5c-2.66667 -15 -4 -26.8333 -4 -35.5c0 -30 7.5 -54.8333 22.5 -74.5s36.5 -29.5 64.5 -29.5z" />
    <glyph glyph-name="colon" unicode=":" horiz-adv-x="211" 
d="M106 344c-23.3333 0 -40.8333 7.5 -52.5 22.5c-11.6667 15 -17.5 31.5 -17.5 49.5c0 18.6667 5.83333 35.5 17.5 50.5c11.6667 15 29.1667 22.5 52.5 22.5c23.3333 0 40.6667 -7.5 52 -22.5c11.3333 -15 17 -31.8333 17 -50.5c0 -18 -5.66667 -34.5 -17 -49.5
s-28.6667 -22.5 -52 -22.5zM106 -11c-23.3333 0 -40.8333 7.5 -52.5 22.5c-11.6667 15 -17.5 31.5 -17.5 49.5c0 18.6667 5.83333 35.5 17.5 50.5c11.6667 15 29.1667 22.5 52.5 22.5c23.3333 0 40.6667 -7.5 52 -22.5c11.3333 -15 17 -31.8333 17 -50.5
c0 -18 -5.66667 -34.5 -17 -49.5s-28.6667 -22.5 -52 -22.5z" />
    <glyph glyph-name="semicolon" unicode=";" horiz-adv-x="207" 
d="M71 -120l-33 45c11.3333 9.33334 22 20.5 32 33.5s15.6667 25.1667 17 36.5c-16 1.33333 -30.1667 8.83333 -42.5 22.5c-12.3333 13.6667 -18.5 30.5 -18.5 50.5c0 18.6667 6 35.1667 18 49.5c12 14.3333 29.3333 21.5 52 21.5c23.3333 0 41.3333 -8.33333 54 -25
c12.6667 -16.6667 19 -38 19 -64c0 -24.6667 -7.33333 -52.1667 -22 -82.5c-14.6667 -30.3333 -40 -59.5 -76 -87.5zM106 344c-23.3333 0 -40.8333 7.5 -52.5 22.5c-11.6667 15 -17.5 31.5 -17.5 49.5c0 18.6667 5.83333 35.5 17.5 50.5c11.6667 15 29.1667 22.5 52.5 22.5
c23.3333 0 40.6667 -7.5 52 -22.5c11.3333 -15 17 -31.8333 17 -50.5c0 -18 -5.66667 -34.5 -17 -49.5s-28.6667 -22.5 -52 -22.5z" />
    <glyph glyph-name="less" unicode="&#x3c;" 
d="M466 129l-444 162v83l431 153l37 -108l-250 -85l260 -94z" />
    <glyph glyph-name="equal" unicode="=" 
d="M22 155v110h468v-110h-468zM22 370v110h468v-110h-468z" />
    <glyph glyph-name="greater" unicode="&#x3e;" 
d="M47 129l-34 111l260 94l-250 85l38 108l430 -153v-83z" />
    <glyph glyph-name="question" unicode="?" horiz-adv-x="401" 
d="M190 -11c-22.6667 0 -41.1667 8.16667 -55.5 24.5c-14.3333 16.3333 -21.5 35.1667 -21.5 56.5s7.16666 40.1667 21.5 56.5c14.3333 16.3333 32.8333 24.5 55.5 24.5c23.3333 0 42.1667 -8.16667 56.5 -24.5c14.3333 -16.3333 21.5 -35.1667 21.5 -56.5
c0 -21.3333 -7.16666 -40.1667 -21.5 -56.5c-14.3333 -16.3333 -33.1667 -24.5 -56.5 -24.5zM130 211v42c0 27.3333 6.5 51.6667 19.5 73c13 21.3333 32.8333 45.3333 59.5 72c16 16 30.1667 32.1667 42.5 48.5c12.3333 16.3333 18.5 36.1667 18.5 59.5
c0 20.6667 -6.66666 37 -20 49c-13.3333 12 -32.3333 18 -57 18c-18 0 -37.3333 -6.16669 -58 -18.5c-20.6667 -12.3333 -42 -32.5 -64 -60.5l-76 78c18.6667 25.3333 41 46 67 62c28 18 53.8333 30.3333 77.5 37c23.6667 6.66669 45.5 10 65.5 10
c48 0 87.3333 -10.6667 118 -32c22 -17.3333 38.3333 -34.8333 49 -52.5s17.3333 -34.5 20 -50.5c2.66666 -16 4 -28.3333 4 -37c0 -32 -7 -60.6667 -21 -86s-34 -52 -60 -80c-42.6667 -44.6667 -64 -80.6667 -64 -108v-24h-121z" />
    <glyph glyph-name="at" unicode="@" horiz-adv-x="721" 
d="M432 -157c-81.3333 0 -148.5 14.3333 -201.5 43c-53 28.6667 -93.1667 65.6667 -120.5 111c-26.6667 46 -43.6667 88.8333 -51 128.5s-11 75.8333 -11 108.5c0 86.6667 17 163.667 51 231c35.3333 68.6667 79.6667 116.333 133 143c54.6667 28.6667 111.333 43 170 43
c68.6667 0 123 -14 163 -42c40.6667 -26.6667 66.3334 -58 77 -94c11.3333 -37.3333 17 -68 17 -92v-389h-114v24c-13.3333 -11.3333 -29.1666 -19.8333 -47.5 -25.5c-18.3333 -5.66667 -35.5 -8.5 -51.5 -8.5c-56.6667 0 -101 18.8333 -133 56.5
c-32 37.6667 -48 89.8333 -48 156.5c0 47.3333 9.66666 87.6667 29 121c14.6667 24 31.8333 42.3333 51.5 55c19.6667 12.6667 38.3333 21 56 25c17.6667 4 31.1667 6 40.5 6c23.3333 0 43.3333 -3.66666 60 -11c16.6667 -7.33334 30.6667 -14.3333 42 -21
c0 40 -11.3333 72.5 -34 97.5c-22.6667 25 -60.3333 37.5 -113 37.5c-40 0 -74.6667 -8.83331 -104 -26.5c-29.3333 -17.6667 -53.5 -41 -72.5 -70c-19 -29 -33.1667 -62.3333 -42.5 -100s-14 -76.5 -14 -116.5c0 -17.3333 1.33333 -36.3333 4 -57s7.66667 -41.3333 15 -62
s17.5 -40.8333 30.5 -60.5c13 -19.6667 29.8333 -37 50.5 -52c20.6667 -15 45.6667 -27 75 -36s63.6667 -13.5 103 -13.5c50 0 94.1667 3.16667 132.5 9.5s71.8333 14.8333 100.5 25.5l26 -109c-26 -9.33333 -63 -17.6667 -111 -25c-48 -7.33333 -100.667 -11 -158 -11z
M459 127c18.6667 0 34.6667 2.5 48 7.5c13.3333 5 25.6666 13.5 37 25.5v152c-33.3333 19.3333 -62 29 -86 29c-52.6667 0 -79 -33.3333 -79 -100c0 -38.6667 7.5 -67.3333 22.5 -86c15 -18.6667 34.1667 -28 57.5 -28z" />
    <glyph glyph-name="A" unicode="A" horiz-adv-x="608" 
d="M0 0l240 667h127l241 -667h-131l-46 134h-255l-45 -134h-131zM215 247h178l-89 263z" />
    <glyph glyph-name="B" unicode="B" horiz-adv-x="568" 
d="M73 0v667h226c48.6667 0 90.6667 -11 126 -33c34 -21.3333 56.6667 -46.3333 68 -75c10 -27.3333 15 -51.3333 15 -72c0 -30 -6.66666 -56 -20 -78s-32.3333 -40.6667 -57 -56c34 -12.6667 61.3333 -32.8333 82 -60.5c20.6667 -27.6667 31 -62.5 31 -104.5
c0 -35.3333 -9.5 -69 -28.5 -101s-47.8333 -55.6667 -86.5 -71c-14 -5.33333 -29.5 -9.33333 -46.5 -12s-33.5 -4 -49.5 -4h-260zM200 114h91c22 0 39.3333 1 52 3s23 5.33334 31 10c14 8 24.1667 17.8333 30.5 29.5s9.5 23.8333 9.5 36.5c0 14.6667 -4 29 -12 43
s-19.6667 25.3333 -35 34c-10 5.33334 -21.6667 9.16669 -35 11.5c-13.3333 2.33334 -27.6667 3.5 -43 3.5h-89v-171zM200 394h62c36 0 59.6667 3 71 9c16 8 27.6667 18.1667 35 30.5s11 25.1667 11 38.5c0 16 -5 30.8333 -15 44.5c-10 13.6667 -24.6667 23.8334 -44 30.5
c-1.33334 0 -4.5 0.333313 -9.5 1s-10.8333 1.33337 -17.5 2l-21 2c-7.33334 0.666687 -14 1 -20 1h-52v-159z" />
    <glyph glyph-name="C" unicode="C" horiz-adv-x="571" 
d="M330 -14c-42 0 -80.5 7.33333 -115.5 22s-65.3333 36.5 -91 65.5c-25.6667 29 -45.5 65 -59.5 108s-21 92.8333 -21 149.5c0 60 8.16666 111.833 24.5 155.5c16.3333 43.6667 37.8333 80 64.5 109c26.6667 29 57.1667 50.5 91.5 64.5c34.3333 14 69.5 21 105.5 21
c45.3333 0 85 -8.33331 119 -25s58.6667 -34.3334 74 -53c15.3333 -18.6667 25 -32 29 -40l-94 -79c-3.33334 6 -8.16669 13.5 -14.5 22.5c-6.33334 9 -14.6667 17.6667 -25 26c-10.3333 8.33331 -22.6667 15.5 -37 21.5c-14.3333 6 -30.8333 9 -49.5 9
c-21.3333 0 -41.5 -4.5 -60.5 -13.5s-35.8333 -23 -50.5 -42s-26.1667 -43 -34.5 -72s-12.5 -63.8333 -12.5 -104.5c0 -72.6667 15.6667 -128.5 47 -167.5c31.3333 -39 73 -58.5 125 -58.5c38 0 70.6667 6.5 98 19.5s47 25.5 59 37.5l41 -111
c-15.3333 -18 -46.1667 -33.3333 -92.5 -46s-86.5 -19 -120.5 -19z" />
    <glyph glyph-name="D" unicode="D" horiz-adv-x="628" 
d="M73 0v667h188c24 0 50.6667 -2 80 -6s57.3333 -12 84 -24c42 -20.6667 76 -51.3334 102 -92c26.6667 -40 43.3334 -79 50 -117c6.66669 -44.6667 10 -75 10 -91c0 -58 -11.5 -111.833 -34.5 -161.5s-46.6667 -84.5 -71 -104.5s-43.5 -32.3333 -57.5 -37
c-45.3333 -22.6667 -98 -34 -158 -34h-193zM201 120h52c46.6667 0 84.6667 8.33333 114 25c30.6667 16.6667 53.3333 42.1667 68 76.5c14.6667 34.3333 22 70.8333 22 109.5c0 38 -6.66666 73.8333 -20 107.5s-34 59.8333 -62 78.5c-14.6667 10 -32.8333 17.5 -54.5 22.5
c-21.6667 5 -43.1667 7.5 -64.5 7.5h-55v-427z" />
    <glyph glyph-name="E" unicode="E" horiz-adv-x="557" 
d="M73 0v667h435v-121h-307v-152h254v-121h-254v-152h329v-121h-457z" />
    <glyph glyph-name="F" unicode="F" horiz-adv-x="509" 
d="M73 0v667h431v-121h-303v-158h242v-119h-242v-269h-128z" />
    <glyph glyph-name="G" unicode="G" horiz-adv-x="608" 
d="M338 -14c-43.3333 0 -83.1667 7.66667 -119.5 23s-67.5 37.8333 -93.5 67.5c-26 29.6667 -46.1667 65.8333 -60.5 108.5s-21.5 91.3333 -21.5 146c0 60 7.66666 111.833 23 155.5c15.3333 43.6667 36 80 62 109s55.8333 50.5 89.5 64.5s69.1667 21 106.5 21
c58.6667 0 106 -10.8333 142 -32.5s63.3333 -49.5 82 -83.5l-88 -81c-12.6667 22 -30.6667 40.6667 -54 56s-50.3333 23 -81 23c-35.3333 0.666687 -65.3333 -12.3333 -90 -39c-25.3333 -26 -42.3333 -57.3333 -51 -94c-4.66667 -18.6667 -7.83334 -36.1667 -9.5 -52.5
c-1.66667 -16.3333 -2.16667 -31.8333 -1.5 -46.5c0 -50.6667 9 -95 27 -133c10 -21.3333 21.5 -38.1667 34.5 -50.5c13 -12.3333 26.3333 -21.6667 40 -28s26.6667 -10.3333 39 -12s22.8333 -2.5 31.5 -2.5c26.6667 0 48.1667 1.5 64.5 4.5s25.8333 5.16666 28.5 6.5v120
h-104v115h224v-321c-16.6667 -10.6667 -44 -20.6667 -82 -30s-84 -14 -138 -14z" />
    <glyph glyph-name="H" unicode="H" horiz-adv-x="655" 
d="M73 0v667h128v-264h252v264h128v-667h-128v282h-252v-282h-128z" />
    <glyph glyph-name="I" unicode="I" horiz-adv-x="275" 
d="M73 0v667h128v-667h-128z" />
    <glyph glyph-name="J" unicode="J" horiz-adv-x="425" 
d="M171 -14c-35.3333 0 -66.3333 4.83333 -93 14.5c-26.6667 9.66667 -46 18.1667 -58 25.5l37 107c6 -7.33334 16.8333 -14 32.5 -20s28.6667 -9.66666 39 -11c10.3333 -1.33334 19.5 -2 27.5 -2c23.3333 0 41.8333 5.83334 55.5 17.5
c13.6667 11.6667 20.5 33.8333 20.5 66.5v483h128v-484c0 -66.6667 -15.8333 -116.167 -47.5 -148.5c-31.6667 -32.3333 -78.8333 -48.5 -141.5 -48.5z" />
    <glyph glyph-name="K" unicode="K" horiz-adv-x="589" 
d="M73 0v667h128v-269h67c12.6667 0 23.6667 3.16666 33 9.5s19 21.1667 29 44.5l95 215h135l-105 -233c-9.33334 -20 -18.3333 -35.3333 -27 -46s-19.3333 -19.6667 -32 -27c15.3333 -8 27.8333 -18 37.5 -30s18.1667 -27.6667 25.5 -47l113 -284h-139l-82 208
c-10.6667 26.6667 -21 46.3333 -31 59s-24.6667 19 -44 19h-75v-286h-128z" />
    <glyph glyph-name="L" unicode="L" horiz-adv-x="531" 
d="M73 0v667h128v-546h310v-121h-438z" />
    <glyph glyph-name="M" unicode="M" horiz-adv-x="750" 
d="M340 -4l-138 401l-18 -397h-127l32 667h131l163 -474l146 474h132l32 -667h-127l-18 393l-123 -397h-85z" />
    <glyph glyph-name="N" unicode="N" horiz-adv-x="660" 
d="M73 0v667h131l257 -416v416h126v-667h-112l-275 441v-441h-127z" />
    <glyph glyph-name="O" unicode="O" horiz-adv-x="672" 
d="M334 -14c-48.6667 0 -91.1667 10.1667 -127.5 30.5c-36.3333 20.3333 -66.6667 46.8333 -91 79.5c-24.3333 32.6667 -42.5 69.8333 -54.5 111.5c-12 41.6667 -18 83.8333 -18 126.5s6 84.8333 18 126.5c12 41.6667 30.1667 78.8333 54.5 111.5
c24.3333 32.6667 54.6667 59 91 79c36.3333 20 78.8333 30 127.5 30c68 0 125.667 -20 173 -60c47.3333 -40 79.3333 -87.3333 96 -142c17.3333 -57.3333 26 -105.667 26 -145c0 -42.6667 -6.16669 -84.8333 -18.5 -126.5s-30.6666 -78.8333 -55 -111.5
c-24.3333 -32.6667 -55 -59.1667 -92 -79.5c-37 -20.3333 -80.1667 -30.5 -129.5 -30.5zM334 105c26.6667 0 51.3333 7.16666 74 21.5c22.6667 14.3333 39.6667 31.3333 51 51s19.6667 38.8333 25 57.5c10 36.6667 15 69.6667 15 99c0 44 -8 85 -24 123
c-15.3333 38 -36 65.1667 -62 81.5s-52.3333 24.5 -79 24.5c-26 0 -49.1667 -6.33331 -69.5 -19c-20.3333 -12.6667 -37.3333 -29.6667 -51 -51c-13.6667 -21.3333 -24 -45.8333 -31 -73.5s-10.5 -56.1667 -10.5 -85.5s3.5 -57.8333 10.5 -85.5
c7 -27.6667 17.3333 -52.1667 31 -73.5s30.6667 -38.3333 51 -51c20.3333 -12.6667 43.5 -19 69.5 -19z" />
    <glyph glyph-name="P" unicode="P" horiz-adv-x="549" 
d="M73 0v667h200c32 0 61.6667 -2.16669 89 -6.5s53.6667 -12.8333 79 -25.5c32 -16 55.6667 -39.8333 71 -71.5c15.3333 -31.6667 23 -65.5 23 -101.5c0 -35.3333 -7.66669 -69.1667 -23 -101.5c-15.3333 -32.3333 -31.8333 -55.8333 -49.5 -70.5s-30.8333 -23 -39.5 -25
c-22.6667 -9.33333 -45.3333 -15.8333 -68 -19.5c-22.6667 -3.66667 -45.6667 -5.5 -69 -5.5h-87v-240h-126zM199 355h71c18 0 34.5 1 49.5 3s27.8333 5.66666 38.5 11c18 8.66666 31 20.6667 39 36s12 31.6667 12 49c0 18.6667 -4.5 36 -13.5 52s-22.5 27.3333 -40.5 34
c-23.3333 8 -50 12 -80 12h-76v-197z" />
    <glyph glyph-name="Q" unicode="Q" horiz-adv-x="682" 
d="M629 -30c-3.33331 6 -13.3333 18.1667 -30 36.5s-38 39.8333 -64 64.5c-24 -26 -52.5 -46.6667 -85.5 -62s-71.5 -23 -115.5 -23c-48.6667 0 -91.1667 10.1667 -127.5 30.5c-36.3333 20.3333 -66.6667 46.8333 -91 79.5c-24.3333 32.6667 -42.5 69.8333 -54.5 111.5
c-12 41.6667 -18 83.8333 -18 126.5s6 84.8333 18 126.5c12 41.6667 30.1667 78.8333 54.5 111.5c24.3333 32.6667 54.6667 59 91 79c36.3333 20 78.8333 30 127.5 30c68 0 125.667 -20 173 -60c47.3333 -40 79.3333 -87.3333 96 -142c17.3333 -57.3333 26 -105.667 26 -145
c0 -30 -3 -59.6667 -9 -89c-6 -29.3333 -15 -57.3333 -27 -84c32 -28 57.1667 -52.6667 75.5 -74s29.5 -35.3333 33.5 -42zM334 105c39.3333 0 73 14 101 42c-23.3333 15.3333 -58 33 -104 53l40 94c21.3333 -7.33334 41.8333 -16 61.5 -26s37.1667 -20.3333 52.5 -31
c9.33334 32 14 64.3333 14 97c0 44 -8 85 -24 123c-15.3333 38 -36 65.1667 -62 81.5s-52.3333 24.5 -79 24.5c-26 0 -49.1667 -6.33331 -69.5 -19c-20.3333 -12.6667 -37.3333 -29.6667 -51 -51c-13.6667 -21.3333 -24 -45.8333 -31 -73.5s-10.5 -56.1667 -10.5 -85.5
s3.5 -57.8333 10.5 -85.5c7 -27.6667 17.3333 -52.1667 31 -73.5s30.6667 -38.3333 51 -51c20.3333 -12.6667 43.5 -19 69.5 -19z" />
    <glyph glyph-name="R" unicode="R" horiz-adv-x="588" 
d="M73 0v667h233c49.3333 0 93 -10.3333 131 -31s63.3333 -46.3334 76 -77c11.3333 -29.3333 17 -59.3333 17 -90c0 -34 -7.66669 -65.3333 -23 -94c-15.3333 -28.6667 -39 -52.6667 -71 -72c18.6667 -9.33334 33.6667 -22.6667 45 -40
c11.3333 -17.3333 22.6667 -44.3333 34 -81l50 -182h-133l-50 167c-8 22 -15.3333 40 -22 54c-4.66666 10 -12.8333 17.3333 -24.5 22c-11.6667 4.66667 -24.8333 7 -39.5 7h-97v-250h-126zM199 365h90c76 0 114 30.3333 114 91c0 32 -9 55.8333 -27 71.5
c-18 15.6667 -47 23.5 -87 23.5h-90v-186z" />
    <glyph glyph-name="S" unicode="S" horiz-adv-x="521" 
d="M257 -14c-30 0 -57.6667 2.66667 -83 8s-47.6667 11.5 -67 18.5s-35.5 14.1667 -48.5 21.5s-22.5 13.3333 -28.5 18l54 111c6 -5.33333 14.3333 -11.6667 25 -19c10.6667 -7.33333 23.1667 -14.3333 37.5 -21c14.3333 -6.66666 30.6667 -12.1667 49 -16.5
c18.3333 -4.33334 38.5 -6.5 60.5 -6.5c32 0 57.1667 7 75.5 21s27.5 32.6667 27.5 56c0 28 -9 49.6667 -27 65c-19.3333 16 -58.6667 34.3333 -118 55c-49.3333 14 -88.3333 32.6667 -117 56c-20 16.6667 -34.8333 34.6667 -44.5 54
c-9.66667 19.3333 -14.8333 36.1667 -15.5 50.5c-0.666672 14.3333 -0.666672 26.8333 0 37.5c0 42 10.3333 77.3333 31 106c20.6667 30 48.6667 50.8333 84 62.5c35.3333 11.6667 71.3333 17.5 108 17.5c36 0 69.1667 -5 99.5 -15s55.8333 -22.3333 76.5 -37
s36 -27.6667 46 -39l-67 -89c-12.6667 14 -31.6667 27 -57 39s-46.6667 20.1667 -64 24.5c-17.3333 4.33331 -30.3333 6.16663 -39 5.5c-34.6667 0 -59 -6.83331 -73 -20.5s-21 -30.1667 -21 -49.5c0 -23.3333 8 -41 24 -53c8.66667 -6 21.5 -13 38.5 -21
s38.8333 -16.6667 65.5 -26c59.3333 -20.6667 103.667 -43.6667 133 -69c29.3333 -24.6667 47 -49.6667 53 -75c5.33334 -23.3333 9 -48 11 -74c0 -45.3333 -13.6667 -84.6667 -41 -118c-27.3333 -32 -58.6667 -53 -94 -63c-35.3333 -10 -66.6667 -15 -94 -15z" />
    <glyph glyph-name="T" unicode="T" horiz-adv-x="516" 
d="M194 0v546h-189v121h506v-121h-189v-546h-128z" />
    <glyph glyph-name="U" unicode="U" horiz-adv-x="653" 
d="M326 -14c-56.6667 0 -105.333 12.3333 -146 37c-41.3333 25.3333 -70.1667 56.5 -86.5 93.5s-24.5 74.5 -24.5 112.5v438h128v-425c0 -40 11.1667 -72.8333 33.5 -98.5c22.3333 -25.6667 54.5 -38.5 96.5 -38.5s73.8333 12.8333 95.5 38.5
c21.6667 25.6667 32.5 58.5 32.5 98.5v425h128v-438c0 -38 -6.66669 -72 -20 -102s-31.6666 -55.5 -55 -76.5c-23.3333 -21 -50.5 -37 -81.5 -48s-64.5 -16.5 -100.5 -16.5z" />
    <glyph glyph-name="V" unicode="V" horiz-adv-x="598" 
d="M246 0l-246 667h137l169 -505l166 505h126l-233 -667h-119z" />
    <glyph glyph-name="W" unicode="W" horiz-adv-x="759" 
d="M136 0l-126 667h127l76 -450l108 450h117l113 -450l75 450h123l-127 -667h-127l-118 480l-113 -480h-128z" />
    <glyph glyph-name="X" unicode="X" horiz-adv-x="550" 
d="M0 0l206 347l-192 320h145l116 -203l115 203h145l-191 -320l206 -347h-143l-132 230l-132 -230h-143z" />
    <glyph glyph-name="Y" unicode="Y" horiz-adv-x="552" 
d="M214 0v268l-214 399h143l137 -265l131 265h141l-210 -399v-268h-128z" />
    <glyph glyph-name="Z" unicode="Z" horiz-adv-x="538" 
d="M25 0v110l323 436h-296v121h453v-114l-320 -432h326v-121h-486z" />
    <glyph glyph-name="bracketleft" unicode="[" horiz-adv-x="300" 
d="M63 -143v879h222v-110h-104v-659h104v-110h-222z" />
    <glyph glyph-name="backslash" unicode="\" horiz-adv-x="516" 
d="M420 -32l-420 745l94 53l422 -741z" />
    <glyph glyph-name="bracketright" unicode="]" horiz-adv-x="300" 
d="M15 -143v110h105v659h-105v110h222v-879h-222z" />
    <glyph glyph-name="asciicircum" unicode="^" horiz-adv-x="524" 
d="M173 283l-115 39l157 345h92l160 -330l-111 -45l-95 213z" />
    <glyph glyph-name="underscore" unicode="_" horiz-adv-x="500" 
d="M0 -220v70h500v-70h-500z" />
    <glyph glyph-name="grave" unicode="`" horiz-adv-x="420" 
d="M302 538l-217 112l59 83l191 -141z" />
    <glyph glyph-name="a" unicode="a" horiz-adv-x="488" 
d="M191 -11c-20.6667 0 -40.5 3.5 -59.5 10.5s-35.8333 17 -50.5 30s-26.5 29 -35.5 48s-13.5 40.5 -13.5 64.5c0 26 5.5 48.5 16.5 67.5s25.3333 35 43 48s36.6667 23 57 30c20.3333 7 38.8333 11.5 55.5 13.5c9.33333 1.33334 42.6667 5.33334 100 12v7
c0 26.6667 -6.83334 45.6667 -20.5 57s-32.5 17 -56.5 17c-24 0 -47 -5.16666 -69 -15.5s-38.6667 -20.5 -50 -30.5l-41 87c14 14 40 27.3333 78 40c40 12.6667 74.3333 19 103 19c30.6667 0 57.5 -4.66666 80.5 -14s42 -22.5 57 -39.5s26 -36.8333 33 -59.5
s10.5 -46.3333 10.5 -71v-310h-114l-5 36c-13.3333 -14.6667 -30.3333 -26.1667 -51 -34.5c-20.6667 -8.33333 -43.3333 -12.5 -68 -12.5zM220 92c16 0 31.5 3.33334 46.5 10s27.8333 15 38.5 25v98c-40.6667 -4.66667 -67.6667 -8 -81 -10
c-26.6667 -5.33333 -45.1667 -14.5 -55.5 -27.5s-15.5 -27.1667 -15.5 -42.5c0 -16 5.83333 -28.8333 17.5 -38.5s28.1667 -14.5 49.5 -14.5z" />
    <glyph glyph-name="b" unicode="b" horiz-adv-x="525" 
d="M243 -11c-32 0 -62.6667 3.66667 -92 11c-29.3333 7.33333 -59 17.3333 -89 30v637h124v-184c32.6667 7.33334 59.6667 11 81 11c55.3333 0 100.333 -14.3333 135 -43c35.3333 -29.3333 59 -62.3333 71 -99c12.6667 -35.3333 19 -69.3333 19 -102
c0 -46.6667 -6.66666 -86.5 -20 -119.5s-31.3333 -60 -54 -81s-49.1667 -36.3333 -79.5 -46s-62.1667 -14.5 -95.5 -14.5zM238 94c40 0 72.1667 13 96.5 39s36.5 64 36.5 114c0 47.3333 -12 82.8333 -36 106.5s-53.3333 35.5 -88 35.5c-16.6667 0 -37 -3.66666 -61 -11v-275
c26 -6 43.3333 -9 52 -9z" />
    <glyph glyph-name="c" unicode="c" horiz-adv-x="463" 
d="M257 -11c-29.3333 0 -57.5 5 -84.5 15s-50.8333 25.3333 -71.5 46c-20.6667 20.6667 -37.1667 46.6667 -49.5 78c-12.3333 31.3333 -18.5 68.3333 -18.5 111c0 60 12 110.667 36 152c24.6667 40.6667 54.3333 68 89 82s66.6667 21 96 21c50.6667 0 91.3333 -12 122 -36
c30.6667 -24 53 -49.6667 67 -77l-92 -62c-10 17.3333 -22.5 33.5 -37.5 48.5s-34.5 22.5 -58.5 22.5c-26.6667 0 -49.8333 -11.8333 -69.5 -35.5c-19.6667 -23.6667 -29.5 -60.5 -29.5 -110.5c0 -48 10 -84.6667 30 -110c20 -25.3333 49 -38 87 -38
c34 0 61.1667 5.16666 81.5 15.5s35.8333 20.8333 46.5 31.5l36 -102c-18 -13.3333 -42.5 -25.3333 -73.5 -36s-66.5 -16 -106.5 -16z" />
    <glyph glyph-name="d" unicode="d" horiz-adv-x="529" 
d="M238 -11c-33.3333 0 -62.6667 7 -88 21s-46.6667 32.6667 -64 56c-17.3333 23.3333 -30.5 50.3333 -39.5 81c-9 30.6667 -13.5 62.6667 -13.5 96c0 51.3333 10.3333 96.3333 31 135c15.3333 31.3333 36.5 55.8333 63.5 73.5s52.6667 29.3333 77 35
c24.3333 5.66666 43.5 8.16666 57.5 7.5c23.3333 0 50.6667 -4.66666 82 -14v187h123v-667h-113l-5 37c-11.3333 -12.6667 -26.3333 -23.8333 -45 -33.5s-40.6667 -14.5 -66 -14.5zM263 95c15.3333 0 31 4.16666 47 12.5s27.3333 18.1667 34 29.5v238
c-26 9.33334 -48.3333 14 -67 14c-34.6667 0 -62.5 -11.1667 -83.5 -33.5s-33.1667 -44.1667 -36.5 -65.5c-3.33333 -21.3333 -4.33333 -36 -3 -44c0 -20 2.16667 -39.1667 6.5 -57.5s11 -34.3333 20 -48c9 -13.6667 20.3333 -24.6667 34 -33s29.8333 -12.5 48.5 -12.5z" />
    <glyph glyph-name="e" unicode="e" horiz-adv-x="499" 
d="M267 -11c-31.3333 0 -61.1667 5 -89.5 15c-28.3333 10 -53.1667 25.5 -74.5 46.5s-38.3333 47.1667 -51 78.5c-12.6667 31.3333 -19 68.6667 -19 112c0 40.6667 5.83333 76.6667 17.5 108c11.6667 31.3333 27.6667 57.6667 48 79c20.3333 21.3333 44 37.6667 71 49
c27 11.3333 55.8333 17 86.5 17c54 0 98 -15 132 -45c34.6667 -30 57 -65.3333 67 -106c10 -40 15 -77 15 -111v-22h-312c2.66667 -40.6667 15.3333 -70 38 -88c22.6667 -18 52 -27 88 -27c32 0 60 5 84 15s40.3333 19.3333 49 28l33 -101
c-14.6667 -10.6667 -28.6667 -18.3333 -42 -23c-8 -4 -27.6667 -9 -59 -15c-30.6667 -6.66667 -58 -10 -82 -10zM161 299h183c-2 27.3333 -9.83334 48.3333 -23.5 63s-26.8333 23.8333 -39.5 27.5c-12.6667 3.66666 -21 5.5 -25 5.5c-21.3333 0 -41.6667 -8 -61 -24
c-19.3333 -16 -30.6667 -40 -34 -72z" />
    <glyph glyph-name="f" unicode="f" horiz-adv-x="318" 
d="M79 0v382h-64v100h64v26c0 46.6667 9.66666 83.6667 29 111c18.6667 28 40.6667 45 66 51c24 6.66669 45.3333 10 64 10c30 0 54.8333 -2.83331 74.5 -8.5s31.1667 -9.5 34.5 -11.5l-14 -103c-4 2 -11.8333 4.83331 -23.5 8.5s-27.1667 5.5 -46.5 5.5
c-17.3333 0 -31.8333 -5.16669 -43.5 -15.5s-17.5 -27.1666 -17.5 -50.5v-23h104v-100h-103v-382h-124z" />
    <glyph glyph-name="g" unicode="g" horiz-adv-x="526" 
d="M246 -198c-21.3333 0 -41.8333 1.16667 -61.5 3.5s-38.8333 5.83333 -57.5 10.5c-34.6667 8.66667 -58 16 -70 22l26 109c16.6667 -9.33333 38.6667 -18 66 -26c27.3333 -8 56.3333 -12 87 -12c36 0 62.3333 6.66666 79 20s25 30.6667 25 52v28
c-23.3333 -6 -46 -9 -68 -9c-39.3333 0 -73.8333 6.5 -103.5 19.5s-54.5 30.6667 -74.5 53s-35.1667 48.5 -45.5 78.5c-10.3333 30 -15.5 62 -15.5 96c0 52.6667 12 98.6667 36 138c24.6667 40 56.8333 68.1667 96.5 84.5s81.8333 24.5 126.5 24.5
c34.6667 0 67.6667 -1.83334 99 -5.5s56 -7.16666 74 -10.5v-466c0 -68.6667 -18.8333 -120.833 -56.5 -156.5s-91.8333 -53.5 -162.5 -53.5zM290 107c12 0 21.8333 1.33334 29.5 4s14.5 5.66666 20.5 9v266c-17.3333 2.66666 -33 4 -47 4c-39.3333 0 -70.3333 -10 -93 -30
c-14 -12.6667 -24.8333 -27 -32.5 -43s-11.8333 -30 -12.5 -42c-0.666672 -12 -1 -21.3333 -1 -28c0 -42 11.1667 -75.8333 33.5 -101.5c22.3333 -25.6667 56.5 -38.5 102.5 -38.5z" />
    <glyph glyph-name="h" unicode="h" horiz-adv-x="548" 
d="M62 0v667h124v-217c15.3333 12 33.5 22.3333 54.5 31s46.5 13 76.5 13c46.6667 0.666656 83.8333 -11.6667 111.5 -37c27.6667 -25.3333 44.5 -54.3333 50.5 -87c6.66666 -31.3333 10 -59.3333 10 -84v-286h-124v277c0 40 -7.83334 68.8333 -23.5 86.5
s-33.5 26.5 -53.5 26.5s-38.1667 -4.5 -54.5 -13.5s-32.1667 -20.1667 -47.5 -33.5v-343h-124z" />
    <glyph glyph-name="i" unicode="i" horiz-adv-x="247" 
d="M62 0v482h123v-482h-123zM124 527c-25.3333 0 -44.1667 7.33331 -56.5 22c-12.3333 14.6667 -18.5 31 -18.5 49c0 17.3333 6.16666 33.3333 18.5 48s31.1667 22 56.5 22c24.6667 0 43.1667 -7.33331 55.5 -22s18.5 -30.6667 18.5 -48c0 -18 -6.16667 -34.3333 -18.5 -49
s-30.8333 -22 -55.5 -22z" />
    <glyph glyph-name="j" unicode="j" horiz-adv-x="257" 
d="M51 -203l-55 97c28 18.6667 47.5 37.6667 58.5 57c11 19.3333 16.5 42 16.5 68v463h124v-463c0 -55.3333 -11.5 -100.333 -34.5 -135s-59.5 -63.6667 -109.5 -87zM134 527c-24.6667 0 -43.1667 7.33331 -55.5 22s-18.5 31 -18.5 49c0 17.3333 6.16666 33.3333 18.5 48
s30.8333 22 55.5 22c24 0 42.1667 -7.33331 54.5 -22s18.5 -30.6667 18.5 -48c0 -18 -6.16667 -34.3333 -18.5 -49s-30.5 -22 -54.5 -22z" />
    <glyph glyph-name="k" unicode="k" horiz-adv-x="500" 
d="M62 0v667h124v-348h30c12 0 22.6667 3.5 32 10.5c9.33334 7 19 22.1667 29 45.5l44 107h134l-58 -135c-13.3333 -30 -32 -52.6667 -56 -68c14.6667 -7.33334 26.8333 -16.1667 36.5 -26.5c9.66666 -10.3333 17.8333 -23.5 24.5 -39.5l88 -213h-135l-55 130
c-12.6667 30 -23.8333 51 -33.5 63c-9.66666 12 -23.5 18 -41.5 18h-39v-211h-124z" />
    <glyph glyph-name="l" unicode="l" horiz-adv-x="308" 
d="M190 -11c-27.3333 0 -49.5 4.16667 -66.5 12.5s-30.1667 19 -39.5 32s-15.3333 27.1667 -18 42.5c-2.66667 15.3333 -4 29 -4 41v550h124v-526c0 -17.3333 3.5 -29.1667 10.5 -35.5c7 -6.33334 16.8333 -9.5 29.5 -9.5s26 3 40 9l22 -94
c-2.66666 -2.66667 -14.6667 -7 -36 -13c-20 -6 -40.6667 -9 -62 -9z" />
    <glyph glyph-name="m" unicode="m" horiz-adv-x="837" 
d="M62 0v482h114l5 -36c14.6667 13.3333 32.8333 24.6667 54.5 34c21.6667 9.33334 43.5 14 65.5 14c22.6667 0 45.1667 -3.5 67.5 -10.5s43.1667 -19.1667 62.5 -36.5c22 13.3333 46.1667 24.5 72.5 33.5c26.3333 9 54.5 13.5 84.5 13.5c54.6667 0 96.6667 -12 126 -36
c30 -25.3333 48 -53.6667 54 -85c6.66669 -30.6667 10 -58.6667 10 -84v-289h-123v283c0 32 -6 57.8333 -18 77.5s-34.3333 29.5 -67 29.5c-16 0 -33.1667 -4.33334 -51.5 -13c-18.3333 -8.66666 -32.8333 -17.3333 -43.5 -26c4 -24 6 -44 6 -60v-291h-124v283
c0 36 -6.66666 62.8333 -20 80.5s-32 26.5 -56 26.5c-18.6667 0 -36.3333 -5 -53 -15s-30.6667 -20.6667 -42 -32v-343h-124z" />
    <glyph glyph-name="n" unicode="n" horiz-adv-x="552" 
d="M62 0v482h113l6 -38c19.3333 16 41.1667 28.3333 65.5 37s48.8333 13 73.5 13c38.6667 0 71.6667 -8.66666 99 -26s46.5 -42.8333 57.5 -76.5s16.5 -69.1667 16.5 -106.5v-285h-124v275c0 36.6667 -7.5 65 -22.5 85s-36.5 30 -64.5 30c-19.3333 0 -37.1667 -5 -53.5 -15
s-30.5 -21 -42.5 -33v-342h-124z" />
    <glyph glyph-name="o" unicode="o" horiz-adv-x="528" 
d="M264 -11c-38.6667 0 -72.5 7.33333 -101.5 22s-53 34 -72 58s-33.3333 51.1667 -43 81.5c-9.66667 30.3333 -14.5 61.1667 -14.5 92.5c0 48.6667 10.6667 93.6667 32 135c22 41.3333 51 71 87 89s73.3333 27 112 27c54 0 99.6667 -14.6667 137 -44
c36.6667 -28.6667 61.3333 -62.6667 74 -102c13.3333 -41.3333 20 -76.3333 20 -105c0 -48.6667 -11 -94 -33 -136c-16.6667 -32.6667 -38.5 -58.3333 -65.5 -77c-27 -18.6667 -52.1667 -30.1667 -75.5 -34.5s-42.3333 -6.5 -57 -6.5zM264 96
c21.3333 -1.33334 39.3333 3.83333 54 15.5c14.6667 11.6667 26.1667 25.5 34.5 41.5s14.1667 32.5 17.5 49.5c3.33334 17 4.33334 30.5 3 40.5c0 36 -7.5 66.3333 -22.5 91s-31 40.1667 -48 46.5s-29.8333 9.16669 -38.5 8.5c-28 0 -51.3333 -10 -70 -30
c-15.3333 -16.6667 -25.6667 -35.1667 -31 -55.5c-5.33333 -20.3333 -8 -40.5 -8 -60.5c0 -20.6667 2.33333 -39.8333 7 -57.5c4.66667 -17.6667 11.5 -33.1667 20.5 -46.5c9 -13.3333 20.3333 -23.8333 34 -31.5s29.5 -11.5 47.5 -11.5z" />
    <glyph glyph-name="p" unicode="p" horiz-adv-x="526" 
d="M62 -189v671h113l6 -36c11.3333 11.3333 26.5 22.1667 45.5 32.5c19 10.3333 41.5 15.5 67.5 15.5c46 0 85 -14 117 -42s53.6667 -62 65 -102c11.3333 -41.3333 17 -77.3333 17 -108c0 -50.6667 -11.3333 -96.8333 -34 -138.5
c-22.6667 -41.6667 -52.6667 -71.1667 -90 -88.5s-77 -26 -119 -26c-20 0 -41.3333 4.66667 -64 14v-192h-124zM243 97c24.6667 -0.666656 45.5 4 62.5 14s30.5 22.3333 40.5 37s17 30.3333 21 47c4 16.6667 5.66666 31.6667 5 45c0.666656 29.3333 -5 57 -17 83
c-11.3333 26 -25.6667 44 -43 54c-17.3333 10 -32 14.3333 -44 13c-17.3333 0 -33.6667 -4.83334 -49 -14.5c-15.3333 -9.66666 -26.6667 -20.1667 -34 -31.5v-233c22 -9.33334 41.3333 -14 58 -14z" />
    <glyph glyph-name="q" unicode="q" horiz-adv-x="526" 
d="M340 -189v187c-23.3333 -6 -46 -9 -68 -9c-39.3333 0 -73.8333 6.83333 -103.5 20.5s-54.5 32 -74.5 55s-35.1667 49.8333 -45.5 80.5c-10.3333 30.6667 -15.5 63 -15.5 97c0 50.6667 11.6667 96.6667 35 138c24 41.3333 56.1667 70.6667 96.5 88
c40.3333 17.3333 82.8333 26 127.5 26c24.6667 0 51.5 -1.5 80.5 -4.5s59.8333 -6.83334 92.5 -11.5v-667h-125zM290 96c17.3333 0 34 4 50 12v278c-17.3333 2.66666 -33 4 -47 4c-27.3333 0.666656 -50 -4.33334 -68 -15c-18 -10.6667 -32.5 -23.6667 -43.5 -39
s-18.6667 -31.6667 -23 -49c-4.33333 -17.3333 -5.83333 -32.3333 -4.5 -45c0 -20.6667 2.83333 -39.8333 8.5 -57.5c5.66667 -17.6667 14.1667 -33 25.5 -46s25.5 -23.3333 42.5 -31s36.8333 -11.5 59.5 -11.5z" />
    <glyph glyph-name="r" unicode="r" horiz-adv-x="356" 
d="M62 0v482h113l8 -51c11.3333 13.3333 23.8333 24.1667 37.5 32.5c13.6667 8.33334 27.8333 15.1667 42.5 20.5c14.6667 5.33334 27.6667 8 39 8c26 0 44 -2.33334 54 -7l-18 -108c-8.66666 2.66666 -22.6667 4 -42 4c-23.3333 0 -44.3333 -6.16666 -63 -18.5
c-18.6667 -12.3333 -34.3333 -25.1667 -47 -38.5v-324h-124z" />
    <glyph glyph-name="s" unicode="s" horiz-adv-x="461" 
d="M238 -11c-17.3333 0 -34.8333 1.16667 -52.5 3.5s-35.8333 5.83333 -54.5 10.5c-36 9.33333 -61.3333 18.6667 -76 28c-14.6667 9.33333 -23.6667 16.6667 -27 22l45 95c12.6667 -13.3333 30.6667 -25.6667 54 -37c23.3333 -10 44.5 -16.6667 63.5 -20
s34.8333 -5 47.5 -5c30 0 50.8333 4.33334 62.5 13s17.5 20.3333 17.5 35c0 12.6667 -7.66666 24 -23 34s-45 20.6667 -89 32c-31.3333 6.66667 -57.1667 15 -77.5 25s-36.5 21.3333 -48.5 34c-12 12.6667 -20.1667 26.6667 -24.5 42
c-4.33334 15.3333 -6.16666 31.6667 -5.5 49c0 42.6667 15.8333 77.3333 47.5 104c31.6667 26.6667 79.8333 40 144.5 40c42 0 79.6667 -6 113 -18c34 -11.3333 57.6667 -22.6667 71 -34l-42 -90c-12.6667 10 -31.3333 20.3333 -56 31c-24.6667 10.6667 -53 16 -85 16
c-29.3333 0 -49.1667 -4.66666 -59.5 -14c-10.3333 -9.33334 -15.5 -20.6667 -15.5 -34c0 -16 6 -27.3333 18 -34c12.6667 -6.66666 39.3333 -14 80 -22c49.3333 -8.66666 87 -23.3333 113 -44c26 -20.6667 41.6667 -41 47 -61s8 -36.6667 8 -50
c0 -40 -12.3333 -72.3333 -37 -97c-25.3333 -24 -53.5 -39 -84.5 -45s-55.8333 -9 -74.5 -9z" />
    <glyph glyph-name="t" unicode="t" horiz-adv-x="350" 
d="M208 -11c-42.6667 0 -74.3333 12 -95 36s-31 53 -31 87v270h-68v100h68v125h123v-125h111v-100h-111v-245c0 -15.3333 3.66667 -26 11 -32s16 -9 26 -9c24.6667 0 46 7 64 21l32 -89c-15.3333 -11.3333 -34.5 -20.6667 -57.5 -28s-47.1667 -11 -72.5 -11z" />
    <glyph glyph-name="u" unicode="u" horiz-adv-x="550" 
d="M232 -10c-56.6667 0 -99.6667 17 -129 51c-29.3333 34 -44 85.3333 -44 154v287h124v-274c0 -33.3333 6 -60.3333 18 -81c12 -20.6667 32.6667 -31 62 -31c24 0 44.3333 4.83334 61 14.5s30 18.8333 40 27.5v344h124v-482h-114l-4 38
c-22 -18.6667 -44.8333 -31.3333 -68.5 -38s-46.8333 -10 -69.5 -10z" />
    <glyph glyph-name="v" unicode="v" horiz-adv-x="506" 
d="M202 0l-202 482h132l126 -320l122 320h126l-196 -482h-108z" />
    <glyph glyph-name="w" unicode="w" horiz-adv-x="681" 
d="M158 0l-158 482h129l83 -305l78 305h100l79 -305l83 305h129l-158 -482h-100l-83 314l-81 -314h-101z" />
    <glyph glyph-name="x" unicode="x" horiz-adv-x="485" 
d="M3 0l172 238l-175 244h140l105 -149l106 149h127l-167 -235l174 -247h-139l-107 152l-105 -152h-131z" />
    <glyph glyph-name="y" unicode="y" horiz-adv-x="503" 
d="M37 -191l-11 111c36 0 68.1667 4.33334 96.5 13c28.3333 8.66667 50.1667 22.6667 65.5 42c2.66667 3.33333 5 7 7 11s4.33333 8 7 12l-198 484h133l134 -370c28.6667 76 48 133 58 171c25.3333 93.3333 42.6667 159.667 52 199h122
c-24.6667 -98 -50.8333 -186.667 -78.5 -266c-27.6667 -79.3333 -55.5 -147.333 -83.5 -204c-26.6667 -50.6667 -50.6667 -90 -72 -118c-21.3333 -26 -52.3333 -46.5 -93 -61.5s-87 -22.8333 -139 -23.5z" />
    <glyph glyph-name="z" unicode="z" horiz-adv-x="483" 
d="M34 0v89l262 293h-251v100h394v-94l-258 -289h266v-99h-413z" />
    <glyph glyph-name="braceleft" unicode="{" horiz-adv-x="279" 
d="M255 -62c-56.6667 0.666672 -98 13.1667 -124 37.5s-39 61.8333 -39 112.5v128c0 24.6667 -6.16666 43.3333 -18.5 56s-31.8333 21 -58.5 25v74c26.6667 4 46.1667 12.3333 58.5 25s18.5 31.3333 18.5 56v129c0 50.6667 13 88 39 112s67.3333 36.6667 124 38l9 -87
c-28 -1.33331 -45.6667 -8.83331 -53 -22.5s-11 -34.1667 -11 -61.5v-108c0 -60 -21.3333 -99.3333 -64 -118c22 -11.3333 38.1667 -26.1667 48.5 -44.5c10.3333 -18.3333 15.5 -42.8333 15.5 -73.5v-110c0 -11.3333 0.666672 -21.8333 2 -31.5s4.16666 -18.1667 8.5 -25.5
c4.33333 -7.33334 10.6667 -13.1667 19 -17.5c8.33333 -4.33333 19.8333 -6.83333 34.5 -7.5z" />
    <glyph glyph-name="bar" unicode="|" horiz-adv-x="248" 
d="M67 -74v812h113v-812h-113z" />
    <glyph glyph-name="braceright" unicode="}" horiz-adv-x="275" 
d="M20 -62l-10 86c26 0.666672 43.3333 7.5 52 20.5s13 33.5 13 61.5v110c0 30.6667 5.16666 55.1667 15.5 73.5c10.3333 18.3333 26.5 33.1667 48.5 44.5c-42.6667 18.6667 -64 58 -64 118v108c0.666656 30.6667 -4 51.5 -14 62.5s-27 18.1667 -51 21.5l10 87
c56.6667 -1.33331 98 -14 124 -38s39 -61.3333 39 -112v-129c0 -24.6667 6.16667 -43.3333 18.5 -56c12.3333 -12.6667 31.8333 -21 58.5 -25v-74c-26.6667 -4 -46.1667 -12.3333 -58.5 -25s-18.5 -31.3333 -18.5 -56v-128c0 -99.3333 -54.3333 -149.333 -163 -150z" />
    <glyph glyph-name="asciitilde" unicode="~" horiz-adv-x="428" 
d="M301 503c-33.3333 0 -63.3333 9 -90 27c-26.6667 18.6667 -47.6667 28 -63 28c-12 0 -22 -3.83331 -30 -11.5s-13.3333 -21.1667 -16 -40.5h-104c6 48 20.6667 84 44 108c23.3333 24 53.3333 36 90 36c20 0 37.1667 -2.83331 51.5 -8.5s27 -11.8334 38 -18.5l30 -18.5
c9 -5.66669 18.1667 -8.5 27.5 -8.5c10 0 19.5 3.33331 28.5 10s15.1667 22 18.5 46h103c-2 -39.3333 -10.3333 -70.6666 -25 -94c-14.6667 -23.3333 -31.5 -38.3333 -50.5 -45c-19 -6.66666 -36.5 -10 -52.5 -10z" />
    <glyph glyph-name="uni00A0" unicode="&#xa0;" horiz-adv-x="190" 
 />
    <glyph glyph-name="exclamdown" unicode="&#xa1;" horiz-adv-x="241" 
d="M122 492c22.6667 0 41.1667 -8.16666 55.5 -24.5s21.5 -35.1667 21.5 -56.5c0 -21.3333 -7.16667 -40.1667 -21.5 -56.5c-14.3333 -16.3333 -32.8333 -24.5 -55.5 -24.5c-23.3333 0 -42.1667 8.16666 -56.5 24.5c-14.3333 16.3333 -21.5 35.1667 -21.5 56.5
c0 21.3333 7.16666 40.1667 21.5 56.5c14.3333 16.3333 33.1667 24.5 56.5 24.5zM186 270v-456h-126v456h126z" />
    <glyph glyph-name="cent" unicode="&#xa2;" 
d="M238 -11v147c-41.3333 6 -75.5 23.5 -102.5 52.5s-43.1667 56.8333 -48.5 83.5c-5.33334 26.6667 -8 47.6667 -8 63c0 27.3333 4.16666 52.3333 12.5 75s20 42.5 35 59.5s32.1667 30.5 51.5 40.5s39.3333 16 60 18v139h80v-138
c31.3333 -5.33331 67.6667 -17.6667 109 -37l-36 -90c-23.3333 11.3333 -43.1667 19 -59.5 23c-16.3333 4 -32.1667 6 -47.5 6c-24 0 -43.3333 -7.33334 -58 -22s-23.3333 -29 -26 -43c-2.66667 -14 -4 -24.6667 -4 -32c0 -11.3333 1.83333 -23 5.5 -35s9.33334 -23 17 -33
c7.66667 -10 17 -18.1667 28 -24.5s23.5 -9.5 37.5 -9.5c30 0 64 10 102 30l40 -89c-21.3333 -12.6667 -40.6667 -21.8333 -58 -27.5c-17.3333 -5.66667 -34 -9.5 -50 -11.5v-145h-80z" />
    <glyph glyph-name="sterling" unicode="&#xa3;" 
d="M96 0v246h-67v109h67v104c0 50 11 92.6667 33 128c14.6667 24 33.5 43 56.5 57s44.3333 22.5 64 25.5c19.6667 3 34.8333 4.5 45.5 4.5c42 0 79.1667 -10.3333 111.5 -31s58.1667 -51.3334 77.5 -92l-98 -70c-14.6667 26.6667 -29.3333 45.8333 -44 57.5
c-14.6667 11.6667 -30.3333 17.5 -47 17.5c-20 0 -37.5 -7.5 -52.5 -22.5s-22.5 -41.8333 -22.5 -80.5v-98h189v-109h-189v-125h260v-121h-384z" />
    <glyph glyph-name="currency" unicode="&#xa4;" horiz-adv-x="588" 
d="M108 68l-96 96l66 66c-9.33334 17.3333 -16.6667 35.5 -22 54.5c-5.33334 19 -8 39.1667 -8 60.5s2.66666 41.5 8 60.5c5.33333 19 12.6667 37.1667 22 54.5l-66 66l96 96l68 -67c17.3333 8.66669 35.3333 15.3334 54 20c18.6667 4.66669 38.3333 7 59 7
c20 0 39.5 -2.5 58.5 -7.5s37.1667 -11.8333 54.5 -20.5l68 68l96 -96l-66 -66c9.33334 -17.3333 16.6667 -35.5 22 -54.5s8 -39.1667 8 -60.5c0 -20.6667 -2.66669 -40.6667 -8 -60s-12.6667 -37.6667 -22 -55l66 -66l-96 -96l-67 68
c-17.3333 -8.66666 -35.3333 -15.5 -54 -20.5s-38.6667 -7.5 -60 -7.5c-20.6667 0 -40.3333 2.5 -59 7.5s-36.6667 11.8333 -54 20.5zM289 226c20 -0.666672 37.6667 3.66666 53 13c15.3333 9.33333 28 20.5 38 33.5s17.1667 26.3333 21.5 40s5.5 24.5 3.5 32.5
c0.666656 27.3333 -7.16669 50.8333 -23.5 70.5c-16.3333 19.6667 -33.8333 32.8333 -52.5 39.5c-18.6667 6.66666 -32 9.66666 -40 9c-25.3333 0.666656 -49 -7.66669 -71 -25c-20 -16.6667 -32.8333 -33.5 -38.5 -50.5s-7.83334 -31.5 -6.5 -43.5
c0 -16.6667 3 -32.1667 9 -46.5s14.1667 -26.8333 24.5 -37.5c10.3333 -10.6667 22.6667 -19.1667 37 -25.5s29.5 -9.5 45.5 -9.5z" />
    <glyph glyph-name="yen" unicode="&#xa5;" horiz-adv-x="487" 
d="M185 0v237h-140v108h101l-163 317h135l131 -262l123 262h132l-160 -317h102v-108h-139v-237h-122z" />
    <glyph glyph-name="brokenbar" unicode="&#xa6;" horiz-adv-x="261" 
d="M70 -74v308h119v-308h-119zM70 429v309h119v-309h-119z" />
    <glyph glyph-name="section" unicode="&#xa7;" horiz-adv-x="467" 
d="M222 -144c-38 0 -71 6.16667 -99 18.5c-28 12.3333 -52.6667 27.1667 -74 44.5l54 96c17.3333 -14.6667 35.8333 -27.5 55.5 -38.5c19.6667 -11 39.1667 -16.5 58.5 -16.5s33 4.66667 41 14s12 19.6667 12 31c0 10.6667 -2.83334 20.3333 -8.5 29
c-5.66667 8.66666 -13.8333 17.1667 -24.5 25.5c-10.6667 8.33334 -22.5 16.5 -35.5 24.5s-25.8333 16.6667 -38.5 26c-32.6667 21.3333 -58.1667 44 -76.5 68c-18.3333 24 -27.5 55.6667 -27.5 95c0 36 8.5 65.3333 25.5 88s39.5 41.6667 67.5 57
c-20.6667 18.6667 -35.6667 37.6667 -45 57c-9.33334 19.3333 -14 42.3334 -14 69c0 44 14.6667 77.6667 44 101c29.3333 23.3333 68 35 116 35c32 0 61.3333 -5.33331 88 -16s52 -28 76 -52l-64 -85c-11.3333 12 -25.5 23.1667 -42.5 33.5s-34.8333 15.5 -53.5 15.5
c-12.6667 0 -23 -3.5 -31 -10.5s-12 -16.8333 -12 -29.5c0 -17.3333 7.83333 -33.1667 23.5 -47.5s34.1667 -29.1667 55.5 -44.5l68 -56c17.3333 -16 31 -34.6667 41 -56s15 -43 15 -65c0 -32 -7.16666 -59.1667 -21.5 -81.5s-34.1667 -41.8333 -59.5 -58.5
c17.3333 -15.3333 31.6667 -32.3333 43 -51c11.3333 -18.6667 17 -43 17 -73c0 -34 -11.6667 -63.6667 -35 -89c-22.6667 -24.6667 -48 -40.6667 -76 -48c-31.3333 -6.66667 -52.3333 -10 -63 -10zM262 186c12.6667 9.33333 21.5 19.8333 26.5 31.5s7.5 23.1667 7.5 34.5
c0 14 -5.33334 29 -16 45s-30 34.6667 -58 56c-16 -7.33334 -26.8333 -17.5 -32.5 -30.5s-8.5 -25.8333 -8.5 -38.5c0 -18 6.5 -34.3333 19.5 -49s33.5 -31 61.5 -49z" />
    <glyph glyph-name="dieresis" unicode="&#xa8;" horiz-adv-x="442" 
d="M114 560c-23.3333 0 -40.8333 6.83331 -52.5 20.5c-11.6667 13.6667 -17.5 28.8334 -17.5 45.5c0 16 5.83333 30.8333 17.5 44.5c11.6667 13.6667 29.1667 20.5 52.5 20.5c22.6667 0 39.6667 -6.83331 51 -20.5s17 -28.5 17 -44.5
c0 -16.6667 -5.66667 -31.8334 -17 -45.5c-11.3333 -13.6667 -28.3333 -20.5 -51 -20.5zM322 560c-23.3333 0 -40.8333 6.83331 -52.5 20.5s-17.5 28.8334 -17.5 45.5c0 16 5.83334 30.8333 17.5 44.5s29.1667 20.5 52.5 20.5c22.6667 0 39.6667 -6.83331 51 -20.5
s17 -28.5 17 -44.5c0 -16.6667 -5.66666 -31.8334 -17 -45.5c-11.3333 -13.6667 -28.3333 -20.5 -51 -20.5z" />
    <glyph glyph-name="copyright" unicode="&#xa9;" horiz-adv-x="775" 
d="M388 -77c-57.3333 0 -107.333 10.6667 -150 32c-42.6667 21.3333 -78.5 49.5 -107.5 84.5s-50.6667 74.8333 -65 119.5s-21.5 90.6667 -21.5 138c0 73.3333 16.6667 140.667 50 202c24 46 55.5 82.3333 94.5 109s76.6667 43.5 113 50.5s65.1667 10.5 86.5 10.5
c79.3333 0 146.667 -21.6667 202 -65c56 -44 93.3333 -94.3333 112 -151c19.3333 -59.3333 29 -111.333 29 -156c0 -74.6667 -16.5 -142.333 -49.5 -203c-33 -60.6667 -75.8333 -104.333 -128.5 -131c-52.6667 -26.6667 -107.667 -40 -165 -40zM388 3
c60 0 110.667 16.6667 152 50c40.6667 34 68.6667 73.6667 84 119c14.6667 43.3333 22 85 22 125c0 58.6667 -12.3333 111.333 -37 158c-16.6667 34 -40.6667 62.3333 -72 85c-31.3333 22.6667 -60.5 36.6667 -87.5 42s-47.5 8 -61.5 8
c-42.6667 0 -80.1667 -8.16669 -112.5 -24.5c-32.3333 -16.3333 -59.3333 -38.1666 -81 -65.5c-21.6667 -27.3333 -38 -58.6667 -49 -94c-11 -35.3333 -16.5 -71.6667 -16.5 -109c0 -38 5.5 -74.6667 16.5 -110s27.5 -66.6667 49.5 -94s49.1667 -49.1667 81.5 -65.5
c32.3333 -16.3333 69.5 -24.5 111.5 -24.5zM396 67c-46 0 -85.6667 11.6667 -119 35c-33.3333 24 -55.6667 53.1667 -67 87.5c-11.3333 34.3333 -17 69.5 -17 105.5c0 55.3333 11.3333 101.333 34 138c23.3333 38 50 62.6667 80 74c30.6667 12 59 18 85 18
c42 0 76.5 -8.66669 103.5 -26c27 -17.3333 48.8333 -44 65.5 -80l-84 -46c-10 20.6667 -21.1667 36.8333 -33.5 48.5c-12.3333 11.6667 -28.8333 17.5 -49.5 17.5c-22 0 -42 -8.66666 -60 -26c-17.3333 -17.3333 -28.1667 -36.8333 -32.5 -58.5
c-4.33334 -21.6667 -6.5 -41.5 -6.5 -59.5c0 -44 10.1667 -78.5 30.5 -103.5s44.8333 -37.5 73.5 -37.5c15.3333 0 29.6667 4 43 12c13.3333 8 27 24.6667 41 50l82 -49c-21.3333 -38 -45.6666 -64.1667 -73 -78.5c-27.3333 -14.3333 -59.3333 -21.5 -96 -21.5z" />
    <glyph glyph-name="ordfeminine" unicode="&#xaa;" horiz-adv-x="360" 
d="M143 295c-34 0 -62.1667 9.66666 -84.5 29s-33.5 46.3333 -33.5 81c0 35.3333 13.3333 62.3333 40 81c28 20 57 32.3333 87 37c30.6667 4.66669 55 7.66669 73 9v10c0 13.3333 -4.66667 24.3333 -14 33s-20.6667 13 -34 13c-14 0 -27.8333 -3 -41.5 -9
c-13.6667 -6 -28.1667 -14.6667 -43.5 -26l-39 63c23.3333 18 46.1667 30.5 68.5 37.5s43.5 10.5 63.5 10.5c42 0 75 -10.6667 99 -32s36 -56.3333 36 -105v-225h-86l-3 28c-27.3333 -23.3333 -56.6667 -35 -88 -35zM165 372c13.3333 0 25 2.33334 35 7
s18.6667 10.6667 26 18v65c-22.6667 -2 -42 -4.33334 -58 -7c-19.3333 -4 -32.6667 -10 -40 -18s-11 -17 -11 -27c0 -25.3333 16 -38 48 -38z" />
    <glyph glyph-name="guillemotleft" unicode="&#xab;" horiz-adv-x="546" 
d="M230 45l-216 205l197 212l82 -68l-136 -138l149 -135zM447 45l-216 205l197 212l81 -68l-136 -138l150 -135z" />
    <glyph glyph-name="logicalnot" unicode="&#xac;" 
d="M380 146v260h-360v109h468v-369h-108z" />
    <glyph glyph-name="uni00AD" unicode="&#xad;" horiz-adv-x="314" 
d="M36 201v119h241v-119h-241z" />
    <glyph glyph-name="registered" unicode="&#xae;" horiz-adv-x="776" 
d="M388 -77c-57.3333 0 -107.333 10.6667 -150 32c-42.6667 21.3333 -78.3333 49.5 -107 84.5s-50.1667 74.8333 -64.5 119.5s-21.5 90.6667 -21.5 138c0 73.3333 16.6667 140.667 50 202c24 47.3333 56.1667 84 96.5 110s78 42.5 113 49.5s63.1667 10.5 84.5 10.5
c78.6667 0 145.667 -21.6667 201 -65c56 -44 93.3333 -94.3333 112 -151c19.3333 -59.3333 29 -111.333 29 -156c0 -74.6667 -16.5 -142.333 -49.5 -203c-33 -60.6667 -75.8333 -104.333 -128.5 -131c-52.6667 -26.6667 -107.667 -40 -165 -40zM389 3
c60 0 110.333 16.3333 151 49c42 33.3333 70.3333 73 85 119c14.6667 44 22 86 22 126c0 58.6667 -12.3333 111.333 -37 158c-16.6667 34 -40.6667 62.3333 -72 85c-31.3333 22.6667 -60.5 36.6667 -87.5 42s-47.5 8 -61.5 8c-61.3333 0 -113.667 -17.6667 -157 -53
c-42 -34.6667 -69.6667 -74 -83 -118c-13.3333 -46 -20 -86.6667 -20 -122c0 -38 5.5 -74.6667 16.5 -110s27.5 -66.6667 49.5 -94s49.1667 -49.1667 81.5 -65.5c32.3333 -16.3333 69.8333 -24.5 112.5 -24.5zM245 102v406h152c54 0 94 -10.8333 120 -32.5
s39 -53.5 39 -95.5c0 -34 -7.66669 -60.5 -23 -79.5s-34.6667 -32.5 -58 -40.5l85 -158h-99l-77 147h-46v-147h-93zM338 334h52c25.3333 0 43.3333 3.33334 54 10s16 19.6667 16 39c0 16 -4.83334 26.6667 -14.5 32s-26.8333 8 -51.5 8h-56v-89z" />
    <glyph glyph-name="macron" unicode="&#xaf;" horiz-adv-x="442" 
d="M38 578v89h345v-89h-345z" />
    <glyph glyph-name="degree" unicode="&#xb0;" horiz-adv-x="396" 
d="M199 368c-30.6667 0 -59.3333 8 -86 24s-45.5 35 -56.5 57s-16.5 45 -16.5 69c0 26.6667 5.5 49.6667 16.5 69s24.8333 35 41.5 47s34.1667 20.5 52.5 25.5c18.3333 5 34.1667 7.5 47.5 7.5c28 0 55.6667 -7.66669 83 -23c26.6667 -14.6667 45.8333 -33.5 57.5 -56.5
c11.6667 -23 17.5 -46.5 17.5 -70.5c0 -27.3333 -5.66666 -50.6667 -17 -70c-11.3333 -19.3333 -25.3333 -35 -42 -47s-34 -20.3333 -52 -25s-33.3333 -7 -46 -7zM198 455c13.3333 0 25.6667 5.16666 37 15.5c11.3333 10.3333 17 25.8333 17 46.5
c0 21.3333 -5.66667 37.1666 -17 47.5c-11.3333 10.3333 -23.6667 15.5 -37 15.5c-13.3333 0 -25.6667 -5.16669 -37 -15.5c-11.3333 -10.3333 -17 -26.1666 -17 -47.5c0 -20.6667 5.66667 -36.1667 17 -46.5s23.6667 -15.5 37 -15.5z" />
    <glyph glyph-name="plusminus" unicode="&#xb1;" 
d="M23 0v110h468v-110h-468zM205 158v198h-182v110h182v201h104v-201h182v-110h-182v-198h-104z" />
    <glyph glyph-name="twosuperior" unicode="&#xb2;" horiz-adv-x="315" 
d="M44 337v64c0 28.6667 11.6667 51.6667 35 69l72 55c19.3333 15.3333 29 29 29 41c0 11.3333 -3.33333 19 -10 23s-14.6667 6 -24 6c-17.3333 0 -33 -4 -47 -12s-24.6667 -14.6667 -32 -20l-34 67c7.33333 7.33331 25.1667 16.5 53.5 27.5s53.5 16.5 75.5 16.5
c36 0 64.6667 -8.83331 86 -26.5c21.3333 -17.6667 32 -42.5 32 -74.5c0 -20.6667 -4.83334 -38 -14.5 -52c-9.66667 -14 -23.1667 -27.6667 -40.5 -41l-86 -64h142v-79h-237z" />
    <glyph glyph-name="threesuperior" unicode="&#xb3;" horiz-adv-x="315" 
d="M154 324c-24 0 -46.1667 3.66666 -66.5 11s-37.1667 16.6667 -50.5 28l31 69c11.3333 -9.33334 23.8333 -17.1667 37.5 -23.5c13.6667 -6.33334 28.1667 -9.5 43.5 -9.5c32.6667 0 49 13 49 39c0 13.3333 -4.16667 23.3333 -12.5 30s-23.1667 10 -44.5 10
c-10 0 -19.6667 -0.666656 -29 -2v53c6.66666 9.33331 14.6667 18.8333 24 28.5c9.33333 9.66669 20 19.5 32 29.5h-116v78h220v-77c-30.6667 -17.3333 -54.6667 -36 -72 -56c26 -3.33331 47.3333 -13 64 -29c16.6667 -16 25 -38 25 -66c0 -38 -12.8333 -66.3333 -38.5 -85
c-25.6667 -18.6667 -57.8333 -28 -96.5 -28z" />
    <glyph glyph-name="acute" unicode="&#xb4;" horiz-adv-x="442" 
d="M125 538l-33 54l191 141l59 -83z" />
    <glyph glyph-name="mu" unicode="&#xb5;" horiz-adv-x="582" 
d="M67 -189v671h124v-293c0 -28 6.66667 -51.3333 20 -70c13.3333 -18.6667 35 -28 65 -28c21.3333 0 40.1667 4.83334 56.5 14.5c16.3333 9.66666 28.1667 23.5 35.5 41.5c4.66666 10 7 34.3333 7 73v262h124v-349c0 -17.3333 2 -29.3333 6 -36s10.6667 -10 20 -10
c8.66669 0 19 2.33334 31 7l16 -91c-24 -9.33333 -48.3333 -14 -73 -14c-50.6667 0 -81.6667 21.6667 -93 65c-15.3333 -22 -34 -38.3333 -56 -49s-46 -16 -72 -16c-19.3333 0 -37.8333 3.5 -55.5 10.5c-17.6667 7 -31.1667 15.8333 -40.5 26.5v-215h-115z" />
    <glyph glyph-name="paragraph" unicode="&#xb6;" horiz-adv-x="504" 
d="M190 -145v397c-26 2.66667 -49.6667 10.1667 -71 22.5c-21.3333 12.3333 -39.8333 27.6667 -55.5 46c-15.6667 18.3333 -27.6667 39.3333 -36 63s-12.5 48.5 -12.5 74.5c0 39.3333 10.3333 76.3334 31 111c20.6667 36 46.6667 61.3333 78 76c31.3333 14.6667 62 22 92 22
h76v-812h-102zM337 -145v812h104v-812h-104z" />
    <glyph glyph-name="periodcentered" unicode="&#xb7;" horiz-adv-x="326" 
d="M163 297c-23.3333 0 -40.8333 7.5 -52.5 22.5c-11.6667 15 -17.5 31.5 -17.5 49.5c0 18.6667 5.83334 35.5 17.5 50.5s29.1667 22.5 52.5 22.5c23.3333 0 40.6667 -7.5 52 -22.5c11.3333 -15 17 -31.8333 17 -50.5c0 -18 -5.66667 -34.5 -17 -49.5
s-28.6667 -22.5 -52 -22.5z" />
    <glyph glyph-name="cedilla" unicode="&#xb8;" horiz-adv-x="442" 
d="M128 -181l59 137h110l-81 -137h-88z" />
    <glyph glyph-name="onesuperior" unicode="&#xb9;" horiz-adv-x="315" 
d="M154 337v218l-65 -36l-38 72l126 74h70v-328h-93z" />
    <glyph glyph-name="ordmasculine" unicode="&#xba;" horiz-adv-x="392" 
d="M196 295c-32 0 -58.8333 6.33334 -80.5 19c-21.6667 12.6667 -39.1667 28.6667 -52.5 48s-22.3333 39.8333 -27 61.5c-4.66667 21.6667 -7 40.5 -7 56.5c0 33.3333 7.66666 66.3333 23 99c16 30.6667 37 52.5 63 65.5s53 19.5 81 19.5c40.6667 0 75 -12.5 103 -37.5
s45.6667 -51.5 53 -79.5c8 -29.3333 12 -51.6667 12 -67c0 -34.6667 -8 -67.3333 -24 -98c-15.3333 -30.6667 -36.1667 -52.8333 -62.5 -66.5c-26.3333 -13.6667 -53.5 -20.5 -81.5 -20.5zM196 383c23.3333 0 40.5 9.5 51.5 28.5s16.5 41.8333 16.5 68.5
c0 28 -5.5 51.5 -16.5 70.5s-27.8333 28.5 -50.5 28.5c-23.3333 0 -40.6667 -9.5 -52 -28.5c-11.3333 -19 -17 -42.5 -17 -70.5c0 -26.6667 5.5 -49.5 16.5 -68.5s28.1667 -28.5 51.5 -28.5z" />
    <glyph glyph-name="guillemotright" unicode="&#xbb;" horiz-adv-x="545" 
d="M99 45l-76 76l149 135l-136 138l82 68l196 -212zM314 45l-75 76l150 135l-136 138l81 68l197 -212z" />
    <glyph glyph-name="onequarter" unicode="&#xbc;" horiz-adv-x="774" 
d="M106 337v218l-65 -36l-38 72l126 74h70v-328h-93zM594 0v71h-146v73l153 184h85v-187h39v-70h-39v-71h-92zM523 141h71v86zM101 -13l-64 71l622 610l67 -70z" />
    <glyph glyph-name="onehalf" unicode="&#xbd;" horiz-adv-x="774" 
d="M121 337v218l-65 -36l-38 72l126 74h70v-328h-93zM492 6v64c0 28.6667 11.6667 51.6667 35 69l72 55c19.3333 15.3333 29 29 29 41c0 11.3333 -3.33331 19 -10 23s-14.6667 6 -24 6c-17.3333 0 -33 -4 -47 -12s-24.6666 -14.6667 -32 -20l-34 67
c7.33331 7.33331 25.1667 16.5 53.5 27.5c28.3334 11 53.5 16.5 75.5 16.5c36 0 64.6667 -8.83331 86 -26.5c21.3334 -17.6667 32 -42.5 32 -74.5c0 -20.6667 -4.83337 -38 -14.5 -52c-9.66669 -14 -23.1667 -27.6667 -40.5 -41l-86 -64h142v-79h-237zM82 -13l-64 71
l622 610l67 -70z" />
    <glyph glyph-name="threequarters" unicode="&#xbe;" horiz-adv-x="774" 
d="M125 -13l-64 71l622 610l67 -70zM161 324c-24 0 -46.1667 3.66666 -66.5 11s-37.1667 16.6667 -50.5 28l31 69c11.3333 -9.33334 23.8333 -17.1667 37.5 -23.5c13.6667 -6.33334 28.1667 -9.5 43.5 -9.5c32.6667 0 49 13 49 39c0 13.3333 -4.16667 23.3333 -12.5 30
s-23.1667 10 -44.5 10c-10 0 -19.6667 -0.666656 -29 -2v53c6.66666 9.33331 14.6667 18.8333 24 28.5c9.33333 9.66669 20 19.5 32 29.5h-116v78h220v-77c-30.6667 -17.3333 -54.6667 -36 -72 -56c26 -3.33331 47.3333 -13 64 -29c16.6667 -16 25 -38 25 -66
c0 -38 -12.8333 -66.3333 -38.5 -85c-25.6667 -18.6667 -57.8333 -28 -96.5 -28zM586 0v71h-146v73l153 184h85v-187h39v-70h-39v-71h-92zM515 141h71v86z" />
    <glyph glyph-name="questiondown" unicode="&#xbf;" horiz-adv-x="422" 
d="M222 495c22.6667 0 41.1667 -8.16666 55.5 -24.5c14.3333 -16.3333 21.5 -35.1667 21.5 -56.5c0 -21.3333 -7.16666 -40.1667 -21.5 -56.5c-14.3333 -16.3333 -32.8333 -24.5 -55.5 -24.5c-23.3333 0 -42.1667 8.16666 -56.5 24.5
c-14.3333 16.3333 -21.5 35.1667 -21.5 56.5c0 21.3333 7.16667 40.1667 21.5 56.5c14.3333 16.3333 33.1667 24.5 56.5 24.5zM282 273v-42c0 -27.3333 -6.5 -51.6667 -19.5 -73c-13 -21.3333 -32.8333 -45.3333 -59.5 -72c-16 -16 -30.1667 -32.1667 -42.5 -48.5
c-12.3333 -16.3333 -18.5 -36.1667 -18.5 -59.5c0 -20.6667 6.66667 -37 20 -49s32.3333 -18 57 -18c18 0 37.3333 6.16666 58 18.5s42 32.5 64 60.5l76 -78c-18.6667 -25.3333 -41 -46 -67 -62c-28 -18 -53.8333 -30.3333 -77.5 -37c-23.6667 -6.66667 -45.5 -10 -65.5 -10
c-48 0 -87.3333 10.6667 -118 32c-22 17.3333 -38.3333 34.8333 -49 52.5c-10.6667 17.6667 -17.3333 34.5 -20 50.5s-4 28.3333 -4 37c0 32 7 60.6667 21 86s34 52 60 80c42.6667 44.6667 64 80.6667 64 108v24h121z" />
    <glyph glyph-name="Agrave" unicode="&#xc0;" horiz-adv-x="608" 
d="M0 0l240 667h127l241 -667h-131l-46 134h-255l-45 -134h-131zM215 247h178l-89 263zM382 704l-217 112l59 83l191 -141z" />
    <glyph glyph-name="Aacute" unicode="&#xc1;" horiz-adv-x="608" 
d="M0 0l240 667h127l241 -667h-131l-46 134h-255l-45 -134h-131zM215 247h178l-89 263zM228 704l-33 54l191 141l59 -83z" />
    <glyph glyph-name="Acircumflex" unicode="&#xc2;" horiz-adv-x="608" 
d="M0 0l240 667h127l241 -667h-131l-46 134h-255l-45 -134h-131zM215 247h178l-89 263zM209 710l-64 45l115 130h92l113 -129l-64 -45l-96 96z" />
    <glyph glyph-name="Atilde" unicode="&#xc3;" horiz-adv-x="608" 
d="M0 0l240 667h127l241 -667h-131l-46 134h-255l-45 -134h-131zM215 247h178l-89 263zM177 706l-68 38c12 34 28.5 61.3333 49.5 82s45.5 31 73.5 31c17.3333 0 41.6667 -9.66669 73 -29c26.6667 -18.6667 45.3334 -28 56 -28c6 0 14.6667 3.83331 26 11.5
s22.3333 24.8334 33 51.5l69 -37c-9.33334 -34 -25.3333 -61.5 -48 -82.5s-48.3333 -31.5 -77 -31.5c-18.6667 0 -43.3333 10 -74 30c-27.3333 18 -45.6667 27 -55 27c-7.33333 0 -16.1667 -3.83331 -26.5 -11.5s-20.8333 -24.8334 -31.5 -51.5z" />
    <glyph glyph-name="Adieresis" unicode="&#xc4;" horiz-adv-x="608" 
d="M0 0l240 667h127l241 -667h-131l-46 134h-255l-45 -134h-131zM215 247h178l-89 263zM201 726h-1.52588e-05c-23.3333 0 -40.8333 6.83331 -52.5 20.5c-11.6667 13.6667 -17.5 28.8334 -17.5 45.5c0 16 5.83333 30.8333 17.5 44.5c11.6667 13.6667 29.1667 20.5 52.5 20.5
c22.6667 0 39.6667 -6.83331 51 -20.5s17 -28.5 17 -44.5c0 -16.6667 -5.66669 -31.8334 -17 -45.5c-11.3333 -13.6667 -28.3333 -20.5 -51 -20.5zM409 726h-3.05176e-05c-23.3333 0 -40.8333 6.83331 -52.5 20.5s-17.5 28.8334 -17.5 45.5c0 16 5.83334 30.8333 17.5 44.5
s29.1667 20.5 52.5 20.5c22.6667 0 39.6667 -6.83331 51 -20.5s17 -28.5 17 -44.5c0 -16.6667 -5.66666 -31.8334 -17 -45.5c-11.3333 -13.6667 -28.3333 -20.5 -51 -20.5z" />
    <glyph glyph-name="Aring" unicode="&#xc5;" horiz-adv-x="608" 
d="M0 0l240 667h127l241 -667h-131l-46 134h-255l-45 -134h-131zM215 247h178l-89 263zM305 695c-30 0 -54.8333 10 -74.5 30c-19.6667 20 -29.5 46 -29.5 78c0 17.3333 3.16666 32.8333 9.5 46.5c6.33333 13.6667 14.6667 25.1667 25 34.5
c10.3333 9.33331 21.8333 16.3333 34.5 21s25.6667 7 39 7c29.3333 0 53.5 -10.3333 72.5 -31s28.5 -46.3334 28.5 -77c0 -14.6667 -2.5 -28.6667 -7.5 -42s-12.1667 -25 -21.5 -35s-20.5 -17.8333 -33.5 -23.5s-27.1667 -8.5 -42.5 -8.5zM305 758
c12.6667 0 22.5 4.33331 29.5 13s10.5 19.6667 10.5 33s-3.5 24.3333 -10.5 33s-16.8333 13 -29.5 13c-12 0 -21.5 -4.33331 -28.5 -13s-10.5 -19.6667 -10.5 -33s3.5 -24.3333 10.5 -33s16.5 -13 28.5 -13z" />
    <glyph glyph-name="AE" unicode="&#xc6;" horiz-adv-x="907" 
d="M0 0l386 667h472v-121h-290v-151h236v-120h-236v-154h312v-121h-440v176h-194l-102 -176h-144zM305 290h135v239z" />
    <glyph glyph-name="Ccedilla" unicode="&#xc7;" horiz-adv-x="571" 
d="M330 -14c-42 0 -80.5 7.33333 -115.5 22s-65.3333 36.5 -91 65.5c-25.6667 29 -45.5 65 -59.5 108s-21 92.8333 -21 149.5c0 60 8.16666 111.833 24.5 155.5c16.3333 43.6667 37.8333 80 64.5 109c26.6667 29 57.1667 50.5 91.5 64.5c34.3333 14 69.5 21 105.5 21
c45.3333 0 85 -8.33331 119 -25s58.6667 -34.3334 74 -53c15.3333 -18.6667 25 -32 29 -40l-94 -79c-3.33334 6 -8.16669 13.5 -14.5 22.5c-6.33334 9 -14.6667 17.6667 -25 26c-10.3333 8.33331 -22.6667 15.5 -37 21.5c-14.3333 6 -30.8333 9 -49.5 9
c-21.3333 0 -41.5 -4.5 -60.5 -13.5s-35.8333 -23 -50.5 -42s-26.1667 -43 -34.5 -72s-12.5 -63.8333 -12.5 -104.5c0 -72.6667 15.6667 -128.5 47 -167.5c31.3333 -39 73 -58.5 125 -58.5c38 0 70.6667 6.5 98 19.5s47 25.5 59 37.5l41 -111
c-15.3333 -18 -46.1667 -33.3333 -92.5 -46s-86.5 -19 -120.5 -19zM228 -181l59 137h110l-81 -137h-88z" />
    <glyph glyph-name="Egrave" unicode="&#xc8;" horiz-adv-x="557" 
d="M73 0v667h435v-121h-307v-152h254v-121h-254v-152h329v-121h-457zM371 704l-217 112l59 83l191 -141z" />
    <glyph glyph-name="Eacute" unicode="&#xc9;" horiz-adv-x="557" 
d="M73 0v667h435v-121h-307v-152h254v-121h-254v-152h329v-121h-457zM238 704l-33 54l191 141l59 -83z" />
    <glyph glyph-name="Ecircumflex" unicode="&#xca;" horiz-adv-x="557" 
d="M73 0v667h435v-121h-307v-152h254v-121h-254v-152h329v-121h-457zM196 710l-64 45l115 130h92l113 -129l-64 -45l-96 96z" />
    <glyph glyph-name="Edieresis" unicode="&#xcb;" horiz-adv-x="557" 
d="M73 0v667h435v-121h-307v-152h254v-121h-254v-152h329v-121h-457zM190 726c-23.3333 0 -40.8333 6.83331 -52.5 20.5c-11.6667 13.6667 -17.5 28.8334 -17.5 45.5c0 16 5.83333 30.8333 17.5 44.5c11.6667 13.6667 29.1667 20.5 52.5 20.5
c22.6667 0 39.6667 -6.83331 51 -20.5s17 -28.5 17 -44.5c0 -16.6667 -5.66667 -31.8334 -17 -45.5c-11.3333 -13.6667 -28.3333 -20.5 -51 -20.5zM398 726h-3.05176e-05c-23.3333 0 -40.8333 6.83331 -52.5 20.5s-17.5 28.8334 -17.5 45.5c0 16 5.83334 30.8333 17.5 44.5
s29.1667 20.5 52.5 20.5c22.6667 0 39.6667 -6.83331 51 -20.5s17 -28.5 17 -44.5c0 -16.6667 -5.66666 -31.8334 -17 -45.5c-11.3333 -13.6667 -28.3333 -20.5 -51 -20.5z" />
    <glyph glyph-name="Igrave" unicode="&#xcc;" horiz-adv-x="275" 
d="M73 0v667h128v-667h-128zM225 704l-217 112l59 83l191 -141z" />
    <glyph glyph-name="Iacute" unicode="&#xcd;" horiz-adv-x="275" 
d="M73 0v667h128v-667h-128zM72 704l-33 54l191 141l59 -83z" />
    <glyph glyph-name="Icircumflex" unicode="&#xce;" horiz-adv-x="275" 
d="M73 0v667h128v-667h-128zM47 710l-64 45l115 130h92l113 -129l-64 -45l-96 96z" />
    <glyph glyph-name="Idieresis" unicode="&#xcf;" horiz-adv-x="275" 
d="M73 0v667h128v-667h-128zM44 726c-23.3333 0 -40.8333 6.83331 -52.5 20.5c-11.6667 13.6667 -17.5 28.8334 -17.5 45.5c0 16 5.83333 30.8333 17.5 44.5c11.6667 13.6667 29.1667 20.5 52.5 20.5c22.6667 0 39.6667 -6.83331 51 -20.5s17 -28.5 17 -44.5
c0 -16.6667 -5.66667 -31.8334 -17 -45.5c-11.3333 -13.6667 -28.3333 -20.5 -51 -20.5zM252 726c-23.3333 0 -40.8333 6.83331 -52.5 20.5s-17.5 28.8334 -17.5 45.5c0 16 5.83334 30.8333 17.5 44.5s29.1667 20.5 52.5 20.5c22.6667 0 39.6667 -6.83331 51 -20.5
s17 -28.5 17 -44.5c0 -16.6667 -5.66666 -31.8334 -17 -45.5c-11.3333 -13.6667 -28.3333 -20.5 -51 -20.5z" />
    <glyph glyph-name="Eth" unicode="&#xd0;" horiz-adv-x="628" 
d="M73 0v291h-73v105h73v271h188c24 0 50.6667 -2 80 -6s57.3333 -12 84 -24c42 -20.6667 76 -51.3334 102 -92c26.6667 -40 43.3334 -79 50 -117c6.66669 -44.6667 10 -75 10 -91c0 -58 -11.5 -111.833 -34.5 -161.5s-46.6667 -84.5 -71 -104.5s-43.5 -32.3333 -57.5 -37
c-45.3333 -22.6667 -98 -34 -158 -34h-193zM201 120h52c46.6667 0 84.6667 8.33333 114 25c30.6667 16.6667 53.3333 42.1667 68 76.5c14.6667 34.3333 22 70.8333 22 109.5c0 38 -6.66666 73.8333 -20 107.5s-34 59.8333 -62 78.5c-14.6667 10 -32.8333 17.5 -54.5 22.5
c-21.6667 5 -43.1667 7.5 -64.5 7.5h-55v-151h147v-105h-147v-171z" />
    <glyph glyph-name="Ntilde" unicode="&#xd1;" horiz-adv-x="660" 
d="M73 0v667h131l257 -416v416h126v-667h-112l-275 441v-441h-127zM213 706l-68 38c12 34 28.5 61.3333 49.5 82s45.5 31 73.5 31c17.3333 0 41.6667 -9.66669 73 -29c26.6667 -18.6667 45.3333 -28 56 -28c6 0 14.6667 3.83331 26 11.5s22.3333 24.8334 33 51.5l69 -37
c-9.33331 -34 -25.3333 -61.5 -48 -82.5s-48.3333 -31.5 -77 -31.5c-18.6667 0 -43.3333 10 -74 30c-27.3333 18 -45.6667 27 -55 27c-7.33331 0 -16.1667 -3.83331 -26.5 -11.5s-20.8333 -24.8334 -31.5 -51.5z" />
    <glyph glyph-name="Ograve" unicode="&#xd2;" horiz-adv-x="672" 
d="M334 -14c-48.6667 0 -91.1667 10.1667 -127.5 30.5c-36.3333 20.3333 -66.6667 46.8333 -91 79.5c-24.3333 32.6667 -42.5 69.8333 -54.5 111.5c-12 41.6667 -18 83.8333 -18 126.5s6 84.8333 18 126.5c12 41.6667 30.1667 78.8333 54.5 111.5
c24.3333 32.6667 54.6667 59 91 79c36.3333 20 78.8333 30 127.5 30c68 0 125.667 -20 173 -60c47.3333 -40 79.3333 -87.3333 96 -142c17.3333 -57.3333 26 -105.667 26 -145c0 -42.6667 -6.16669 -84.8333 -18.5 -126.5s-30.6666 -78.8333 -55 -111.5
c-24.3333 -32.6667 -55 -59.1667 -92 -79.5c-37 -20.3333 -80.1667 -30.5 -129.5 -30.5zM334 105c26.6667 0 51.3333 7.16666 74 21.5c22.6667 14.3333 39.6667 31.3333 51 51s19.6667 38.8333 25 57.5c10 36.6667 15 69.6667 15 99c0 44 -8 85 -24 123
c-15.3333 38 -36 65.1667 -62 81.5s-52.3333 24.5 -79 24.5c-26 0 -49.1667 -6.33331 -69.5 -19c-20.3333 -12.6667 -37.3333 -29.6667 -51 -51c-13.6667 -21.3333 -24 -45.8333 -31 -73.5s-10.5 -56.1667 -10.5 -85.5s3.5 -57.8333 10.5 -85.5
c7 -27.6667 17.3333 -52.1667 31 -73.5s30.6667 -38.3333 51 -51c20.3333 -12.6667 43.5 -19 69.5 -19zM423 704l-217 112l59 83l191 -141z" />
    <glyph glyph-name="Oacute" unicode="&#xd3;" horiz-adv-x="672" 
d="M334 -14c-48.6667 0 -91.1667 10.1667 -127.5 30.5c-36.3333 20.3333 -66.6667 46.8333 -91 79.5c-24.3333 32.6667 -42.5 69.8333 -54.5 111.5c-12 41.6667 -18 83.8333 -18 126.5s6 84.8333 18 126.5c12 41.6667 30.1667 78.8333 54.5 111.5
c24.3333 32.6667 54.6667 59 91 79c36.3333 20 78.8333 30 127.5 30c68 0 125.667 -20 173 -60c47.3333 -40 79.3333 -87.3333 96 -142c17.3333 -57.3333 26 -105.667 26 -145c0 -42.6667 -6.16669 -84.8333 -18.5 -126.5s-30.6666 -78.8333 -55 -111.5
c-24.3333 -32.6667 -55 -59.1667 -92 -79.5c-37 -20.3333 -80.1667 -30.5 -129.5 -30.5zM334 105c26.6667 0 51.3333 7.16666 74 21.5c22.6667 14.3333 39.6667 31.3333 51 51s19.6667 38.8333 25 57.5c10 36.6667 15 69.6667 15 99c0 44 -8 85 -24 123
c-15.3333 38 -36 65.1667 -62 81.5s-52.3333 24.5 -79 24.5c-26 0 -49.1667 -6.33331 -69.5 -19c-20.3333 -12.6667 -37.3333 -29.6667 -51 -51c-13.6667 -21.3333 -24 -45.8333 -31 -73.5s-10.5 -56.1667 -10.5 -85.5s3.5 -57.8333 10.5 -85.5
c7 -27.6667 17.3333 -52.1667 31 -73.5s30.6667 -38.3333 51 -51c20.3333 -12.6667 43.5 -19 69.5 -19zM279 704l-33 54l191 141l59 -83z" />
    <glyph glyph-name="Ocircumflex" unicode="&#xd4;" horiz-adv-x="672" 
d="M334 -14c-48.6667 0 -91.1667 10.1667 -127.5 30.5c-36.3333 20.3333 -66.6667 46.8333 -91 79.5c-24.3333 32.6667 -42.5 69.8333 -54.5 111.5c-12 41.6667 -18 83.8333 -18 126.5s6 84.8333 18 126.5c12 41.6667 30.1667 78.8333 54.5 111.5
c24.3333 32.6667 54.6667 59 91 79c36.3333 20 78.8333 30 127.5 30c68 0 125.667 -20 173 -60c47.3333 -40 79.3333 -87.3333 96 -142c17.3333 -57.3333 26 -105.667 26 -145c0 -42.6667 -6.16669 -84.8333 -18.5 -126.5s-30.6666 -78.8333 -55 -111.5
c-24.3333 -32.6667 -55 -59.1667 -92 -79.5c-37 -20.3333 -80.1667 -30.5 -129.5 -30.5zM334 105c26.6667 0 51.3333 7.16666 74 21.5c22.6667 14.3333 39.6667 31.3333 51 51s19.6667 38.8333 25 57.5c10 36.6667 15 69.6667 15 99c0 44 -8 85 -24 123
c-15.3333 38 -36 65.1667 -62 81.5s-52.3333 24.5 -79 24.5c-26 0 -49.1667 -6.33331 -69.5 -19c-20.3333 -12.6667 -37.3333 -29.6667 -51 -51c-13.6667 -21.3333 -24 -45.8333 -31 -73.5s-10.5 -56.1667 -10.5 -85.5s3.5 -57.8333 10.5 -85.5
c7 -27.6667 17.3333 -52.1667 31 -73.5s30.6667 -38.3333 51 -51c20.3333 -12.6667 43.5 -19 69.5 -19zM243 710l-64 45l115 130h92l113 -129l-64 -45l-96 96z" />
    <glyph glyph-name="Otilde" unicode="&#xd5;" horiz-adv-x="672" 
d="M334 -14c-48.6667 0 -91.1667 10.1667 -127.5 30.5c-36.3333 20.3333 -66.6667 46.8333 -91 79.5c-24.3333 32.6667 -42.5 69.8333 -54.5 111.5c-12 41.6667 -18 83.8333 -18 126.5s6 84.8333 18 126.5c12 41.6667 30.1667 78.8333 54.5 111.5
c24.3333 32.6667 54.6667 59 91 79c36.3333 20 78.8333 30 127.5 30c68 0 125.667 -20 173 -60c47.3333 -40 79.3333 -87.3333 96 -142c17.3333 -57.3333 26 -105.667 26 -145c0 -42.6667 -6.16669 -84.8333 -18.5 -126.5s-30.6666 -78.8333 -55 -111.5
c-24.3333 -32.6667 -55 -59.1667 -92 -79.5c-37 -20.3333 -80.1667 -30.5 -129.5 -30.5zM334 105c26.6667 0 51.3333 7.16666 74 21.5c22.6667 14.3333 39.6667 31.3333 51 51s19.6667 38.8333 25 57.5c10 36.6667 15 69.6667 15 99c0 44 -8 85 -24 123
c-15.3333 38 -36 65.1667 -62 81.5s-52.3333 24.5 -79 24.5c-26 0 -49.1667 -6.33331 -69.5 -19c-20.3333 -12.6667 -37.3333 -29.6667 -51 -51c-13.6667 -21.3333 -24 -45.8333 -31 -73.5s-10.5 -56.1667 -10.5 -85.5s3.5 -57.8333 10.5 -85.5
c7 -27.6667 17.3333 -52.1667 31 -73.5s30.6667 -38.3333 51 -51c20.3333 -12.6667 43.5 -19 69.5 -19zM214 706l-68 38c12 34 28.5 61.3333 49.5 82s45.5 31 73.5 31c17.3333 0 41.6667 -9.66669 73 -29c26.6667 -18.6667 45.3333 -28 56 -28c6 0 14.6667 3.83331 26 11.5
s22.3333 24.8334 33 51.5l69 -37c-9.33331 -34 -25.3333 -61.5 -48 -82.5s-48.3333 -31.5 -77 -31.5c-18.6667 0 -43.3333 10 -74 30c-27.3333 18 -45.6667 27 -55 27c-7.33331 0 -16.1667 -3.83331 -26.5 -11.5s-20.8333 -24.8334 -31.5 -51.5z" />
    <glyph glyph-name="Odieresis" unicode="&#xd6;" horiz-adv-x="672" 
d="M334 -14c-48.6667 0 -91.1667 10.1667 -127.5 30.5c-36.3333 20.3333 -66.6667 46.8333 -91 79.5c-24.3333 32.6667 -42.5 69.8333 -54.5 111.5c-12 41.6667 -18 83.8333 -18 126.5s6 84.8333 18 126.5c12 41.6667 30.1667 78.8333 54.5 111.5
c24.3333 32.6667 54.6667 59 91 79c36.3333 20 78.8333 30 127.5 30c68 0 125.667 -20 173 -60c47.3333 -40 79.3333 -87.3333 96 -142c17.3333 -57.3333 26 -105.667 26 -145c0 -42.6667 -6.16669 -84.8333 -18.5 -126.5s-30.6666 -78.8333 -55 -111.5
c-24.3333 -32.6667 -55 -59.1667 -92 -79.5c-37 -20.3333 -80.1667 -30.5 -129.5 -30.5zM334 105c26.6667 0 51.3333 7.16666 74 21.5c22.6667 14.3333 39.6667 31.3333 51 51s19.6667 38.8333 25 57.5c10 36.6667 15 69.6667 15 99c0 44 -8 85 -24 123
c-15.3333 38 -36 65.1667 -62 81.5s-52.3333 24.5 -79 24.5c-26 0 -49.1667 -6.33331 -69.5 -19c-20.3333 -12.6667 -37.3333 -29.6667 -51 -51c-13.6667 -21.3333 -24 -45.8333 -31 -73.5s-10.5 -56.1667 -10.5 -85.5s3.5 -57.8333 10.5 -85.5
c7 -27.6667 17.3333 -52.1667 31 -73.5s30.6667 -38.3333 51 -51c20.3333 -12.6667 43.5 -19 69.5 -19zM239 726h1.52588e-05c-23.3333 0 -40.8333 6.83331 -52.5 20.5c-11.6667 13.6667 -17.5 28.8334 -17.5 45.5c0 16 5.83333 30.8333 17.5 44.5
c11.6667 13.6667 29.1667 20.5 52.5 20.5c22.6667 0 39.6667 -6.83331 51 -20.5s17 -28.5 17 -44.5c0 -16.6667 -5.66669 -31.8334 -17 -45.5c-11.3333 -13.6667 -28.3333 -20.5 -51 -20.5zM447 726h-3.05176e-05c-23.3333 0 -40.8333 6.83331 -52.5 20.5
s-17.5 28.8334 -17.5 45.5c0 16 5.83334 30.8333 17.5 44.5s29.1667 20.5 52.5 20.5c22.6667 0 39.6667 -6.83331 51 -20.5s17 -28.5 17 -44.5c0 -16.6667 -5.66666 -31.8334 -17 -45.5c-11.3333 -13.6667 -28.3333 -20.5 -51 -20.5z" />
    <glyph glyph-name="multiply" unicode="&#xd7;" horiz-adv-x="515" 
d="M136 125l-73 77l120 128l-120 128l73 77l121 -127l122 127l73 -77l-120 -128l120 -128l-73 -77l-122 127z" />
    <glyph glyph-name="Oslash" unicode="&#xd8;" horiz-adv-x="673" 
d="M112 -29l-81 73l67 80c-18 30.6667 -31.5 63.8333 -40.5 99.5s-13.5 72.5 -13.5 110.5c0 42.6667 6 84.6667 18 126s30.1667 78.3334 54.5 111c24.3333 32.6667 54.6667 59 91 79c36.3333 20 78.8333 30 127.5 30c36 0 68.1667 -5.16669 96.5 -15.5
s53.8333 -24.5 76.5 -42.5l60 73l82 -72l-72 -87c17.3333 -30 30.3333 -62.6667 39 -98s13 -70 13 -104c0 -68 -14.3333 -130.333 -43 -187c-20 -42.6667 -47.6667 -77.5 -83 -104.5c-35.3333 -27 -68.1667 -43 -98.5 -48c-30.3333 -5 -53.8333 -7.5 -70.5 -7.5
c-63.3333 0 -118.333 18.3333 -165 55zM335 105c26.6667 0 51.3333 7 74 21c22.6667 14 39.8333 31.1667 51.5 51.5c11.6667 20.3333 19.8333 39.5 24.5 57.5c10 36.6667 15 69.6667 15 99c0 31.3333 -4.33334 63.3333 -13 96l-242 -294
c11.3333 -8 25.3333 -15.1667 42 -21.5s32.6667 -9.5 48 -9.5zM188 234l241 293c-25.3333 24 -56.6667 36 -94 36c-26 0 -49.1667 -6.33331 -69.5 -19c-20.3333 -12.6667 -37.3333 -29.6667 -51 -51c-13.6667 -21.3333 -24 -45.8333 -31 -73.5s-10.5 -56.1667 -10.5 -85.5
c0 -36 5 -69.3333 15 -100z" />
    <glyph glyph-name="Ugrave" unicode="&#xd9;" horiz-adv-x="653" 
d="M326 -14c-56.6667 0 -105.333 12.3333 -146 37c-41.3333 25.3333 -70.1667 56.5 -86.5 93.5s-24.5 74.5 -24.5 112.5v438h128v-425c0 -40 11.1667 -72.8333 33.5 -98.5c22.3333 -25.6667 54.5 -38.5 96.5 -38.5s73.8333 12.8333 95.5 38.5
c21.6667 25.6667 32.5 58.5 32.5 98.5v425h128v-438c0 -38 -6.66669 -72 -20 -102s-31.6666 -55.5 -55 -76.5c-23.3333 -21 -50.5 -37 -81.5 -48s-64.5 -16.5 -100.5 -16.5zM404 704l-217 112l59 83l191 -141z" />
    <glyph glyph-name="Uacute" unicode="&#xda;" horiz-adv-x="653" 
d="M326 -14c-56.6667 0 -105.333 12.3333 -146 37c-41.3333 25.3333 -70.1667 56.5 -86.5 93.5s-24.5 74.5 -24.5 112.5v438h128v-425c0 -40 11.1667 -72.8333 33.5 -98.5c22.3333 -25.6667 54.5 -38.5 96.5 -38.5s73.8333 12.8333 95.5 38.5
c21.6667 25.6667 32.5 58.5 32.5 98.5v425h128v-438c0 -38 -6.66669 -72 -20 -102s-31.6666 -55.5 -55 -76.5c-23.3333 -21 -50.5 -37 -81.5 -48s-64.5 -16.5 -100.5 -16.5zM289 704l-33 54l191 141l59 -83z" />
    <glyph glyph-name="Ucircumflex" unicode="&#xdb;" horiz-adv-x="653" 
d="M326 -14c-56.6667 0 -105.333 12.3333 -146 37c-41.3333 25.3333 -70.1667 56.5 -86.5 93.5s-24.5 74.5 -24.5 112.5v438h128v-425c0 -40 11.1667 -72.8333 33.5 -98.5c22.3333 -25.6667 54.5 -38.5 96.5 -38.5s73.8333 12.8333 95.5 38.5
c21.6667 25.6667 32.5 58.5 32.5 98.5v425h128v-438c0 -38 -6.66669 -72 -20 -102s-31.6666 -55.5 -55 -76.5c-23.3333 -21 -50.5 -37 -81.5 -48s-64.5 -16.5 -100.5 -16.5zM234 710l-64 45l115 130h92l113 -129l-64 -45l-96 96z" />
    <glyph glyph-name="Udieresis" unicode="&#xdc;" horiz-adv-x="653" 
d="M326 -14c-56.6667 0 -105.333 12.3333 -146 37c-41.3333 25.3333 -70.1667 56.5 -86.5 93.5s-24.5 74.5 -24.5 112.5v438h128v-425c0 -40 11.1667 -72.8333 33.5 -98.5c22.3333 -25.6667 54.5 -38.5 96.5 -38.5s73.8333 12.8333 95.5 38.5
c21.6667 25.6667 32.5 58.5 32.5 98.5v425h128v-438c0 -38 -6.66669 -72 -20 -102s-31.6666 -55.5 -55 -76.5c-23.3333 -21 -50.5 -37 -81.5 -48s-64.5 -16.5 -100.5 -16.5zM232 726h1.52588e-05c-23.3333 0 -40.8333 6.83331 -52.5 20.5
c-11.6667 13.6667 -17.5 28.8334 -17.5 45.5c0 16 5.83333 30.8333 17.5 44.5c11.6667 13.6667 29.1667 20.5 52.5 20.5c22.6667 0 39.6667 -6.83331 51 -20.5s17 -28.5 17 -44.5c0 -16.6667 -5.66669 -31.8334 -17 -45.5c-11.3333 -13.6667 -28.3333 -20.5 -51 -20.5z
M440 726h-3.05176e-05c-23.3333 0 -40.8333 6.83331 -52.5 20.5s-17.5 28.8334 -17.5 45.5c0 16 5.83334 30.8333 17.5 44.5s29.1667 20.5 52.5 20.5c22.6667 0 39.6667 -6.83331 51 -20.5s17 -28.5 17 -44.5c0 -16.6667 -5.66666 -31.8334 -17 -45.5
c-11.3333 -13.6667 -28.3333 -20.5 -51 -20.5z" />
    <glyph glyph-name="Yacute" unicode="&#xdd;" horiz-adv-x="552" 
d="M214 0v268l-214 399h143l137 -265l131 265h141l-210 -399v-268h-128zM235 704l-33 54l191 141l59 -83z" />
    <glyph glyph-name="Thorn" unicode="&#xde;" horiz-adv-x="551" 
d="M73 0v667h128v-103h73c32 0 61.5 -2.16669 88.5 -6.5s53.1667 -12.8333 78.5 -25.5c32 -16 55.6667 -39.6667 71 -71c15.3333 -31.3333 23 -65 23 -101c0 -38 -7.33331 -72 -22 -102c-14 -30 -29.1667 -52 -45.5 -66s-31.1667 -24 -44.5 -30
c-22 -9.33333 -44.5 -15.8333 -67.5 -19.5s-46.1667 -5.5 -69.5 -5.5h-85v-137h-128zM201 252h69c18 0 34.3333 1 49 3s27.3333 5.66666 38 11c18 8.66666 31.1667 20.6667 39.5 36s12.5 31.6667 12.5 49c0 18.6667 -4.66666 36 -14 52s-23 27.3333 -41 34
c-23.3333 8 -50.3333 12 -81 12h-72v-197z" />
    <glyph glyph-name="germandbls" unicode="&#xdf;" horiz-adv-x="598" 
d="M410 -11c-32 0 -62 5.16667 -90 15.5s-50.6667 23.1667 -68 38.5l48 96c12.6667 -10.6667 28.3333 -20.6667 47 -30c18.6667 -9.33334 37 -14 55 -14c32.6667 0 49 14 49 42c0 16.6667 -5.5 30.5 -16.5 41.5s-29.1667 22.8333 -54.5 35.5
c-40.6667 20 -68.6667 40.1667 -84 60.5c-15.3333 20.3333 -23 48.8333 -23 85.5c0 20 3.5 38.3333 10.5 55s16.5 31.1667 28.5 43.5s25.8333 22 41.5 29s31.5 10.8333 47.5 11.5c-2 22.6667 -10 39.1667 -24 49.5s-28.3333 17.1666 -43 20.5c-14.6667 3.33331 -24 5 -28 5
c-34 0 -59.3333 -11.1667 -76 -33.5s-25 -49.5 -25 -81.5v-459h-124v382h-66v100h67c1.33334 47.3333 14 86.6666 38 118c26 32 55.1667 53.3333 87.5 64s63.1667 16 92.5 16c35.3333 0 67 -5.16669 95 -15.5s51.6667 -24.6666 71 -43
c19.3333 -18.3333 33.8333 -39.5 43.5 -63.5c9.66669 -24 14.5 -48.3333 14.5 -73v-86h-85c-14 0 -25.1667 -3.16666 -33.5 -9.5s-12.5 -15.1667 -12.5 -26.5c0 -19.3333 21.3333 -40.3333 64 -63c27.3333 -16 50 -31 68 -45c12.6667 -10.6667 23.5 -25.8333 32.5 -45.5
c9 -19.6667 13.5 -41.1667 13.5 -64.5c0 -37.3333 -10.6667 -69.3333 -32 -96c-21.3333 -25.3333 -44.8333 -41.6667 -70.5 -49c-25.6667 -7.33333 -45.1667 -11 -58.5 -11z" />
    <glyph glyph-name="agrave" unicode="&#xe0;" horiz-adv-x="488" 
d="M191 -11c-20.6667 0 -40.5 3.5 -59.5 10.5s-35.8333 17 -50.5 30s-26.5 29 -35.5 48s-13.5 40.5 -13.5 64.5c0 26 5.5 48.5 16.5 67.5s25.3333 35 43 48s36.6667 23 57 30c20.3333 7 38.8333 11.5 55.5 13.5c9.33333 1.33334 42.6667 5.33334 100 12v7
c0 26.6667 -6.83334 45.6667 -20.5 57s-32.5 17 -56.5 17c-24 0 -47 -5.16666 -69 -15.5s-38.6667 -20.5 -50 -30.5l-41 87c14 14 40 27.3333 78 40c40 12.6667 74.3333 19 103 19c30.6667 0 57.5 -4.66666 80.5 -14s42 -22.5 57 -39.5s26 -36.8333 33 -59.5
s10.5 -46.3333 10.5 -71v-310h-114l-5 36c-13.3333 -14.6667 -30.3333 -26.1667 -51 -34.5c-20.6667 -8.33333 -43.3333 -12.5 -68 -12.5zM220 92c16 0 31.5 3.33334 46.5 10s27.8333 15 38.5 25v98c-40.6667 -4.66667 -67.6667 -8 -81 -10
c-26.6667 -5.33333 -45.1667 -14.5 -55.5 -27.5s-15.5 -27.1667 -15.5 -42.5c0 -16 5.83333 -28.8333 17.5 -38.5s28.1667 -14.5 49.5 -14.5zM325 538l-217 112l59 83l191 -141z" />
    <glyph glyph-name="aacute" unicode="&#xe1;" horiz-adv-x="488" 
d="M191 -11c-20.6667 0 -40.5 3.5 -59.5 10.5s-35.8333 17 -50.5 30s-26.5 29 -35.5 48s-13.5 40.5 -13.5 64.5c0 26 5.5 48.5 16.5 67.5s25.3333 35 43 48s36.6667 23 57 30c20.3333 7 38.8333 11.5 55.5 13.5c9.33333 1.33334 42.6667 5.33334 100 12v7
c0 26.6667 -6.83334 45.6667 -20.5 57s-32.5 17 -56.5 17c-24 0 -47 -5.16666 -69 -15.5s-38.6667 -20.5 -50 -30.5l-41 87c14 14 40 27.3333 78 40c40 12.6667 74.3333 19 103 19c30.6667 0 57.5 -4.66666 80.5 -14s42 -22.5 57 -39.5s26 -36.8333 33 -59.5
s10.5 -46.3333 10.5 -71v-310h-114l-5 36c-13.3333 -14.6667 -30.3333 -26.1667 -51 -34.5c-20.6667 -8.33333 -43.3333 -12.5 -68 -12.5zM220 92c16 0 31.5 3.33334 46.5 10s27.8333 15 38.5 25v98c-40.6667 -4.66667 -67.6667 -8 -81 -10
c-26.6667 -5.33333 -45.1667 -14.5 -55.5 -27.5s-15.5 -27.1667 -15.5 -42.5c0 -16 5.83333 -28.8333 17.5 -38.5s28.1667 -14.5 49.5 -14.5zM175 538l-33 54l191 141l59 -83z" />
    <glyph glyph-name="acircumflex" unicode="&#xe2;" horiz-adv-x="488" 
d="M191 -11c-20.6667 0 -40.5 3.5 -59.5 10.5s-35.8333 17 -50.5 30s-26.5 29 -35.5 48s-13.5 40.5 -13.5 64.5c0 26 5.5 48.5 16.5 67.5s25.3333 35 43 48s36.6667 23 57 30c20.3333 7 38.8333 11.5 55.5 13.5c9.33333 1.33334 42.6667 5.33334 100 12v7
c0 26.6667 -6.83334 45.6667 -20.5 57s-32.5 17 -56.5 17c-24 0 -47 -5.16666 -69 -15.5s-38.6667 -20.5 -50 -30.5l-41 87c14 14 40 27.3333 78 40c40 12.6667 74.3333 19 103 19c30.6667 0 57.5 -4.66666 80.5 -14s42 -22.5 57 -39.5s26 -36.8333 33 -59.5
s10.5 -46.3333 10.5 -71v-310h-114l-5 36c-13.3333 -14.6667 -30.3333 -26.1667 -51 -34.5c-20.6667 -8.33333 -43.3333 -12.5 -68 -12.5zM220 92c16 0 31.5 3.33334 46.5 10s27.8333 15 38.5 25v98c-40.6667 -4.66667 -67.6667 -8 -81 -10
c-26.6667 -5.33333 -45.1667 -14.5 -55.5 -27.5s-15.5 -27.1667 -15.5 -42.5c0 -16 5.83333 -28.8333 17.5 -38.5s28.1667 -14.5 49.5 -14.5zM150 544l-64 45l115 130h92l113 -129l-64 -45l-96 96z" />
    <glyph glyph-name="atilde" unicode="&#xe3;" horiz-adv-x="488" 
d="M191 -11c-20.6667 0 -40.5 3.5 -59.5 10.5s-35.8333 17 -50.5 30s-26.5 29 -35.5 48s-13.5 40.5 -13.5 64.5c0 26 5.5 48.5 16.5 67.5s25.3333 35 43 48s36.6667 23 57 30c20.3333 7 38.8333 11.5 55.5 13.5c9.33333 1.33334 42.6667 5.33334 100 12v7
c0 26.6667 -6.83334 45.6667 -20.5 57s-32.5 17 -56.5 17c-24 0 -47 -5.16666 -69 -15.5s-38.6667 -20.5 -50 -30.5l-41 87c14 14 40 27.3333 78 40c40 12.6667 74.3333 19 103 19c30.6667 0 57.5 -4.66666 80.5 -14s42 -22.5 57 -39.5s26 -36.8333 33 -59.5
s10.5 -46.3333 10.5 -71v-310h-114l-5 36c-13.3333 -14.6667 -30.3333 -26.1667 -51 -34.5c-20.6667 -8.33333 -43.3333 -12.5 -68 -12.5zM220 92c16 0 31.5 3.33334 46.5 10s27.8333 15 38.5 25v98c-40.6667 -4.66667 -67.6667 -8 -81 -10
c-26.6667 -5.33333 -45.1667 -14.5 -55.5 -27.5s-15.5 -27.1667 -15.5 -42.5c0 -16 5.83333 -28.8333 17.5 -38.5s28.1667 -14.5 49.5 -14.5zM119 540h1.52588e-05l-68 38c12 34 28.5 61.3333 49.5 82s45.5 31 73.5 31c17.3333 0 41.6667 -9.66669 73 -29
c26.6667 -18.6667 45.3334 -28 56 -28c6 0 14.6667 3.83331 26 11.5s22.3333 24.8334 33 51.5l69 -37c-9.33334 -34 -25.3333 -61.5 -48 -82.5s-48.3333 -31.5 -77 -31.5c-18.6667 0 -43.3333 10 -74 30c-27.3333 18 -45.6667 27 -55 27
c-7.33333 0 -16.1667 -3.83331 -26.5 -11.5s-20.8333 -24.8334 -31.5 -51.5z" />
    <glyph glyph-name="adieresis" unicode="&#xe4;" horiz-adv-x="488" 
d="M191 -11c-20.6667 0 -40.5 3.5 -59.5 10.5s-35.8333 17 -50.5 30s-26.5 29 -35.5 48s-13.5 40.5 -13.5 64.5c0 26 5.5 48.5 16.5 67.5s25.3333 35 43 48s36.6667 23 57 30c20.3333 7 38.8333 11.5 55.5 13.5c9.33333 1.33334 42.6667 5.33334 100 12v7
c0 26.6667 -6.83334 45.6667 -20.5 57s-32.5 17 -56.5 17c-24 0 -47 -5.16666 -69 -15.5s-38.6667 -20.5 -50 -30.5l-41 87c14 14 40 27.3333 78 40c40 12.6667 74.3333 19 103 19c30.6667 0 57.5 -4.66666 80.5 -14s42 -22.5 57 -39.5s26 -36.8333 33 -59.5
s10.5 -46.3333 10.5 -71v-310h-114l-5 36c-13.3333 -14.6667 -30.3333 -26.1667 -51 -34.5c-20.6667 -8.33333 -43.3333 -12.5 -68 -12.5zM220 92c16 0 31.5 3.33334 46.5 10s27.8333 15 38.5 25v98c-40.6667 -4.66667 -67.6667 -8 -81 -10
c-26.6667 -5.33333 -45.1667 -14.5 -55.5 -27.5s-15.5 -27.1667 -15.5 -42.5c0 -16 5.83333 -28.8333 17.5 -38.5s28.1667 -14.5 49.5 -14.5zM148 560c-23.3333 0 -40.8333 6.83331 -52.5 20.5c-11.6667 13.6667 -17.5 28.8334 -17.5 45.5c0 16 5.83333 30.8333 17.5 44.5
c11.6667 13.6667 29.1667 20.5 52.5 20.5c22.6667 0 39.6667 -6.83331 51 -20.5s17 -28.5 17 -44.5c0 -16.6667 -5.66667 -31.8334 -17 -45.5c-11.3333 -13.6667 -28.3333 -20.5 -51 -20.5zM356 560h-3.05176e-05c-23.3333 0 -40.8333 6.83331 -52.5 20.5
s-17.5 28.8334 -17.5 45.5c0 16 5.83334 30.8333 17.5 44.5s29.1667 20.5 52.5 20.5c22.6667 0 39.6667 -6.83331 51 -20.5s17 -28.5 17 -44.5c0 -16.6667 -5.66666 -31.8334 -17 -45.5c-11.3333 -13.6667 -28.3333 -20.5 -51 -20.5z" />
    <glyph glyph-name="aring" unicode="&#xe5;" horiz-adv-x="488" 
d="M191 -11c-20.6667 0 -40.5 3.5 -59.5 10.5s-35.8333 17 -50.5 30s-26.5 29 -35.5 48s-13.5 40.5 -13.5 64.5c0 26 5.5 48.5 16.5 67.5s25.3333 35 43 48s36.6667 23 57 30c20.3333 7 38.8333 11.5 55.5 13.5c9.33333 1.33334 42.6667 5.33334 100 12v7
c0 26.6667 -6.83334 45.6667 -20.5 57s-32.5 17 -56.5 17c-24 0 -47 -5.16666 -69 -15.5s-38.6667 -20.5 -50 -30.5l-41 87c14 14 40 27.3333 78 40c40 12.6667 74.3333 19 103 19c30.6667 0 57.5 -4.66666 80.5 -14s42 -22.5 57 -39.5s26 -36.8333 33 -59.5
s10.5 -46.3333 10.5 -71v-310h-114l-5 36c-13.3333 -14.6667 -30.3333 -26.1667 -51 -34.5c-20.6667 -8.33333 -43.3333 -12.5 -68 -12.5zM220 92c16 0 31.5 3.33334 46.5 10s27.8333 15 38.5 25v98c-40.6667 -4.66667 -67.6667 -8 -81 -10
c-26.6667 -5.33333 -45.1667 -14.5 -55.5 -27.5s-15.5 -27.1667 -15.5 -42.5c0 -16 5.83333 -28.8333 17.5 -38.5s28.1667 -14.5 49.5 -14.5zM257 529c-30 0 -54.8333 10 -74.5 30c-19.6667 20 -29.5 46 -29.5 78c0 17.3333 3.16666 32.8333 9.5 46.5
c6.33333 13.6667 14.6667 25.1667 25 34.5c10.3333 9.33331 21.8333 16.3333 34.5 21s25.6667 7 39 7c29.3333 0 53.5 -10.3333 72.5 -31s28.5 -46.3334 28.5 -77c0 -14.6667 -2.5 -28.6667 -7.5 -42s-12.1667 -25 -21.5 -35s-20.5 -17.8333 -33.5 -23.5
s-27.1667 -8.5 -42.5 -8.5zM257 592c12.6667 0 22.5 4.33331 29.5 13s10.5 19.6667 10.5 33s-3.5 24.3333 -10.5 33s-16.8333 13 -29.5 13c-12 0 -21.5 -4.33331 -28.5 -13s-10.5 -19.6667 -10.5 -33s3.5 -24.3333 10.5 -33s16.5 -13 28.5 -13z" />
    <glyph glyph-name="ae" unicode="&#xe6;" horiz-adv-x="770" 
d="M200 -11c-22.6667 0 -44.1667 3.33333 -64.5 10c-20.3333 6.66667 -38.1667 16.5 -53.5 29.5c-15.3333 13 -27.5 29.1667 -36.5 48.5s-13.5 41.6667 -13.5 67c0 42 15 75.6667 45 101c32 26 66 42.3333 102 49c42 7.33334 73.6667 11 95 11h29v27
c0 18.6667 -6.33334 33.6667 -19 45s-29.6667 17 -51 17c-24 0 -45.8333 -3.83334 -65.5 -11.5s-39.5 -19.1667 -59.5 -34.5l-41 88c20 16 46.6667 29.6667 80 41c34 11.3333 64.3333 17 91 17c64 0 111 -20 141 -60c40 40 89.3333 60 148 60c54 0 98 -15 132 -45
c34.6667 -30 57 -65.3333 67 -106c10 -40 15 -77 15 -111v-22h-312c2.66666 -40.6667 15.3333 -70 38 -88c22.6667 -18 52 -27 88 -27c32 0 60 5 84 15s40.3333 19.3333 49 28l33 -101c-14.6667 -10.6667 -28.6667 -18.3333 -42 -23c-10 -4.66667 -29.6667 -10 -59 -16
c-28 -6 -55.3333 -9 -82 -9c-34 0 -65.3333 5.83333 -94 17.5s-53.3333 29.1667 -74 52.5c-19.3333 -22 -41.6667 -39.1667 -67 -51.5c-25.3333 -12.3333 -59.6667 -18.5 -103 -18.5zM217 90c18 0 34.3333 4.5 49 13.5c14.6667 9 24.6667 19.3333 30 31
c5.33334 11.6667 8 21.5 8 29.5v52h-31c-38 0 -67.1667 -7.16667 -87.5 -21.5s-30.5 -31.1667 -30.5 -50.5c0 -17.3333 5.5 -30.6667 16.5 -40c11 -9.33334 26.1667 -14 45.5 -14zM432 299h183c-2 27.3333 -9.83331 48.3333 -23.5 63s-26.6667 23.8333 -39 27.5
c-12.3333 3.66666 -20.8333 5.5 -25.5 5.5c-21.3333 0 -41.6667 -8 -61 -24c-19.3333 -16 -30.6667 -40 -34 -72z" />
    <glyph glyph-name="ccedilla" unicode="&#xe7;" horiz-adv-x="463" 
d="M257 -11c-29.3333 0 -57.5 5 -84.5 15s-50.8333 25.3333 -71.5 46c-20.6667 20.6667 -37.1667 46.6667 -49.5 78c-12.3333 31.3333 -18.5 68.3333 -18.5 111c0 60 12 110.667 36 152c24.6667 40.6667 54.3333 68 89 82s66.6667 21 96 21c50.6667 0 91.3333 -12 122 -36
c30.6667 -24 53 -49.6667 67 -77l-92 -62c-10 17.3333 -22.5 33.5 -37.5 48.5s-34.5 22.5 -58.5 22.5c-26.6667 0 -49.8333 -11.8333 -69.5 -35.5c-19.6667 -23.6667 -29.5 -60.5 -29.5 -110.5c0 -48 10 -84.6667 30 -110c20 -25.3333 49 -38 87 -38
c34 0 61.1667 5.16666 81.5 15.5s35.8333 20.8333 46.5 31.5l36 -102c-18 -13.3333 -42.5 -25.3333 -73.5 -36s-66.5 -16 -106.5 -16zM150 -181l59 137h110l-81 -137h-88z" />
    <glyph glyph-name="egrave" unicode="&#xe8;" horiz-adv-x="499" 
d="M267 -11c-31.3333 0 -61.1667 5 -89.5 15c-28.3333 10 -53.1667 25.5 -74.5 46.5s-38.3333 47.1667 -51 78.5c-12.6667 31.3333 -19 68.6667 -19 112c0 40.6667 5.83333 76.6667 17.5 108c11.6667 31.3333 27.6667 57.6667 48 79c20.3333 21.3333 44 37.6667 71 49
c27 11.3333 55.8333 17 86.5 17c54 0 98 -15 132 -45c34.6667 -30 57 -65.3333 67 -106c10 -40 15 -77 15 -111v-22h-312c2.66667 -40.6667 15.3333 -70 38 -88c22.6667 -18 52 -27 88 -27c32 0 60 5 84 15s40.3333 19.3333 49 28l33 -101
c-14.6667 -10.6667 -28.6667 -18.3333 -42 -23c-8 -4 -27.6667 -9 -59 -15c-30.6667 -6.66667 -58 -10 -82 -10zM161 299h183c-2 27.3333 -9.83334 48.3333 -23.5 63s-26.8333 23.8333 -39.5 27.5c-12.6667 3.66666 -21 5.5 -25 5.5c-21.3333 0 -41.6667 -8 -61 -24
c-19.3333 -16 -30.6667 -40 -34 -72zM344 538l-217 112l59 83l191 -141z" />
    <glyph glyph-name="eacute" unicode="&#xe9;" horiz-adv-x="499" 
d="M267 -11c-31.3333 0 -61.1667 5 -89.5 15c-28.3333 10 -53.1667 25.5 -74.5 46.5s-38.3333 47.1667 -51 78.5c-12.6667 31.3333 -19 68.6667 -19 112c0 40.6667 5.83333 76.6667 17.5 108c11.6667 31.3333 27.6667 57.6667 48 79c20.3333 21.3333 44 37.6667 71 49
c27 11.3333 55.8333 17 86.5 17c54 0 98 -15 132 -45c34.6667 -30 57 -65.3333 67 -106c10 -40 15 -77 15 -111v-22h-312c2.66667 -40.6667 15.3333 -70 38 -88c22.6667 -18 52 -27 88 -27c32 0 60 5 84 15s40.3333 19.3333 49 28l33 -101
c-14.6667 -10.6667 -28.6667 -18.3333 -42 -23c-8 -4 -27.6667 -9 -59 -15c-30.6667 -6.66667 -58 -10 -82 -10zM161 299h183c-2 27.3333 -9.83334 48.3333 -23.5 63s-26.8333 23.8333 -39.5 27.5c-12.6667 3.66666 -21 5.5 -25 5.5c-21.3333 0 -41.6667 -8 -61 -24
c-19.3333 -16 -30.6667 -40 -34 -72zM193 538l-33 54l191 141l59 -83z" />
    <glyph glyph-name="ecircumflex" unicode="&#xea;" horiz-adv-x="499" 
d="M267 -11c-31.3333 0 -61.1667 5 -89.5 15c-28.3333 10 -53.1667 25.5 -74.5 46.5s-38.3333 47.1667 -51 78.5c-12.6667 31.3333 -19 68.6667 -19 112c0 40.6667 5.83333 76.6667 17.5 108c11.6667 31.3333 27.6667 57.6667 48 79c20.3333 21.3333 44 37.6667 71 49
c27 11.3333 55.8333 17 86.5 17c54 0 98 -15 132 -45c34.6667 -30 57 -65.3333 67 -106c10 -40 15 -77 15 -111v-22h-312c2.66667 -40.6667 15.3333 -70 38 -88c22.6667 -18 52 -27 88 -27c32 0 60 5 84 15s40.3333 19.3333 49 28l33 -101
c-14.6667 -10.6667 -28.6667 -18.3333 -42 -23c-8 -4 -27.6667 -9 -59 -15c-30.6667 -6.66667 -58 -10 -82 -10zM161 299h183c-2 27.3333 -9.83334 48.3333 -23.5 63s-26.8333 23.8333 -39.5 27.5c-12.6667 3.66666 -21 5.5 -25 5.5c-21.3333 0 -41.6667 -8 -61 -24
c-19.3333 -16 -30.6667 -40 -34 -72zM156 544l-64 45l115 130h92l113 -129l-64 -45l-96 96z" />
    <glyph glyph-name="edieresis" unicode="&#xeb;" horiz-adv-x="499" 
d="M267 -11c-31.3333 0 -61.1667 5 -89.5 15c-28.3333 10 -53.1667 25.5 -74.5 46.5s-38.3333 47.1667 -51 78.5c-12.6667 31.3333 -19 68.6667 -19 112c0 40.6667 5.83333 76.6667 17.5 108c11.6667 31.3333 27.6667 57.6667 48 79c20.3333 21.3333 44 37.6667 71 49
c27 11.3333 55.8333 17 86.5 17c54 0 98 -15 132 -45c34.6667 -30 57 -65.3333 67 -106c10 -40 15 -77 15 -111v-22h-312c2.66667 -40.6667 15.3333 -70 38 -88c22.6667 -18 52 -27 88 -27c32 0 60 5 84 15s40.3333 19.3333 49 28l33 -101
c-14.6667 -10.6667 -28.6667 -18.3333 -42 -23c-8 -4 -27.6667 -9 -59 -15c-30.6667 -6.66667 -58 -10 -82 -10zM161 299h183c-2 27.3333 -9.83334 48.3333 -23.5 63s-26.8333 23.8333 -39.5 27.5c-12.6667 3.66666 -21 5.5 -25 5.5c-21.3333 0 -41.6667 -8 -61 -24
c-19.3333 -16 -30.6667 -40 -34 -72zM163 560c-23.3333 0 -40.8333 6.83331 -52.5 20.5c-11.6667 13.6667 -17.5 28.8334 -17.5 45.5c0 16 5.83333 30.8333 17.5 44.5c11.6667 13.6667 29.1667 20.5 52.5 20.5c22.6667 0 39.6667 -6.83331 51 -20.5s17 -28.5 17 -44.5
c0 -16.6667 -5.66667 -31.8334 -17 -45.5c-11.3333 -13.6667 -28.3333 -20.5 -51 -20.5zM371 560h-3.05176e-05c-23.3333 0 -40.8333 6.83331 -52.5 20.5s-17.5 28.8334 -17.5 45.5c0 16 5.83334 30.8333 17.5 44.5s29.1667 20.5 52.5 20.5
c22.6667 0 39.6667 -6.83331 51 -20.5s17 -28.5 17 -44.5c0 -16.6667 -5.66666 -31.8334 -17 -45.5c-11.3333 -13.6667 -28.3333 -20.5 -51 -20.5z" />
    <glyph glyph-name="igrave" unicode="&#xec;" horiz-adv-x="247" 
d="M62 0v482h123v-482h-123zM217 538l-217 112l59 83l191 -141z" />
    <glyph glyph-name="iacute" unicode="&#xed;" horiz-adv-x="247" 
d="M62 0v482h123v-482h-123zM32 538l-33 54l191 141l59 -83z" />
    <glyph glyph-name="icircumflex" unicode="&#xee;" horiz-adv-x="247" 
d="M62 0v482h123v-482h-123zM32 544l-64 45l115 130h92l113 -129l-64 -45l-96 96z" />
    <glyph glyph-name="idieresis" unicode="&#xef;" horiz-adv-x="247" 
d="M62 0v482h123v-482h-123zM25 560c-23.3333 0 -40.8333 6.83331 -52.5 20.5c-11.6667 13.6667 -17.5 28.8334 -17.5 45.5c0 16 5.83333 30.8333 17.5 44.5c11.6667 13.6667 29.1667 20.5 52.5 20.5c22.6667 0 39.6667 -6.83331 51 -20.5s17 -28.5 17 -44.5
c0 -16.6667 -5.66667 -31.8334 -17 -45.5c-11.3333 -13.6667 -28.3333 -20.5 -51 -20.5zM233 560c-23.3333 0 -40.8333 6.83331 -52.5 20.5s-17.5 28.8334 -17.5 45.5c0 16 5.83334 30.8333 17.5 44.5s29.1667 20.5 52.5 20.5c22.6667 0 39.6667 -6.83331 51 -20.5
s17 -28.5 17 -44.5c0 -16.6667 -5.66666 -31.8334 -17 -45.5c-11.3333 -13.6667 -28.3333 -20.5 -51 -20.5z" />
    <glyph glyph-name="eth" unicode="&#xf0;" horiz-adv-x="541" 
d="M271 -10c-31.3333 0 -61.1667 5.16667 -89.5 15.5c-28.3333 10.3333 -53.1667 26 -74.5 47s-38.3333 47.1667 -51 78.5c-12.6667 31.3333 -19 67.6667 -19 109c0 53.3333 10 100 30 140c20.6667 40 46.6667 68.1667 78 84.5c31.3333 16.3333 64.3333 24.5 99 24.5
c16 0 31.5 -2 46.5 -6s28.8333 -10.3333 41.5 -19c-13.3333 30 -39 56.3333 -77 79c-37.3333 22.6667 -73.6667 37 -109 43l19 94c25.3333 -4.66669 49.1667 -10.5 71.5 -17.5s43.1667 -15.8333 62.5 -26.5l55 74l73 -58l-53 -71c27.3333 -23.3333 49.6667 -50.5 67 -81.5
c17.3333 -31 30.8333 -61.8333 40.5 -92.5s15.8333 -59 18.5 -85c2.66666 -26 4 -45.3333 4 -58c0 -41.3333 -5 -78.8333 -15 -112.5s-24.6667 -62.5 -44 -86.5s-43.6667 -42.5 -73 -55.5c-29.3333 -13 -63 -19.5 -101 -19.5zM268 96c14.6667 0 28.6667 3.66666 42 11
s25 18 35 32s17.6667 30.1667 23 48.5s8 37.5 8 57.5c0 19.3333 -2 40 -6 62s-8.66666 39.3333 -14 52c-28.6667 16.6667 -57.6667 25 -87 25c-32 0 -58.5 -11.8333 -79.5 -35.5s-31.5 -59.5 -31.5 -107.5c0 -24 3.16667 -45 9.5 -63s14.6667 -33.1667 25 -45.5
c10.3333 -12.3333 22 -21.5 35 -27.5s26.5 -9 40.5 -9z" />
    <glyph glyph-name="ntilde" unicode="&#xf1;" horiz-adv-x="552" 
d="M62 0v482h113l6 -38c19.3333 16 41.1667 28.3333 65.5 37s48.8333 13 73.5 13c38.6667 0 71.6667 -8.66666 99 -26s46.5 -42.8333 57.5 -76.5s16.5 -69.1667 16.5 -106.5v-285h-124v275c0 36.6667 -7.5 65 -22.5 85s-36.5 30 -64.5 30c-19.3333 0 -37.1667 -5 -53.5 -15
s-30.5 -21 -42.5 -33v-342h-124zM153 540l-68 38c12 34 28.5 61.3333 49.5 82s45.5 31 73.5 31c17.3333 0 41.6667 -9.66669 73 -29c26.6667 -18.6667 45.3334 -28 56 -28c6 0 14.6667 3.83331 26 11.5s22.3333 24.8334 33 51.5l69 -37
c-9.33334 -34 -25.3333 -61.5 -48 -82.5s-48.3333 -31.5 -77 -31.5c-18.6667 0 -43.3333 10 -74 30c-27.3333 18 -45.6667 27 -55 27c-7.33333 0 -16.1667 -3.83331 -26.5 -11.5s-20.8333 -24.8334 -31.5 -51.5z" />
    <glyph glyph-name="ograve" unicode="&#xf2;" horiz-adv-x="528" 
d="M264 -11c-38.6667 0 -72.5 7.33333 -101.5 22s-53 34 -72 58s-33.3333 51.1667 -43 81.5c-9.66667 30.3333 -14.5 61.1667 -14.5 92.5c0 48.6667 10.6667 93.6667 32 135c22 41.3333 51 71 87 89s73.3333 27 112 27c54 0 99.6667 -14.6667 137 -44
c36.6667 -28.6667 61.3333 -62.6667 74 -102c13.3333 -41.3333 20 -76.3333 20 -105c0 -48.6667 -11 -94 -33 -136c-16.6667 -32.6667 -38.5 -58.3333 -65.5 -77c-27 -18.6667 -52.1667 -30.1667 -75.5 -34.5s-42.3333 -6.5 -57 -6.5zM264 96
c21.3333 -1.33334 39.3333 3.83333 54 15.5c14.6667 11.6667 26.1667 25.5 34.5 41.5s14.1667 32.5 17.5 49.5c3.33334 17 4.33334 30.5 3 40.5c0 36 -7.5 66.3333 -22.5 91s-31 40.1667 -48 46.5s-29.8333 9.16669 -38.5 8.5c-28 0 -51.3333 -10 -70 -30
c-15.3333 -16.6667 -25.6667 -35.1667 -31 -55.5c-5.33333 -20.3333 -8 -40.5 -8 -60.5c0 -20.6667 2.33333 -39.8333 7 -57.5c4.66667 -17.6667 11.5 -33.1667 20.5 -46.5c9 -13.3333 20.3333 -23.8333 34 -31.5s29.5 -11.5 47.5 -11.5zM357 538l-217 112l59 83l191 -141z
" />
    <glyph glyph-name="oacute" unicode="&#xf3;" horiz-adv-x="528" 
d="M264 -11c-38.6667 0 -72.5 7.33333 -101.5 22s-53 34 -72 58s-33.3333 51.1667 -43 81.5c-9.66667 30.3333 -14.5 61.1667 -14.5 92.5c0 48.6667 10.6667 93.6667 32 135c22 41.3333 51 71 87 89s73.3333 27 112 27c54 0 99.6667 -14.6667 137 -44
c36.6667 -28.6667 61.3333 -62.6667 74 -102c13.3333 -41.3333 20 -76.3333 20 -105c0 -48.6667 -11 -94 -33 -136c-16.6667 -32.6667 -38.5 -58.3333 -65.5 -77c-27 -18.6667 -52.1667 -30.1667 -75.5 -34.5s-42.3333 -6.5 -57 -6.5zM264 96
c21.3333 -1.33334 39.3333 3.83333 54 15.5c14.6667 11.6667 26.1667 25.5 34.5 41.5s14.1667 32.5 17.5 49.5c3.33334 17 4.33334 30.5 3 40.5c0 36 -7.5 66.3333 -22.5 91s-31 40.1667 -48 46.5s-29.8333 9.16669 -38.5 8.5c-28 0 -51.3333 -10 -70 -30
c-15.3333 -16.6667 -25.6667 -35.1667 -31 -55.5c-5.33333 -20.3333 -8 -40.5 -8 -60.5c0 -20.6667 2.33333 -39.8333 7 -57.5c4.66667 -17.6667 11.5 -33.1667 20.5 -46.5c9 -13.3333 20.3333 -23.8333 34 -31.5s29.5 -11.5 47.5 -11.5zM194 538l-33 54l191 141l59 -83z
" />
    <glyph glyph-name="ocircumflex" unicode="&#xf4;" horiz-adv-x="528" 
d="M264 -11c-38.6667 0 -72.5 7.33333 -101.5 22s-53 34 -72 58s-33.3333 51.1667 -43 81.5c-9.66667 30.3333 -14.5 61.1667 -14.5 92.5c0 48.6667 10.6667 93.6667 32 135c22 41.3333 51 71 87 89s73.3333 27 112 27c54 0 99.6667 -14.6667 137 -44
c36.6667 -28.6667 61.3333 -62.6667 74 -102c13.3333 -41.3333 20 -76.3333 20 -105c0 -48.6667 -11 -94 -33 -136c-16.6667 -32.6667 -38.5 -58.3333 -65.5 -77c-27 -18.6667 -52.1667 -30.1667 -75.5 -34.5s-42.3333 -6.5 -57 -6.5zM264 96
c21.3333 -1.33334 39.3333 3.83333 54 15.5c14.6667 11.6667 26.1667 25.5 34.5 41.5s14.1667 32.5 17.5 49.5c3.33334 17 4.33334 30.5 3 40.5c0 36 -7.5 66.3333 -22.5 91s-31 40.1667 -48 46.5s-29.8333 9.16669 -38.5 8.5c-28 0 -51.3333 -10 -70 -30
c-15.3333 -16.6667 -25.6667 -35.1667 -31 -55.5c-5.33333 -20.3333 -8 -40.5 -8 -60.5c0 -20.6667 2.33333 -39.8333 7 -57.5c4.66667 -17.6667 11.5 -33.1667 20.5 -46.5c9 -13.3333 20.3333 -23.8333 34 -31.5s29.5 -11.5 47.5 -11.5zM166 544l-64 45l115 130h92
l113 -129l-64 -45l-96 96z" />
    <glyph glyph-name="otilde" unicode="&#xf5;" horiz-adv-x="528" 
d="M264 -11c-38.6667 0 -72.5 7.33333 -101.5 22s-53 34 -72 58s-33.3333 51.1667 -43 81.5c-9.66667 30.3333 -14.5 61.1667 -14.5 92.5c0 48.6667 10.6667 93.6667 32 135c22 41.3333 51 71 87 89s73.3333 27 112 27c54 0 99.6667 -14.6667 137 -44
c36.6667 -28.6667 61.3333 -62.6667 74 -102c13.3333 -41.3333 20 -76.3333 20 -105c0 -48.6667 -11 -94 -33 -136c-16.6667 -32.6667 -38.5 -58.3333 -65.5 -77c-27 -18.6667 -52.1667 -30.1667 -75.5 -34.5s-42.3333 -6.5 -57 -6.5zM264 96
c21.3333 -1.33334 39.3333 3.83333 54 15.5c14.6667 11.6667 26.1667 25.5 34.5 41.5s14.1667 32.5 17.5 49.5c3.33334 17 4.33334 30.5 3 40.5c0 36 -7.5 66.3333 -22.5 91s-31 40.1667 -48 46.5s-29.8333 9.16669 -38.5 8.5c-28 0 -51.3333 -10 -70 -30
c-15.3333 -16.6667 -25.6667 -35.1667 -31 -55.5c-5.33333 -20.3333 -8 -40.5 -8 -60.5c0 -20.6667 2.33333 -39.8333 7 -57.5c4.66667 -17.6667 11.5 -33.1667 20.5 -46.5c9 -13.3333 20.3333 -23.8333 34 -31.5s29.5 -11.5 47.5 -11.5zM136 540l-68 38
c12 34 28.5 61.3333 49.5 82s45.5 31 73.5 31c17.3333 0 41.6667 -9.66669 73 -29c26.6667 -18.6667 45.3334 -28 56 -28c6 0 14.6667 3.83331 26 11.5s22.3333 24.8334 33 51.5l69 -37c-9.33334 -34 -25.3333 -61.5 -48 -82.5s-48.3333 -31.5 -77 -31.5
c-18.6667 0 -43.3333 10 -74 30c-27.3333 18 -45.6667 27 -55 27c-7.33333 0 -16.1667 -3.83331 -26.5 -11.5s-20.8333 -24.8334 -31.5 -51.5z" />
    <glyph glyph-name="odieresis" unicode="&#xf6;" horiz-adv-x="528" 
d="M264 -11c-38.6667 0 -72.5 7.33333 -101.5 22s-53 34 -72 58s-33.3333 51.1667 -43 81.5c-9.66667 30.3333 -14.5 61.1667 -14.5 92.5c0 48.6667 10.6667 93.6667 32 135c22 41.3333 51 71 87 89s73.3333 27 112 27c54 0 99.6667 -14.6667 137 -44
c36.6667 -28.6667 61.3333 -62.6667 74 -102c13.3333 -41.3333 20 -76.3333 20 -105c0 -48.6667 -11 -94 -33 -136c-16.6667 -32.6667 -38.5 -58.3333 -65.5 -77c-27 -18.6667 -52.1667 -30.1667 -75.5 -34.5s-42.3333 -6.5 -57 -6.5zM264 96
c21.3333 -1.33334 39.3333 3.83333 54 15.5c14.6667 11.6667 26.1667 25.5 34.5 41.5s14.1667 32.5 17.5 49.5c3.33334 17 4.33334 30.5 3 40.5c0 36 -7.5 66.3333 -22.5 91s-31 40.1667 -48 46.5s-29.8333 9.16669 -38.5 8.5c-28 0 -51.3333 -10 -70 -30
c-15.3333 -16.6667 -25.6667 -35.1667 -31 -55.5c-5.33333 -20.3333 -8 -40.5 -8 -60.5c0 -20.6667 2.33333 -39.8333 7 -57.5c4.66667 -17.6667 11.5 -33.1667 20.5 -46.5c9 -13.3333 20.3333 -23.8333 34 -31.5s29.5 -11.5 47.5 -11.5zM167 560
c-23.3333 0 -40.8333 6.83331 -52.5 20.5c-11.6667 13.6667 -17.5 28.8334 -17.5 45.5c0 16 5.83333 30.8333 17.5 44.5c11.6667 13.6667 29.1667 20.5 52.5 20.5c22.6667 0 39.6667 -6.83331 51 -20.5s17 -28.5 17 -44.5c0 -16.6667 -5.66667 -31.8334 -17 -45.5
c-11.3333 -13.6667 -28.3333 -20.5 -51 -20.5zM375 560h-3.05176e-05c-23.3333 0 -40.8333 6.83331 -52.5 20.5s-17.5 28.8334 -17.5 45.5c0 16 5.83334 30.8333 17.5 44.5s29.1667 20.5 52.5 20.5c22.6667 0 39.6667 -6.83331 51 -20.5s17 -28.5 17 -44.5
c0 -16.6667 -5.66666 -31.8334 -17 -45.5c-11.3333 -13.6667 -28.3333 -20.5 -51 -20.5z" />
    <glyph glyph-name="divide" unicode="&#xf7;" 
d="M257 72c-22 0 -40.1667 7.83334 -54.5 23.5s-21.5 34.1667 -21.5 55.5c0 20.6667 7.16667 38.8333 21.5 54.5c14.3333 15.6667 32.5 23.5 54.5 23.5s40.1667 -7.83333 54.5 -23.5s21.5 -33.8333 21.5 -54.5c0 -21.3333 -7.16666 -39.8333 -21.5 -55.5
c-14.3333 -15.6667 -32.5 -23.5 -54.5 -23.5zM22 275v110h468v-110h-468zM257 443c-22 0 -40.1667 8 -54.5 24s-21.5 34.3333 -21.5 55c0 20.6667 7.16667 39 21.5 55s32.5 24 54.5 24s40.1667 -8 54.5 -24s21.5 -34.3333 21.5 -55c0 -20.6667 -7.16666 -39 -21.5 -55
s-32.5 -24 -54.5 -24z" />
    <glyph glyph-name="oslash" unicode="&#xf8;" horiz-adv-x="528" 
d="M129 -53l-65 47l39 61c-23.3333 24.6667 -40.8333 53.5 -52.5 86.5c-11.6667 33 -17.5 66.8333 -17.5 101.5c0 48.6667 10.6667 93.6667 32 135c22 41.3333 51 71 87 89s73.3333 27 112 27c34.6667 0 69.3333 -7.66666 104 -23l36 56l65 -47l-37 -58
c21.3333 -24 37.1667 -51.3333 47.5 -82c10.3333 -30.6667 15.5 -63 15.5 -97c0 -48.6667 -11 -94 -33 -136c-16.6667 -32.6667 -38.5 -58.3333 -65.5 -77c-27 -18.6667 -52.1667 -30.1667 -75.5 -34.5s-42.3333 -6.5 -57 -6.5c-36.6667 0 -68.6667 6.33333 -96 19zM264 94
c20.6667 -0.666656 38.1667 4 52.5 14s25.8333 22.5 34.5 37.5s14.8333 31.3333 18.5 49c3.66666 17.6667 5.16666 33.8333 4.5 48.5c0 24 -3 47.6667 -9 71l-136 -215c12 -3.33334 23.6667 -5 35 -5zM168 158l143 223h1c-12.6667 6.66666 -28.6667 10 -48 10
c-29.3333 1.33334 -53 -8.33331 -71 -29c-18 -20 -29.1667 -41.3333 -33.5 -64s-6.16666 -41 -5.5 -55c0 -30 4.66667 -58.3333 14 -85z" />
    <glyph glyph-name="ugrave" unicode="&#xf9;" horiz-adv-x="550" 
d="M232 -10c-56.6667 0 -99.6667 17 -129 51c-29.3333 34 -44 85.3333 -44 154v287h124v-274c0 -33.3333 6 -60.3333 18 -81c12 -20.6667 32.6667 -31 62 -31c24 0 44.3333 4.83334 61 14.5s30 18.8333 40 27.5v344h124v-482h-114l-4 38
c-22 -18.6667 -44.8333 -31.3333 -68.5 -38s-46.8333 -10 -69.5 -10zM360 538l-217 112l59 83l191 -141z" />
    <glyph glyph-name="uacute" unicode="&#xfa;" horiz-adv-x="550" 
d="M232 -10c-56.6667 0 -99.6667 17 -129 51c-29.3333 34 -44 85.3333 -44 154v287h124v-274c0 -33.3333 6 -60.3333 18 -81c12 -20.6667 32.6667 -31 62 -31c24 0 44.3333 4.83334 61 14.5s30 18.8333 40 27.5v344h124v-482h-114l-4 38
c-22 -18.6667 -44.8333 -31.3333 -68.5 -38s-46.8333 -10 -69.5 -10zM216 538l-33 54l191 141l59 -83z" />
    <glyph glyph-name="ucircumflex" unicode="&#xfb;" horiz-adv-x="550" 
d="M232 -10c-56.6667 0 -99.6667 17 -129 51c-29.3333 34 -44 85.3333 -44 154v287h124v-274c0 -33.3333 6 -60.3333 18 -81c12 -20.6667 32.6667 -31 62 -31c24 0 44.3333 4.83334 61 14.5s30 18.8333 40 27.5v344h124v-482h-114l-4 38
c-22 -18.6667 -44.8333 -31.3333 -68.5 -38s-46.8333 -10 -69.5 -10zM183 544l-64 45l115 130h92l113 -129l-64 -45l-96 96z" />
    <glyph glyph-name="udieresis" unicode="&#xfc;" horiz-adv-x="550" 
d="M232 -10c-56.6667 0 -99.6667 17 -129 51c-29.3333 34 -44 85.3333 -44 154v287h124v-274c0 -33.3333 6 -60.3333 18 -81c12 -20.6667 32.6667 -31 62 -31c24 0 44.3333 4.83334 61 14.5s30 18.8333 40 27.5v344h124v-482h-114l-4 38
c-22 -18.6667 -44.8333 -31.3333 -68.5 -38s-46.8333 -10 -69.5 -10zM172 560c-23.3333 0 -40.8333 6.83331 -52.5 20.5c-11.6667 13.6667 -17.5 28.8334 -17.5 45.5c0 16 5.83333 30.8333 17.5 44.5c11.6667 13.6667 29.1667 20.5 52.5 20.5
c22.6667 0 39.6667 -6.83331 51 -20.5s17 -28.5 17 -44.5c0 -16.6667 -5.66667 -31.8334 -17 -45.5c-11.3333 -13.6667 -28.3333 -20.5 -51 -20.5zM380 560h-3.05176e-05c-23.3333 0 -40.8333 6.83331 -52.5 20.5s-17.5 28.8334 -17.5 45.5c0 16 5.83334 30.8333 17.5 44.5
s29.1667 20.5 52.5 20.5c22.6667 0 39.6667 -6.83331 51 -20.5s17 -28.5 17 -44.5c0 -16.6667 -5.66666 -31.8334 -17 -45.5c-11.3333 -13.6667 -28.3333 -20.5 -51 -20.5z" />
    <glyph glyph-name="yacute" unicode="&#xfd;" horiz-adv-x="503" 
d="M37 -191l-11 111c36 0 68.1667 4.33334 96.5 13c28.3333 8.66667 50.1667 22.6667 65.5 42c2.66667 3.33333 5 7 7 11s4.33333 8 7 12l-198 484h133l134 -370c28.6667 76 48 133 58 171c25.3333 93.3333 42.6667 159.667 52 199h122
c-24.6667 -98 -50.8333 -186.667 -78.5 -266c-27.6667 -79.3333 -55.5 -147.333 -83.5 -204c-26.6667 -50.6667 -50.6667 -90 -72 -118c-21.3333 -26 -52.3333 -46.5 -93 -61.5s-87 -22.8333 -139 -23.5zM197 538l-33 54l191 141l59 -83z" />
    <glyph glyph-name="thorn" unicode="&#xfe;" horiz-adv-x="552" 
d="M69 -189v856h124v-217c11.3333 10.6667 26.1667 20.6667 44.5 30c18.3333 9.33334 39.8333 14 64.5 14c46 0 85 -14 117 -42s53.6667 -62 65 -102c11.3333 -42 17 -78 17 -108c0 -50.6667 -11.3333 -96.8333 -34 -138.5c-22.6667 -41.6667 -52.6667 -71.1667 -90 -88.5
s-77 -26 -119 -26c-20 0 -41.3333 4.66667 -64 14v-192h-125zM251 97c24.6667 -0.666656 45.5 4 62.5 14s30.5 22.3333 40.5 37s17 30.3333 21 47c4 16.6667 5.66666 31.6667 5 45c0.666656 29.3333 -5 57.1667 -17 83.5c-12 26.3333 -26.1667 44.3333 -42.5 54
s-31.1667 13.8333 -44.5 12.5c-17.3333 0 -33.6667 -4.83334 -49 -14.5s-26.6667 -20.1667 -34 -31.5v-233c22 -9.33334 41.3333 -14 58 -14z" />
    <glyph glyph-name="ydieresis" unicode="&#xff;" horiz-adv-x="503" 
d="M37 -191l-11 111c36 0 68.1667 4.33334 96.5 13c28.3333 8.66667 50.1667 22.6667 65.5 42c2.66667 3.33333 5 7 7 11s4.33333 8 7 12l-198 484h133l134 -370c28.6667 76 48 133 58 171c25.3333 93.3333 42.6667 159.667 52 199h122
c-24.6667 -98 -50.8333 -186.667 -78.5 -266c-27.6667 -79.3333 -55.5 -147.333 -83.5 -204c-26.6667 -50.6667 -50.6667 -90 -72 -118c-21.3333 -26 -52.3333 -46.5 -93 -61.5s-87 -22.8333 -139 -23.5zM165 560c-23.3333 0 -40.8333 6.83331 -52.5 20.5
c-11.6667 13.6667 -17.5 28.8334 -17.5 45.5c0 16 5.83333 30.8333 17.5 44.5c11.6667 13.6667 29.1667 20.5 52.5 20.5c22.6667 0 39.6667 -6.83331 51 -20.5s17 -28.5 17 -44.5c0 -16.6667 -5.66667 -31.8334 -17 -45.5c-11.3333 -13.6667 -28.3333 -20.5 -51 -20.5z
M373 560h-3.05176e-05c-23.3333 0 -40.8333 6.83331 -52.5 20.5s-17.5 28.8334 -17.5 45.5c0 16 5.83334 30.8333 17.5 44.5s29.1667 20.5 52.5 20.5c22.6667 0 39.6667 -6.83331 51 -20.5s17 -28.5 17 -44.5c0 -16.6667 -5.66666 -31.8334 -17 -45.5
c-11.3333 -13.6667 -28.3333 -20.5 -51 -20.5z" />
    <glyph glyph-name="Amacron" unicode="&#x100;" horiz-adv-x="608" 
d="M0 0l240 667h127l241 -667h-131l-46 134h-255l-45 -134h-131zM215 247h178l-89 263zM134 744v89h345v-89h-345z" />
    <glyph glyph-name="amacron" unicode="&#x101;" horiz-adv-x="488" 
d="M191 -11c-20.6667 0 -40.5 3.5 -59.5 10.5s-35.8333 17 -50.5 30s-26.5 29 -35.5 48s-13.5 40.5 -13.5 64.5c0 26 5.5 48.5 16.5 67.5s25.3333 35 43 48s36.6667 23 57 30c20.3333 7 38.8333 11.5 55.5 13.5c9.33333 1.33334 42.6667 5.33334 100 12v7
c0 26.6667 -6.83334 45.6667 -20.5 57s-32.5 17 -56.5 17c-24 0 -47 -5.16666 -69 -15.5s-38.6667 -20.5 -50 -30.5l-41 87c14 14 40 27.3333 78 40c40 12.6667 74.3333 19 103 19c30.6667 0 57.5 -4.66666 80.5 -14s42 -22.5 57 -39.5s26 -36.8333 33 -59.5
s10.5 -46.3333 10.5 -71v-310h-114l-5 36c-13.3333 -14.6667 -30.3333 -26.1667 -51 -34.5c-20.6667 -8.33333 -43.3333 -12.5 -68 -12.5zM220 92c16 0 31.5 3.33334 46.5 10s27.8333 15 38.5 25v98c-40.6667 -4.66667 -67.6667 -8 -81 -10
c-26.6667 -5.33333 -45.1667 -14.5 -55.5 -27.5s-15.5 -27.1667 -15.5 -42.5c0 -16 5.83333 -28.8333 17.5 -38.5s28.1667 -14.5 49.5 -14.5zM77 578v89h345v-89h-345z" />
    <glyph glyph-name="Abreve" unicode="&#x102;" horiz-adv-x="608" 
d="M0 0l240 667h127l241 -667h-131l-46 134h-255l-45 -134h-131zM215 247h178l-89 263zM306 705c-24.6667 0 -47.1667 3.83331 -67.5 11.5c-20.3333 7.66669 -37.5 18.1667 -51.5 31.5s-24.3333 28.6666 -31 46c-6.66667 17.3333 -10 34.6666 -10 52h98
c4 -18.6667 11 -33.5 21 -44.5s23.6667 -16.5 41 -16.5s31.3333 5.5 42 16.5c10.6667 11 18 25.8333 22 44.5h95c-0.666656 -22.6667 -5.66666 -42.6667 -15 -60s-21.5 -32 -36.5 -44s-31.8333 -21.1667 -50.5 -27.5c-18.6667 -6.33331 -37.6667 -9.5 -57 -9.5z" />
    <glyph glyph-name="abreve" unicode="&#x103;" horiz-adv-x="488" 
d="M191 -11c-20.6667 0 -40.5 3.5 -59.5 10.5s-35.8333 17 -50.5 30s-26.5 29 -35.5 48s-13.5 40.5 -13.5 64.5c0 26 5.5 48.5 16.5 67.5s25.3333 35 43 48s36.6667 23 57 30c20.3333 7 38.8333 11.5 55.5 13.5c9.33333 1.33334 42.6667 5.33334 100 12v7
c0 26.6667 -6.83334 45.6667 -20.5 57s-32.5 17 -56.5 17c-24 0 -47 -5.16666 -69 -15.5s-38.6667 -20.5 -50 -30.5l-41 87c14 14 40 27.3333 78 40c40 12.6667 74.3333 19 103 19c30.6667 0 57.5 -4.66666 80.5 -14s42 -22.5 57 -39.5s26 -36.8333 33 -59.5
s10.5 -46.3333 10.5 -71v-310h-114l-5 36c-13.3333 -14.6667 -30.3333 -26.1667 -51 -34.5c-20.6667 -8.33333 -43.3333 -12.5 -68 -12.5zM220 92c16 0 31.5 3.33334 46.5 10s27.8333 15 38.5 25v98c-40.6667 -4.66667 -67.6667 -8 -81 -10
c-26.6667 -5.33333 -45.1667 -14.5 -55.5 -27.5s-15.5 -27.1667 -15.5 -42.5c0 -16 5.83333 -28.8333 17.5 -38.5s28.1667 -14.5 49.5 -14.5zM248 539h-1.52588e-05c-24.6667 0 -47.1667 3.83331 -67.5 11.5c-20.3333 7.66669 -37.5 18.1667 -51.5 31.5
s-24.3333 28.6666 -31 46c-6.66667 17.3333 -10 34.6666 -10 52h98c4 -18.6667 11 -33.5 21 -44.5s23.6667 -16.5 41 -16.5s31.3333 5.5 42 16.5c10.6667 11 18 25.8333 22 44.5h95c-0.666656 -22.6667 -5.66666 -42.6667 -15 -60s-21.5 -32 -36.5 -44
s-31.8333 -21.1667 -50.5 -27.5c-18.6667 -6.33331 -37.6667 -9.5 -57 -9.5z" />
    <glyph glyph-name="Aogonek" unicode="&#x104;" horiz-adv-x="608" 
d="M0 0l240 667h127l241 -667h-131l-46 134h-255l-45 -134h-131zM215 247h178l-89 263zM529 -198c-34 0 -59.3333 8.16667 -76 24.5s-25 37.1667 -25 62.5c0 18 3.83334 34.5 11.5 49.5s17.1667 28.3333 28.5 40c11.3333 11.6667 22.6667 21.1667 34 28.5
c11.3333 7.33333 19.6666 12.3333 25 15l72 -12c-19.3333 -13.3333 -36.8333 -28 -52.5 -44s-23.5 -32 -23.5 -48c0 -8.66666 2.16669 -15.6667 6.5 -21s11.5 -8 21.5 -8c12 0 23 3 33 9l23 -75c-12.6667 -7.33333 -25.5 -12.6667 -38.5 -16
c-13 -3.33333 -26.1667 -5 -39.5 -5z" />
    <glyph glyph-name="aogonek" unicode="&#x105;" horiz-adv-x="488" 
d="M191 -11c-20.6667 0 -40.5 3.5 -59.5 10.5s-35.8333 17 -50.5 30s-26.5 29 -35.5 48s-13.5 40.5 -13.5 64.5c0 26 5.5 48.5 16.5 67.5s25.3333 35 43 48s36.6667 23 57 30c20.3333 7 38.8333 11.5 55.5 13.5c9.33333 1.33334 42.6667 5.33334 100 12v7
c0 26.6667 -6.83334 45.6667 -20.5 57s-32.5 17 -56.5 17c-24 0 -47 -5.16666 -69 -15.5s-38.6667 -20.5 -50 -30.5l-41 87c14 14 40 27.3333 78 40c40 12.6667 74.3333 19 103 19c30.6667 0 57.5 -4.66666 80.5 -14s42 -22.5 57 -39.5s26 -36.8333 33 -59.5
s10.5 -46.3333 10.5 -71v-310h-114l-5 36c-13.3333 -14.6667 -30.3333 -26.1667 -51 -34.5c-20.6667 -8.33333 -43.3333 -12.5 -68 -12.5zM220 92c16 0 31.5 3.33334 46.5 10s27.8333 15 38.5 25v98c-40.6667 -4.66667 -67.6667 -8 -81 -10
c-26.6667 -5.33333 -45.1667 -14.5 -55.5 -27.5s-15.5 -27.1667 -15.5 -42.5c0 -16 5.83333 -28.8333 17.5 -38.5s28.1667 -14.5 49.5 -14.5zM350 -198c-34 0 -59.3333 8.16667 -76 24.5s-25 37.1667 -25 62.5c0 18 3.83334 34.5 11.5 49.5s17.1667 28.3333 28.5 40
c11.3333 11.6667 22.6667 21.1667 34 28.5c11.3333 7.33333 19.6667 12.3333 25 15l72 -12c-19.3333 -13.3333 -36.8333 -28 -52.5 -44s-23.5 -32 -23.5 -48c0 -8.66666 2.16669 -15.6667 6.5 -21s11.5 -8 21.5 -8c12 0 23 3 33 9l23 -75
c-12.6667 -7.33333 -25.5 -12.6667 -38.5 -16c-13 -3.33333 -26.1667 -5 -39.5 -5z" />
    <glyph glyph-name="Cacute" unicode="&#x106;" horiz-adv-x="571" 
d="M330 -14c-42 0 -80.5 7.33333 -115.5 22s-65.3333 36.5 -91 65.5c-25.6667 29 -45.5 65 -59.5 108s-21 92.8333 -21 149.5c0 60 8.16666 111.833 24.5 155.5c16.3333 43.6667 37.8333 80 64.5 109c26.6667 29 57.1667 50.5 91.5 64.5c34.3333 14 69.5 21 105.5 21
c45.3333 0 85 -8.33331 119 -25s58.6667 -34.3334 74 -53c15.3333 -18.6667 25 -32 29 -40l-94 -79c-3.33334 6 -8.16669 13.5 -14.5 22.5c-6.33334 9 -14.6667 17.6667 -25 26c-10.3333 8.33331 -22.6667 15.5 -37 21.5c-14.3333 6 -30.8333 9 -49.5 9
c-21.3333 0 -41.5 -4.5 -60.5 -13.5s-35.8333 -23 -50.5 -42s-26.1667 -43 -34.5 -72s-12.5 -63.8333 -12.5 -104.5c0 -72.6667 15.6667 -128.5 47 -167.5c31.3333 -39 73 -58.5 125 -58.5c38 0 70.6667 6.5 98 19.5s47 25.5 59 37.5l41 -111
c-15.3333 -18 -46.1667 -33.3333 -92.5 -46s-86.5 -19 -120.5 -19zM241 705l-33 54l191 141l59 -83z" />
    <glyph glyph-name="cacute" unicode="&#x107;" horiz-adv-x="463" 
d="M257 -11c-29.3333 0 -57.5 5 -84.5 15s-50.8333 25.3333 -71.5 46c-20.6667 20.6667 -37.1667 46.6667 -49.5 78c-12.3333 31.3333 -18.5 68.3333 -18.5 111c0 60 12 110.667 36 152c24.6667 40.6667 54.3333 68 89 82s66.6667 21 96 21c50.6667 0 91.3333 -12 122 -36
c30.6667 -24 53 -49.6667 67 -77l-92 -62c-10 17.3333 -22.5 33.5 -37.5 48.5s-34.5 22.5 -58.5 22.5c-26.6667 0 -49.8333 -11.8333 -69.5 -35.5c-19.6667 -23.6667 -29.5 -60.5 -29.5 -110.5c0 -48 10 -84.6667 30 -110c20 -25.3333 49 -38 87 -38
c34 0 61.1667 5.16666 81.5 15.5s35.8333 20.8333 46.5 31.5l36 -102c-18 -13.3333 -42.5 -25.3333 -73.5 -36s-66.5 -16 -106.5 -16zM166 538l-33 54l191 141l59 -83z" />
    <glyph glyph-name="Ccircumflex" unicode="&#x108;" horiz-adv-x="571" 
d="M330 -14c-42 0 -80.5 7.33333 -115.5 22s-65.3333 36.5 -91 65.5c-25.6667 29 -45.5 65 -59.5 108s-21 92.8333 -21 149.5c0 60 8.16666 111.833 24.5 155.5c16.3333 43.6667 37.8333 80 64.5 109c26.6667 29 57.1667 50.5 91.5 64.5c34.3333 14 69.5 21 105.5 21
c45.3333 0 85 -8.33331 119 -25s58.6667 -34.3334 74 -53c15.3333 -18.6667 25 -32 29 -40l-94 -79c-3.33334 6 -8.16669 13.5 -14.5 22.5c-6.33334 9 -14.6667 17.6667 -25 26c-10.3333 8.33331 -22.6667 15.5 -37 21.5c-14.3333 6 -30.8333 9 -49.5 9
c-21.3333 0 -41.5 -4.5 -60.5 -13.5s-35.8333 -23 -50.5 -42s-26.1667 -43 -34.5 -72s-12.5 -63.8333 -12.5 -104.5c0 -72.6667 15.6667 -128.5 47 -167.5c31.3333 -39 73 -58.5 125 -58.5c38 0 70.6667 6.5 98 19.5s47 25.5 59 37.5l41 -111
c-15.3333 -18 -46.1667 -33.3333 -92.5 -46s-86.5 -19 -120.5 -19zM245 710l-64 45l115 130h92l113 -129l-64 -45l-96 96z" />
    <glyph glyph-name="ccircumflex" unicode="&#x109;" horiz-adv-x="463" 
d="M257 -11c-29.3333 0 -57.5 5 -84.5 15s-50.8333 25.3333 -71.5 46c-20.6667 20.6667 -37.1667 46.6667 -49.5 78c-12.3333 31.3333 -18.5 68.3333 -18.5 111c0 60 12 110.667 36 152c24.6667 40.6667 54.3333 68 89 82s66.6667 21 96 21c50.6667 0 91.3333 -12 122 -36
c30.6667 -24 53 -49.6667 67 -77l-92 -62c-10 17.3333 -22.5 33.5 -37.5 48.5s-34.5 22.5 -58.5 22.5c-26.6667 0 -49.8333 -11.8333 -69.5 -35.5c-19.6667 -23.6667 -29.5 -60.5 -29.5 -110.5c0 -48 10 -84.6667 30 -110c20 -25.3333 49 -38 87 -38
c34 0 61.1667 5.16666 81.5 15.5s35.8333 20.8333 46.5 31.5l36 -102c-18 -13.3333 -42.5 -25.3333 -73.5 -36s-66.5 -16 -106.5 -16zM151 544l-64 45l115 130h92l113 -129l-64 -45l-96 96z" />
    <glyph glyph-name="Cdotaccent" unicode="&#x10a;" horiz-adv-x="571" 
d="M330 -14c-42 0 -80.5 7.33333 -115.5 22s-65.3333 36.5 -91 65.5c-25.6667 29 -45.5 65 -59.5 108s-21 92.8333 -21 149.5c0 60 8.16666 111.833 24.5 155.5c16.3333 43.6667 37.8333 80 64.5 109c26.6667 29 57.1667 50.5 91.5 64.5c34.3333 14 69.5 21 105.5 21
c45.3333 0 85 -8.33331 119 -25s58.6667 -34.3334 74 -53c15.3333 -18.6667 25 -32 29 -40l-94 -79c-3.33334 6 -8.16669 13.5 -14.5 22.5c-6.33334 9 -14.6667 17.6667 -25 26c-10.3333 8.33331 -22.6667 15.5 -37 21.5c-14.3333 6 -30.8333 9 -49.5 9
c-21.3333 0 -41.5 -4.5 -60.5 -13.5s-35.8333 -23 -50.5 -42s-26.1667 -43 -34.5 -72s-12.5 -63.8333 -12.5 -104.5c0 -72.6667 15.6667 -128.5 47 -167.5c31.3333 -39 73 -58.5 125 -58.5c38 0 70.6667 6.5 98 19.5s47 25.5 59 37.5l41 -111
c-15.3333 -18 -46.1667 -33.3333 -92.5 -46s-86.5 -19 -120.5 -19zM335 720c-20 0 -36.6667 7.66669 -50 23s-20 33.3333 -20 54s6.66669 38.6667 20 54s30 23 50 23c20.6667 0 37.6667 -7.66669 51 -23c13.3333 -15.3333 20 -33.3333 20 -54s-6.66666 -38.6667 -20 -54
s-30.3333 -23 -51 -23z" />
    <glyph glyph-name="cdotaccent" unicode="&#x10b;" horiz-adv-x="463" 
d="M257 -11c-29.3333 0 -57.5 5 -84.5 15s-50.8333 25.3333 -71.5 46c-20.6667 20.6667 -37.1667 46.6667 -49.5 78c-12.3333 31.3333 -18.5 68.3333 -18.5 111c0 60 12 110.667 36 152c24.6667 40.6667 54.3333 68 89 82s66.6667 21 96 21c50.6667 0 91.3333 -12 122 -36
c30.6667 -24 53 -49.6667 67 -77l-92 -62c-10 17.3333 -22.5 33.5 -37.5 48.5s-34.5 22.5 -58.5 22.5c-26.6667 0 -49.8333 -11.8333 -69.5 -35.5c-19.6667 -23.6667 -29.5 -60.5 -29.5 -110.5c0 -48 10 -84.6667 30 -110c20 -25.3333 49 -38 87 -38
c34 0 61.1667 5.16666 81.5 15.5s35.8333 20.8333 46.5 31.5l36 -102c-18 -13.3333 -42.5 -25.3333 -73.5 -36s-66.5 -16 -106.5 -16zM259 554c-20 0 -36.6667 7.66669 -50 23s-20 33.3333 -20 54s6.66667 38.6667 20 54s30 23 50 23c20.6667 0 37.6667 -7.66669 51 -23
c13.3333 -15.3333 20 -33.3333 20 -54s-6.66666 -38.6667 -20 -54s-30.3333 -23 -51 -23z" />
    <glyph glyph-name="Ccaron" unicode="&#x10c;" horiz-adv-x="571" 
d="M330 -14c-42 0 -80.5 7.33333 -115.5 22s-65.3333 36.5 -91 65.5c-25.6667 29 -45.5 65 -59.5 108s-21 92.8333 -21 149.5c0 60 8.16666 111.833 24.5 155.5c16.3333 43.6667 37.8333 80 64.5 109c26.6667 29 57.1667 50.5 91.5 64.5c34.3333 14 69.5 21 105.5 21
c45.3333 0 85 -8.33331 119 -25s58.6667 -34.3334 74 -53c15.3333 -18.6667 25 -32 29 -40l-94 -79c-3.33334 6 -8.16669 13.5 -14.5 22.5c-6.33334 9 -14.6667 17.6667 -25 26c-10.3333 8.33331 -22.6667 15.5 -37 21.5c-14.3333 6 -30.8333 9 -49.5 9
c-21.3333 0 -41.5 -4.5 -60.5 -13.5s-35.8333 -23 -50.5 -42s-26.1667 -43 -34.5 -72s-12.5 -63.8333 -12.5 -104.5c0 -72.6667 15.6667 -128.5 47 -167.5c31.3333 -39 73 -58.5 125 -58.5c38 0 70.6667 6.5 98 19.5s47 25.5 59 37.5l41 -111
c-15.3333 -18 -46.1667 -33.3333 -92.5 -46s-86.5 -19 -120.5 -19zM283 710l-115 126l68 48l92 -95l96 95l66 -41l-115 -133h-92z" />
    <glyph glyph-name="ccaron" unicode="&#x10d;" horiz-adv-x="463" 
d="M257 -11c-29.3333 0 -57.5 5 -84.5 15s-50.8333 25.3333 -71.5 46c-20.6667 20.6667 -37.1667 46.6667 -49.5 78c-12.3333 31.3333 -18.5 68.3333 -18.5 111c0 60 12 110.667 36 152c24.6667 40.6667 54.3333 68 89 82s66.6667 21 96 21c50.6667 0 91.3333 -12 122 -36
c30.6667 -24 53 -49.6667 67 -77l-92 -62c-10 17.3333 -22.5 33.5 -37.5 48.5s-34.5 22.5 -58.5 22.5c-26.6667 0 -49.8333 -11.8333 -69.5 -35.5c-19.6667 -23.6667 -29.5 -60.5 -29.5 -110.5c0 -48 10 -84.6667 30 -110c20 -25.3333 49 -38 87 -38
c34 0 61.1667 5.16666 81.5 15.5s35.8333 20.8333 46.5 31.5l36 -102c-18 -13.3333 -42.5 -25.3333 -73.5 -36s-66.5 -16 -106.5 -16zM210 544l-115 126l68 48l92 -95l96 95l66 -41l-115 -133h-92z" />
    <glyph glyph-name="Dcaron" unicode="&#x10e;" horiz-adv-x="628" 
d="M73 0v667h188c24 0 50.6667 -2 80 -6s57.3333 -12 84 -24c42 -20.6667 76 -51.3334 102 -92c26.6667 -40 43.3334 -79 50 -117c6.66669 -44.6667 10 -75 10 -91c0 -58 -11.5 -111.833 -34.5 -161.5s-46.6667 -84.5 -71 -104.5s-43.5 -32.3333 -57.5 -37
c-45.3333 -22.6667 -98 -34 -158 -34h-193zM201 120h52c46.6667 0 84.6667 8.33333 114 25c30.6667 16.6667 53.3333 42.1667 68 76.5c14.6667 34.3333 22 70.8333 22 109.5c0 38 -6.66666 73.8333 -20 107.5s-34 59.8333 -62 78.5c-14.6667 10 -32.8333 17.5 -54.5 22.5
c-21.6667 5 -43.1667 7.5 -64.5 7.5h-55v-427zM227 710l-115 126l68 48l92 -95l96 95l66 -41l-115 -133h-92z" />
    <glyph glyph-name="dcaron" unicode="&#x10f;" horiz-adv-x="569" 
d="M238 -11c-33.3333 0 -62.6667 7 -88 21s-46.6667 32.6667 -64 56c-17.3333 23.3333 -30.5 50.3333 -39.5 81c-9 30.6667 -13.5 62.6667 -13.5 96c0 51.3333 10.3333 96.3333 31 135c15.3333 31.3333 36.5 55.8333 63.5 73.5s52.6667 29.3333 77 35
c24.3333 5.66666 43.5 8.16666 57.5 7.5c23.3333 0 50.6667 -4.66666 82 -14v187h123v-667h-113l-5 37c-11.3333 -12.6667 -26.3333 -23.8333 -45 -33.5s-40.6667 -14.5 -66 -14.5zM263 95c15.3333 0 31 4.16666 47 12.5s27.3333 18.1667 34 29.5v238
c-26 9.33334 -48.3333 14 -67 14c-34.6667 0 -62.5 -11.1667 -83.5 -33.5s-33.1667 -44.1667 -36.5 -65.5c-3.33333 -21.3333 -4.33333 -36 -3 -44c0 -20 2.16667 -39.1667 6.5 -57.5s11 -34.3333 20 -48c9 -13.6667 20.3333 -24.6667 34 -33s29.8333 -12.5 48.5 -12.5z
M522 497v170h107l-34 -170h-73z" />
    <glyph glyph-name="Dcroat" unicode="&#x110;" horiz-adv-x="628" 
d="M73 0v291h-73v105h73v271h188c24 0 50.6667 -2 80 -6s57.3333 -12 84 -24c42 -20.6667 76 -51.3334 102 -92c26.6667 -40 43.3334 -79 50 -117c6.66669 -44.6667 10 -75 10 -91c0 -58 -11.5 -111.833 -34.5 -161.5s-46.6667 -84.5 -71 -104.5s-43.5 -32.3333 -57.5 -37
c-45.3333 -22.6667 -98 -34 -158 -34h-193zM201 120h52c46.6667 0 84.6667 8.33333 114 25c30.6667 16.6667 53.3333 42.1667 68 76.5c14.6667 34.3333 22 70.8333 22 109.5c0 38 -6.66666 73.8333 -20 107.5s-34 59.8333 -62 78.5c-14.6667 10 -32.8333 17.5 -54.5 22.5
c-21.6667 5 -43.1667 7.5 -64.5 7.5h-55v-151h147v-105h-147v-171z" />
    <glyph glyph-name="dcroat" unicode="&#x111;" horiz-adv-x="529" 
d="M238 -11c-33.3333 0 -62.6667 7 -88 21s-46.6667 32.6667 -64 56c-17.3333 23.3333 -30.5 50.3333 -39.5 81c-9 30.6667 -13.5 62.6667 -13.5 96c0 51.3333 10.3333 96.3333 31 135c15.3333 31.3333 36.5 55.8333 63.5 73.5s52.6667 29.3333 77 35
c24.3333 5.66666 43.5 8.16666 57.5 7.5c23.3333 0 50.6667 -4.66666 82 -14v52h-116v83h116v52h123v-52h59v-83h-59v-532h-113l-5 37c-11.3333 -12.6667 -26.3333 -23.8333 -45 -33.5s-40.6667 -14.5 -66 -14.5zM263 95c15.3333 0 31 4.16666 47 12.5
s27.3333 18.1667 34 29.5v238c-26 9.33334 -48.3333 14 -67 14c-34.6667 0 -62.5 -11.1667 -83.5 -33.5s-33.1667 -44.1667 -36.5 -65.5c-3.33333 -21.3333 -4.33333 -36 -3 -44c0 -20 2.16667 -39.1667 6.5 -57.5s11 -34.3333 20 -48c9 -13.6667 20.3333 -24.6667 34 -33
s29.8333 -12.5 48.5 -12.5z" />
    <glyph glyph-name="Emacron" unicode="&#x112;" horiz-adv-x="557" 
d="M73 0v667h435v-121h-307v-152h254v-121h-254v-152h329v-121h-457zM116 744v89h345v-89h-345z" />
    <glyph glyph-name="emacron" unicode="&#x113;" horiz-adv-x="499" 
d="M267 -11c-31.3333 0 -61.1667 5 -89.5 15c-28.3333 10 -53.1667 25.5 -74.5 46.5s-38.3333 47.1667 -51 78.5c-12.6667 31.3333 -19 68.6667 -19 112c0 40.6667 5.83333 76.6667 17.5 108c11.6667 31.3333 27.6667 57.6667 48 79c20.3333 21.3333 44 37.6667 71 49
c27 11.3333 55.8333 17 86.5 17c54 0 98 -15 132 -45c34.6667 -30 57 -65.3333 67 -106c10 -40 15 -77 15 -111v-22h-312c2.66667 -40.6667 15.3333 -70 38 -88c22.6667 -18 52 -27 88 -27c32 0 60 5 84 15s40.3333 19.3333 49 28l33 -101
c-14.6667 -10.6667 -28.6667 -18.3333 -42 -23c-8 -4 -27.6667 -9 -59 -15c-30.6667 -6.66667 -58 -10 -82 -10zM161 299h183c-2 27.3333 -9.83334 48.3333 -23.5 63s-26.8333 23.8333 -39.5 27.5c-12.6667 3.66666 -21 5.5 -25 5.5c-21.3333 0 -41.6667 -8 -61 -24
c-19.3333 -16 -30.6667 -40 -34 -72zM88 578v89h345v-89h-345z" />
    <glyph glyph-name="Ebreve" unicode="&#x114;" horiz-adv-x="557" 
d="M73 0v667h435v-121h-307v-152h254v-121h-254v-152h329v-121h-457zM296 703c-24.6667 0 -47.1667 3.83331 -67.5 11.5c-20.3333 7.66669 -37.5 18.1667 -51.5 31.5s-24.3333 28.6666 -31 46c-6.66667 17.3333 -10 34.6666 -10 52h98c4 -18.6667 11 -33.5 21 -44.5
s23.6667 -16.5 41 -16.5s31.3333 5.5 42 16.5c10.6667 11 18 25.8333 22 44.5h95c-0.666656 -22.6667 -5.66666 -42.6667 -15 -60s-21.5 -32 -36.5 -44s-31.8333 -21.1667 -50.5 -27.5c-18.6667 -6.33331 -37.6667 -9.5 -57 -9.5z" />
    <glyph glyph-name="ebreve" unicode="&#x115;" horiz-adv-x="499" 
d="M267 -11c-31.3333 0 -61.1667 5 -89.5 15c-28.3333 10 -53.1667 25.5 -74.5 46.5s-38.3333 47.1667 -51 78.5c-12.6667 31.3333 -19 68.6667 -19 112c0 40.6667 5.83333 76.6667 17.5 108c11.6667 31.3333 27.6667 57.6667 48 79c20.3333 21.3333 44 37.6667 71 49
c27 11.3333 55.8333 17 86.5 17c54 0 98 -15 132 -45c34.6667 -30 57 -65.3333 67 -106c10 -40 15 -77 15 -111v-22h-312c2.66667 -40.6667 15.3333 -70 38 -88c22.6667 -18 52 -27 88 -27c32 0 60 5 84 15s40.3333 19.3333 49 28l33 -101
c-14.6667 -10.6667 -28.6667 -18.3333 -42 -23c-8 -4 -27.6667 -9 -59 -15c-30.6667 -6.66667 -58 -10 -82 -10zM161 299h183c-2 27.3333 -9.83334 48.3333 -23.5 63s-26.8333 23.8333 -39.5 27.5c-12.6667 3.66666 -21 5.5 -25 5.5c-21.3333 0 -41.6667 -8 -61 -24
c-19.3333 -16 -30.6667 -40 -34 -72zM255 539h-1.52588e-05c-24.6667 0 -47.1667 3.83331 -67.5 11.5c-20.3333 7.66669 -37.5 18.1667 -51.5 31.5s-24.3333 28.6666 -31 46c-6.66667 17.3333 -10 34.6666 -10 52h98c4 -18.6667 11 -33.5 21 -44.5s23.6667 -16.5 41 -16.5
s31.3333 5.5 42 16.5c10.6667 11 18 25.8333 22 44.5h95c-0.666656 -22.6667 -5.66666 -42.6667 -15 -60s-21.5 -32 -36.5 -44s-31.8333 -21.1667 -50.5 -27.5c-18.6667 -6.33331 -37.6667 -9.5 -57 -9.5z" />
    <glyph glyph-name="Edotaccent" unicode="&#x116;" horiz-adv-x="557" 
d="M73 0v667h435v-121h-307v-152h254v-121h-254v-152h329v-121h-457zM296 721c-20 0 -36.6667 7.66669 -50 23s-20 33.3333 -20 54s6.66667 38.6667 20 54s30 23 50 23c20.6667 0 37.6667 -7.66669 51 -23c13.3333 -15.3333 20 -33.3333 20 -54s-6.66666 -38.6667 -20 -54
s-30.3333 -23 -51 -23z" />
    <glyph glyph-name="edotaccent" unicode="&#x117;" horiz-adv-x="499" 
d="M267 -11c-31.3333 0 -61.1667 5 -89.5 15c-28.3333 10 -53.1667 25.5 -74.5 46.5s-38.3333 47.1667 -51 78.5c-12.6667 31.3333 -19 68.6667 -19 112c0 40.6667 5.83333 76.6667 17.5 108c11.6667 31.3333 27.6667 57.6667 48 79c20.3333 21.3333 44 37.6667 71 49
c27 11.3333 55.8333 17 86.5 17c54 0 98 -15 132 -45c34.6667 -30 57 -65.3333 67 -106c10 -40 15 -77 15 -111v-22h-312c2.66667 -40.6667 15.3333 -70 38 -88c22.6667 -18 52 -27 88 -27c32 0 60 5 84 15s40.3333 19.3333 49 28l33 -101
c-14.6667 -10.6667 -28.6667 -18.3333 -42 -23c-8 -4 -27.6667 -9 -59 -15c-30.6667 -6.66667 -58 -10 -82 -10zM161 299h183c-2 27.3333 -9.83334 48.3333 -23.5 63s-26.8333 23.8333 -39.5 27.5c-12.6667 3.66666 -21 5.5 -25 5.5c-21.3333 0 -41.6667 -8 -61 -24
c-19.3333 -16 -30.6667 -40 -34 -72zM263 554c-20 0 -36.6667 7.66669 -50 23s-20 33.3333 -20 54s6.66667 38.6667 20 54s30 23 50 23c20.6667 0 37.6667 -7.66669 51 -23c13.3333 -15.3333 20 -33.3333 20 -54s-6.66666 -38.6667 -20 -54s-30.3333 -23 -51 -23z" />
    <glyph glyph-name="Eogonek" unicode="&#x118;" horiz-adv-x="557" 
d="M73 0v667h435v-121h-307v-152h254v-121h-254v-152h329v-121h-457zM451 -198c-34 0 -59.3333 8.16667 -76 24.5s-25 37.1667 -25 62.5c0 18 3.83334 34.5 11.5 49.5s17.1667 28.3333 28.5 40c11.3333 11.6667 22.6667 21.1667 34 28.5
c11.3333 7.33333 19.6667 12.3333 25 15l72 -12c-19.3333 -13.3333 -36.8333 -28 -52.5 -44s-23.5 -32 -23.5 -48c0 -8.66666 2.16669 -15.6667 6.5 -21s11.5 -8 21.5 -8c12 0 23 3 33 9l23 -75c-12.6667 -7.33333 -25.5 -12.6667 -38.5 -16
c-13 -3.33333 -26.1667 -5 -39.5 -5z" />
    <glyph glyph-name="eogonek" unicode="&#x119;" horiz-adv-x="499" 
d="M267 -11c-31.3333 0 -61.1667 5 -89.5 15c-28.3333 10 -53.1667 25.5 -74.5 46.5s-38.3333 47.1667 -51 78.5c-12.6667 31.3333 -19 68.6667 -19 112c0 40.6667 5.83333 76.6667 17.5 108c11.6667 31.3333 27.6667 57.6667 48 79c20.3333 21.3333 44 37.6667 71 49
c27 11.3333 55.8333 17 86.5 17c54 0 98 -15 132 -45c34.6667 -30 57 -65.3333 67 -106c10 -40 15 -77 15 -111v-22h-312c2.66667 -40.6667 15.3333 -70 38 -88c22.6667 -18 52 -27 88 -27c32 0 60 5 84 15s40.3333 19.3333 49 28l33 -101
c-14.6667 -10.6667 -28.6667 -18.3333 -42 -23c-8 -4 -27.6667 -9 -59 -15c-30.6667 -6.66667 -58 -10 -82 -10zM161 299h183c-2 27.3333 -9.83334 48.3333 -23.5 63s-26.8333 23.8333 -39.5 27.5c-12.6667 3.66666 -21 5.5 -25 5.5c-21.3333 0 -41.6667 -8 -61 -24
c-19.3333 -16 -30.6667 -40 -34 -72zM324 -198c-34 0 -59.3333 8.16667 -76 24.5s-25 37.1667 -25 62.5c0 18 3.83334 34.5 11.5 49.5s17.1667 28.3333 28.5 40c11.3333 11.6667 22.6667 21.1667 34 28.5c11.3333 7.33333 19.6667 12.3333 25 15l72 -12
c-19.3333 -13.3333 -36.8333 -28 -52.5 -44s-23.5 -32 -23.5 -48c0 -8.66666 2.16669 -15.6667 6.5 -21s11.5 -8 21.5 -8c12 0 23 3 33 9l23 -75c-12.6667 -7.33333 -25.5 -12.6667 -38.5 -16c-13 -3.33333 -26.1667 -5 -39.5 -5z" />
    <glyph glyph-name="Ecaron" unicode="&#x11a;" horiz-adv-x="557" 
d="M73 0v667h435v-121h-307v-152h254v-121h-254v-152h329v-121h-457zM247 710l-115 126l68 48l92 -95l96 95l66 -41l-115 -133h-92z" />
    <glyph glyph-name="ecaron" unicode="&#x11b;" horiz-adv-x="499" 
d="M267 -11c-31.3333 0 -61.1667 5 -89.5 15c-28.3333 10 -53.1667 25.5 -74.5 46.5s-38.3333 47.1667 -51 78.5c-12.6667 31.3333 -19 68.6667 -19 112c0 40.6667 5.83333 76.6667 17.5 108c11.6667 31.3333 27.6667 57.6667 48 79c20.3333 21.3333 44 37.6667 71 49
c27 11.3333 55.8333 17 86.5 17c54 0 98 -15 132 -45c34.6667 -30 57 -65.3333 67 -106c10 -40 15 -77 15 -111v-22h-312c2.66667 -40.6667 15.3333 -70 38 -88c22.6667 -18 52 -27 88 -27c32 0 60 5 84 15s40.3333 19.3333 49 28l33 -101
c-14.6667 -10.6667 -28.6667 -18.3333 -42 -23c-8 -4 -27.6667 -9 -59 -15c-30.6667 -6.66667 -58 -10 -82 -10zM161 299h183c-2 27.3333 -9.83334 48.3333 -23.5 63s-26.8333 23.8333 -39.5 27.5c-12.6667 3.66666 -21 5.5 -25 5.5c-21.3333 0 -41.6667 -8 -61 -24
c-19.3333 -16 -30.6667 -40 -34 -72zM211 544l-115 126l68 48l92 -95l96 95l66 -41l-115 -133h-92z" />
    <glyph glyph-name="Gcircumflex" unicode="&#x11c;" horiz-adv-x="608" 
d="M338 -14c-43.3333 0 -83.1667 7.66667 -119.5 23s-67.5 37.8333 -93.5 67.5c-26 29.6667 -46.1667 65.8333 -60.5 108.5s-21.5 91.3333 -21.5 146c0 60 7.66666 111.833 23 155.5c15.3333 43.6667 36 80 62 109s55.8333 50.5 89.5 64.5s69.1667 21 106.5 21
c58.6667 0 106 -10.8333 142 -32.5s63.3333 -49.5 82 -83.5l-88 -81c-12.6667 22 -30.6667 40.6667 -54 56s-50.3333 23 -81 23c-35.3333 0.666687 -65.3333 -12.3333 -90 -39c-25.3333 -26 -42.3333 -57.3333 -51 -94c-4.66667 -18.6667 -7.83334 -36.1667 -9.5 -52.5
c-1.66667 -16.3333 -2.16667 -31.8333 -1.5 -46.5c0 -50.6667 9 -95 27 -133c10 -21.3333 21.5 -38.1667 34.5 -50.5c13 -12.3333 26.3333 -21.6667 40 -28s26.6667 -10.3333 39 -12s22.8333 -2.5 31.5 -2.5c26.6667 0 48.1667 1.5 64.5 4.5s25.8333 5.16666 28.5 6.5v120
h-104v115h224v-321c-16.6667 -10.6667 -44 -20.6667 -82 -30s-84 -14 -138 -14zM220 710l-64 45l115 130h92l113 -129l-64 -45l-96 96z" />
    <glyph glyph-name="gcircumflex" unicode="&#x11d;" horiz-adv-x="526" 
d="M246 -198c-21.3333 0 -41.8333 1.16667 -61.5 3.5s-38.8333 5.83333 -57.5 10.5c-34.6667 8.66667 -58 16 -70 22l26 109c16.6667 -9.33333 38.6667 -18 66 -26c27.3333 -8 56.3333 -12 87 -12c36 0 62.3333 6.66666 79 20s25 30.6667 25 52v28
c-23.3333 -6 -46 -9 -68 -9c-39.3333 0 -73.8333 6.5 -103.5 19.5s-54.5 30.6667 -74.5 53s-35.1667 48.5 -45.5 78.5c-10.3333 30 -15.5 62 -15.5 96c0 52.6667 12 98.6667 36 138c24.6667 40 56.8333 68.1667 96.5 84.5s81.8333 24.5 126.5 24.5
c34.6667 0 67.6667 -1.83334 99 -5.5s56 -7.16666 74 -10.5v-466c0 -68.6667 -18.8333 -120.833 -56.5 -156.5s-91.8333 -53.5 -162.5 -53.5zM290 107c12 0 21.8333 1.33334 29.5 4s14.5 5.66666 20.5 9v266c-17.3333 2.66666 -33 4 -47 4c-39.3333 0 -70.3333 -10 -93 -30
c-14 -12.6667 -24.8333 -27 -32.5 -43s-11.8333 -30 -12.5 -42c-0.666672 -12 -1 -21.3333 -1 -28c0 -42 11.1667 -75.8333 33.5 -101.5c22.3333 -25.6667 56.5 -38.5 102.5 -38.5zM179 544l-64 45l115 130h92l113 -129l-64 -45l-96 96z" />
    <glyph glyph-name="Gbreve" unicode="&#x11e;" horiz-adv-x="608" 
d="M338 -14c-43.3333 0 -83.1667 7.66667 -119.5 23s-67.5 37.8333 -93.5 67.5c-26 29.6667 -46.1667 65.8333 -60.5 108.5s-21.5 91.3333 -21.5 146c0 60 7.66666 111.833 23 155.5c15.3333 43.6667 36 80 62 109s55.8333 50.5 89.5 64.5s69.1667 21 106.5 21
c58.6667 0 106 -10.8333 142 -32.5s63.3333 -49.5 82 -83.5l-88 -81c-12.6667 22 -30.6667 40.6667 -54 56s-50.3333 23 -81 23c-35.3333 0.666687 -65.3333 -12.3333 -90 -39c-25.3333 -26 -42.3333 -57.3333 -51 -94c-4.66667 -18.6667 -7.83334 -36.1667 -9.5 -52.5
c-1.66667 -16.3333 -2.16667 -31.8333 -1.5 -46.5c0 -50.6667 9 -95 27 -133c10 -21.3333 21.5 -38.1667 34.5 -50.5c13 -12.3333 26.3333 -21.6667 40 -28s26.6667 -10.3333 39 -12s22.8333 -2.5 31.5 -2.5c26.6667 0 48.1667 1.5 64.5 4.5s25.8333 5.16666 28.5 6.5v120
h-104v115h224v-321c-16.6667 -10.6667 -44 -20.6667 -82 -30s-84 -14 -138 -14zM327 705c-24.6667 0 -47.1667 3.83331 -67.5 11.5c-20.3333 7.66669 -37.5 18.1667 -51.5 31.5s-24.3333 28.6666 -31 46c-6.66667 17.3333 -10 34.6666 -10 52h98
c4 -18.6667 11 -33.5 21 -44.5s23.6667 -16.5 41 -16.5s31.3333 5.5 42 16.5c10.6667 11 18 25.8333 22 44.5h95c-0.666656 -22.6667 -5.66666 -42.6667 -15 -60s-21.5 -32 -36.5 -44s-31.8333 -21.1667 -50.5 -27.5c-18.6667 -6.33331 -37.6667 -9.5 -57 -9.5z" />
    <glyph glyph-name="gbreve" unicode="&#x11f;" horiz-adv-x="526" 
d="M246 -198c-21.3333 0 -41.8333 1.16667 -61.5 3.5s-38.8333 5.83333 -57.5 10.5c-34.6667 8.66667 -58 16 -70 22l26 109c16.6667 -9.33333 38.6667 -18 66 -26c27.3333 -8 56.3333 -12 87 -12c36 0 62.3333 6.66666 79 20s25 30.6667 25 52v28
c-23.3333 -6 -46 -9 -68 -9c-39.3333 0 -73.8333 6.5 -103.5 19.5s-54.5 30.6667 -74.5 53s-35.1667 48.5 -45.5 78.5c-10.3333 30 -15.5 62 -15.5 96c0 52.6667 12 98.6667 36 138c24.6667 40 56.8333 68.1667 96.5 84.5s81.8333 24.5 126.5 24.5
c34.6667 0 67.6667 -1.83334 99 -5.5s56 -7.16666 74 -10.5v-466c0 -68.6667 -18.8333 -120.833 -56.5 -156.5s-91.8333 -53.5 -162.5 -53.5zM290 107c12 0 21.8333 1.33334 29.5 4s14.5 5.66666 20.5 9v266c-17.3333 2.66666 -33 4 -47 4c-39.3333 0 -70.3333 -10 -93 -30
c-14 -12.6667 -24.8333 -27 -32.5 -43s-11.8333 -30 -12.5 -42c-0.666672 -12 -1 -21.3333 -1 -28c0 -42 11.1667 -75.8333 33.5 -101.5c22.3333 -25.6667 56.5 -38.5 102.5 -38.5zM291 542c-24.6667 0 -47.1667 3.83331 -67.5 11.5
c-20.3333 7.66669 -37.5 18.1667 -51.5 31.5s-24.3333 28.6666 -31 46c-6.66667 17.3333 -10 34.6666 -10 52h98c4 -18.6667 11 -33.5 21 -44.5s23.6667 -16.5 41 -16.5s31.3333 5.5 42 16.5c10.6667 11 18 25.8333 22 44.5h95
c-0.666656 -22.6667 -5.66666 -42.6667 -15 -60s-21.5 -32 -36.5 -44s-31.8333 -21.1667 -50.5 -27.5c-18.6667 -6.33331 -37.6667 -9.5 -57 -9.5z" />
    <glyph glyph-name="Gdotaccent" unicode="&#x120;" horiz-adv-x="608" 
d="M338 -14c-43.3333 0 -83.1667 7.66667 -119.5 23s-67.5 37.8333 -93.5 67.5c-26 29.6667 -46.1667 65.8333 -60.5 108.5s-21.5 91.3333 -21.5 146c0 60 7.66666 111.833 23 155.5c15.3333 43.6667 36 80 62 109s55.8333 50.5 89.5 64.5s69.1667 21 106.5 21
c58.6667 0 106 -10.8333 142 -32.5s63.3333 -49.5 82 -83.5l-88 -81c-12.6667 22 -30.6667 40.6667 -54 56s-50.3333 23 -81 23c-35.3333 0.666687 -65.3333 -12.3333 -90 -39c-25.3333 -26 -42.3333 -57.3333 -51 -94c-4.66667 -18.6667 -7.83334 -36.1667 -9.5 -52.5
c-1.66667 -16.3333 -2.16667 -31.8333 -1.5 -46.5c0 -50.6667 9 -95 27 -133c10 -21.3333 21.5 -38.1667 34.5 -50.5c13 -12.3333 26.3333 -21.6667 40 -28s26.6667 -10.3333 39 -12s22.8333 -2.5 31.5 -2.5c26.6667 0 48.1667 1.5 64.5 4.5s25.8333 5.16666 28.5 6.5v120
h-104v115h224v-321c-16.6667 -10.6667 -44 -20.6667 -82 -30s-84 -14 -138 -14zM328 720c-20 0 -36.6667 7.66669 -50 23s-20 33.3333 -20 54s6.66669 38.6667 20 54s30 23 50 23c20.6667 0 37.6667 -7.66669 51 -23c13.3333 -15.3333 20 -33.3333 20 -54
s-6.66666 -38.6667 -20 -54s-30.3333 -23 -51 -23z" />
    <glyph glyph-name="gdotaccent" unicode="&#x121;" horiz-adv-x="526" 
d="M246 -198c-21.3333 0 -41.8333 1.16667 -61.5 3.5s-38.8333 5.83333 -57.5 10.5c-34.6667 8.66667 -58 16 -70 22l26 109c16.6667 -9.33333 38.6667 -18 66 -26c27.3333 -8 56.3333 -12 87 -12c36 0 62.3333 6.66666 79 20s25 30.6667 25 52v28
c-23.3333 -6 -46 -9 -68 -9c-39.3333 0 -73.8333 6.5 -103.5 19.5s-54.5 30.6667 -74.5 53s-35.1667 48.5 -45.5 78.5c-10.3333 30 -15.5 62 -15.5 96c0 52.6667 12 98.6667 36 138c24.6667 40 56.8333 68.1667 96.5 84.5s81.8333 24.5 126.5 24.5
c34.6667 0 67.6667 -1.83334 99 -5.5s56 -7.16666 74 -10.5v-466c0 -68.6667 -18.8333 -120.833 -56.5 -156.5s-91.8333 -53.5 -162.5 -53.5zM290 107c12 0 21.8333 1.33334 29.5 4s14.5 5.66666 20.5 9v266c-17.3333 2.66666 -33 4 -47 4c-39.3333 0 -70.3333 -10 -93 -30
c-14 -12.6667 -24.8333 -27 -32.5 -43s-11.8333 -30 -12.5 -42c-0.666672 -12 -1 -21.3333 -1 -28c0 -42 11.1667 -75.8333 33.5 -101.5c22.3333 -25.6667 56.5 -38.5 102.5 -38.5zM284 554c-20 0 -36.6667 7.66669 -50 23s-20 33.3333 -20 54s6.66667 38.6667 20 54
s30 23 50 23c20.6667 0 37.6667 -7.66669 51 -23c13.3333 -15.3333 20 -33.3333 20 -54s-6.66666 -38.6667 -20 -54s-30.3333 -23 -51 -23z" />
    <glyph glyph-name="Gcommaaccent" unicode="&#x122;" horiz-adv-x="608" 
d="M338 -14c-43.3333 0 -83.1667 7.66667 -119.5 23s-67.5 37.8333 -93.5 67.5c-26 29.6667 -46.1667 65.8333 -60.5 108.5s-21.5 91.3333 -21.5 146c0 60 7.66666 111.833 23 155.5c15.3333 43.6667 36 80 62 109s55.8333 50.5 89.5 64.5s69.1667 21 106.5 21
c58.6667 0 106 -10.8333 142 -32.5s63.3333 -49.5 82 -83.5l-88 -81c-12.6667 22 -30.6667 40.6667 -54 56s-50.3333 23 -81 23c-35.3333 0.666687 -65.3333 -12.3333 -90 -39c-25.3333 -26 -42.3333 -57.3333 -51 -94c-4.66667 -18.6667 -7.83334 -36.1667 -9.5 -52.5
c-1.66667 -16.3333 -2.16667 -31.8333 -1.5 -46.5c0 -50.6667 9 -95 27 -133c10 -21.3333 21.5 -38.1667 34.5 -50.5c13 -12.3333 26.3333 -21.6667 40 -28s26.6667 -10.3333 39 -12s22.8333 -2.5 31.5 -2.5c26.6667 0 48.1667 1.5 64.5 4.5s25.8333 5.16666 28.5 6.5v120
h-104v115h224v-321c-16.6667 -10.6667 -44 -20.6667 -82 -30s-84 -14 -138 -14zM230 -181l59 137h110l-81 -137h-88z" />
    <glyph glyph-name="gcommaaccent" unicode="&#x123;" horiz-adv-x="526" 
d="M246 -198c-21.3333 0 -41.8333 1.16667 -61.5 3.5s-38.8333 5.83333 -57.5 10.5c-34.6667 8.66667 -58 16 -70 22l26 109c16.6667 -9.33333 38.6667 -18 66 -26c27.3333 -8 56.3333 -12 87 -12c36 0 62.3333 6.66666 79 20s25 30.6667 25 52v28
c-23.3333 -6 -46 -9 -68 -9c-39.3333 0 -73.8333 6.5 -103.5 19.5s-54.5 30.6667 -74.5 53s-35.1667 48.5 -45.5 78.5c-10.3333 30 -15.5 62 -15.5 96c0 52.6667 12 98.6667 36 138c24.6667 40 56.8333 68.1667 96.5 84.5s81.8333 24.5 126.5 24.5
c34.6667 0 67.6667 -1.83334 99 -5.5s56 -7.16666 74 -10.5v-466c0 -68.6667 -18.8333 -120.833 -56.5 -156.5s-91.8333 -53.5 -162.5 -53.5zM290 107c12 0 21.8333 1.33334 29.5 4s14.5 5.66666 20.5 9v266c-17.3333 2.66666 -33 4 -47 4c-39.3333 0 -70.3333 -10 -93 -30
c-14 -12.6667 -24.8333 -27 -32.5 -43s-11.8333 -30 -12.5 -42c-0.666672 -12 -1 -21.3333 -1 -28c0 -42 11.1667 -75.8333 33.5 -101.5c22.3333 -25.6667 56.5 -38.5 102.5 -38.5zM231 559l85 130h83l-59 -130h-109z" />
    <glyph glyph-name="Hcircumflex" unicode="&#x124;" horiz-adv-x="655" 
d="M73 0v667h128v-264h252v264h128v-667h-128v282h-252v-282h-128zM241 710l-64 45l115 130h92l113 -129l-64 -45l-96 96z" />
    <glyph glyph-name="hcircumflex" unicode="&#x125;" horiz-adv-x="548" 
d="M62 0v667h124v-217c15.3333 12 33.5 22.3333 54.5 31s46.5 13 76.5 13c46.6667 0.666656 83.8333 -11.6667 111.5 -37c27.6667 -25.3333 44.5 -54.3333 50.5 -87c6.66666 -31.3333 10 -59.3333 10 -84v-286h-124v277c0 40 -7.83334 68.8333 -23.5 86.5
s-33.5 26.5 -53.5 26.5s-38.1667 -4.5 -54.5 -13.5s-32.1667 -20.1667 -47.5 -33.5v-343h-124zM134 710l-64 45l115 130h92l113 -129l-64 -45l-96 96z" />
    <glyph glyph-name="Hbar" unicode="&#x126;" horiz-adv-x="655" 
d="M73 0v483h-66v97h66v87h128v-87h252v87h128v-87h66v-97h-66v-483h-128v282h-252v-282h-128zM201 403h252v80h-252v-80z" />
    <glyph glyph-name="hbar" unicode="&#x127;" horiz-adv-x="548" 
d="M62 0v534h-59v87h59v46h124v-46h159v-87h-159v-84c15.3333 12 33.5 22.3333 54.5 31s46.5 13 76.5 13c46.6667 0.666656 83.8333 -11.6667 111.5 -37c27.6667 -25.3333 44.5 -54.3333 50.5 -87c6.66666 -31.3333 10 -59.3333 10 -84v-286h-124v277
c0 40 -7.83334 68.8333 -23.5 86.5s-33.5 26.5 -53.5 26.5s-38.1667 -4.5 -54.5 -13.5s-32.1667 -20.1667 -47.5 -33.5v-343h-124z" />
    <glyph glyph-name="Itilde" unicode="&#x128;" horiz-adv-x="275" 
d="M73 0v667h128v-667h-128zM19 706l-68 38c12 34 28.5 61.3333 49.5 82s45.5 31 73.5 31c17.3333 0 41.6667 -9.66669 73 -29c26.6667 -18.6667 45.3333 -28 56 -28c6 0 14.6667 3.83331 26 11.5s22.3333 24.8334 33 51.5l69 -37c-9.33334 -34 -25.3333 -61.5 -48 -82.5
s-48.3333 -31.5 -77 -31.5c-18.6667 0 -43.3333 10 -74 30c-27.3333 18 -45.6667 27 -55 27c-7.33333 0 -16.1667 -3.83331 -26.5 -11.5s-20.8333 -24.8334 -31.5 -51.5z" />
    <glyph glyph-name="itilde" unicode="&#x129;" horiz-adv-x="247" 
d="M62 0v482h123v-482h-123zM9 543l-68 38c12 34 28.5 61.3333 49.5 82s45.5 31 73.5 31c17.3333 0 41.6667 -9.66669 73 -29c26.6667 -18.6667 45.3333 -28 56 -28c6 0 14.6667 3.83331 26 11.5s22.3333 24.8334 33 51.5l69 -37c-9.33334 -34 -25.3333 -61.5 -48 -82.5
s-48.3333 -31.5 -77 -31.5c-18.6667 0 -43.3333 10 -74 30c-27.3333 18 -45.6667 27 -55 27c-7.33333 0 -16.1667 -3.83331 -26.5 -11.5s-20.8333 -24.8334 -31.5 -51.5z" />
    <glyph glyph-name="Imacron" unicode="&#x12a;" horiz-adv-x="275" 
d="M73 0v667h128v-667h-128zM-27 744v89h345v-89h-345z" />
    <glyph glyph-name="imacron" unicode="&#x12b;" horiz-adv-x="247" 
d="M62 0v482h123v-482h-123zM-43 578v89h345v-89h-345z" />
    <glyph glyph-name="Ibreve" unicode="&#x12c;" horiz-adv-x="275" 
d="M73 0v667h128v-667h-128zM144 705c-24.6667 0 -47.1667 3.83331 -67.5 11.5c-20.3333 7.66669 -37.5 18.1667 -51.5 31.5s-24.3333 28.6666 -31 46c-6.66667 17.3333 -10 34.6666 -10 52h98c4 -18.6667 11 -33.5 21 -44.5s23.6667 -16.5 41 -16.5s31.3333 5.5 42 16.5
c10.6667 11 18 25.8333 22 44.5h95c-0.666656 -22.6667 -5.66666 -42.6667 -15 -60s-21.5 -32 -36.5 -44s-31.8333 -21.1667 -50.5 -27.5c-18.6667 -6.33331 -37.6667 -9.5 -57 -9.5z" />
    <glyph glyph-name="ibreve" unicode="&#x12d;" horiz-adv-x="247" 
d="M62 0v482h123v-482h-123zM133 539c-24.6667 0 -47.1667 3.83331 -67.5 11.5c-20.3333 7.66669 -37.5 18.1667 -51.5 31.5s-24.3333 28.6666 -31 46c-6.66667 17.3333 -10 34.6666 -10 52h98c4 -18.6667 11 -33.5 21 -44.5s23.6667 -16.5 41 -16.5s31.3333 5.5 42 16.5
c10.6667 11 18 25.8333 22 44.5h95c-0.666656 -22.6667 -5.66666 -42.6667 -15 -60s-21.5 -32 -36.5 -44s-31.8333 -21.1667 -50.5 -27.5c-18.6667 -6.33331 -37.6667 -9.5 -57 -9.5z" />
    <glyph glyph-name="Iogonek" unicode="&#x12e;" horiz-adv-x="275" 
d="M73 0v667h128v-667h-128zM137 -198c-34 0 -59.3333 8.16667 -76 24.5s-25 37.1667 -25 62.5c0 18 3.83334 34.5 11.5 49.5s17.1667 28.3333 28.5 40c11.3333 11.6667 22.6667 21.1667 34 28.5c11.3333 7.33333 19.6667 12.3333 25 15l72 -12
c-19.3333 -13.3333 -36.8333 -28 -52.5 -44s-23.5 -32 -23.5 -48c0 -8.66666 2.16667 -15.6667 6.5 -21s11.5 -8 21.5 -8c12 0 23 3 33 9l23 -75c-12.6667 -7.33333 -25.5 -12.6667 -38.5 -16c-13 -3.33333 -26.1667 -5 -39.5 -5z" />
    <glyph glyph-name="iogonek" unicode="&#x12f;" horiz-adv-x="247" 
d="M62 0v482h123v-482h-123zM124 527c-25.3333 0 -44.1667 7.33331 -56.5 22c-12.3333 14.6667 -18.5 31 -18.5 49c0 17.3333 6.16666 33.3333 18.5 48s31.1667 22 56.5 22c24.6667 0 43.1667 -7.33331 55.5 -22s18.5 -30.6667 18.5 -48c0 -18 -6.16667 -34.3333 -18.5 -49
s-30.8333 -22 -55.5 -22zM119 -198c-34 0 -59.3333 8.16667 -76 24.5s-25 37.1667 -25 62.5c0 18 3.83334 34.5 11.5 49.5s17.1667 28.3333 28.5 40c11.3333 11.6667 22.6667 21.1667 34 28.5c11.3333 7.33333 19.6667 12.3333 25 15l72 -12
c-19.3333 -13.3333 -36.8333 -28 -52.5 -44s-23.5 -32 -23.5 -48c0 -8.66666 2.16667 -15.6667 6.5 -21s11.5 -8 21.5 -8c12 0 23 3 33 9l23 -75c-12.6667 -7.33333 -25.5 -12.6667 -38.5 -16c-13 -3.33333 -26.1667 -5 -39.5 -5z" />
    <glyph glyph-name="Idotaccent" unicode="&#x130;" horiz-adv-x="275" 
d="M73 0v667h128v-667h-128zM144 723c-20 0 -36.6667 7.66669 -50 23s-20 33.3333 -20 54s6.66667 38.6667 20 54s30 23 50 23c20.6667 0 37.6667 -7.66669 51 -23c13.3333 -15.3333 20 -33.3333 20 -54s-6.66666 -38.6667 -20 -54s-30.3333 -23 -51 -23z" />
    <glyph glyph-name="dotlessi" unicode="&#x131;" horiz-adv-x="247" 
d="M62 0v482h123v-482h-123z" />
    <glyph glyph-name="Jcircumflex" unicode="&#x134;" horiz-adv-x="425" 
d="M171 -14c-35.3333 0 -66.3333 4.83333 -93 14.5c-26.6667 9.66667 -46 18.1667 -58 25.5l37 107c6 -7.33334 16.8333 -14 32.5 -20s28.6667 -9.66666 39 -11c10.3333 -1.33334 19.5 -2 27.5 -2c23.3333 0 41.8333 5.83334 55.5 17.5
c13.6667 11.6667 20.5 33.8333 20.5 66.5v483h128v-484c0 -66.6667 -15.8333 -116.167 -47.5 -148.5c-31.6667 -32.3333 -78.8333 -48.5 -141.5 -48.5zM197 710l-64 45l115 130h92l113 -129l-64 -45l-96 96z" />
    <glyph glyph-name="jcircumflex" unicode="&#x135;" horiz-adv-x="257" 
d="M51 -203l-55 97c28 18.6667 47.5 37.6667 58.5 57c11 19.3333 16.5 42 16.5 68v463h124v-463c0 -55.3333 -11.5 -100.333 -34.5 -135s-59.5 -63.6667 -109.5 -87zM36 544l-64 45l115 130h92l113 -129l-64 -45l-96 96z" />
    <glyph glyph-name="Kcommaaccent" unicode="&#x136;" horiz-adv-x="589" 
d="M73 0v667h128v-269h67c12.6667 0 23.6667 3.16666 33 9.5s19 21.1667 29 44.5l95 215h135l-105 -233c-9.33334 -20 -18.3333 -35.3333 -27 -46s-19.3333 -19.6667 -32 -27c15.3333 -8 27.8333 -18 37.5 -30s18.1667 -27.6667 25.5 -47l113 -284h-139l-82 208
c-10.6667 26.6667 -21 46.3333 -31 59s-24.6667 19 -44 19h-75v-286h-128zM197 -181l59 137h110l-81 -137h-88z" />
    <glyph glyph-name="kcommaaccent" unicode="&#x137;" horiz-adv-x="500" 
d="M62 0v667h124v-348h30c12 0 22.6667 3.5 32 10.5c9.33334 7 19 22.1667 29 45.5l44 107h134l-58 -135c-13.3333 -30 -32 -52.6667 -56 -68c14.6667 -7.33334 26.8333 -16.1667 36.5 -26.5c9.66666 -10.3333 17.8333 -23.5 24.5 -39.5l88 -213h-135l-55 130
c-12.6667 30 -23.8333 51 -33.5 63c-9.66666 12 -23.5 18 -41.5 18h-39v-211h-124zM155 -181l59 137h110l-81 -137h-88z" />
    <glyph glyph-name="kgreenlandic" unicode="&#x138;" horiz-adv-x="500" 
d="M62 0v482h124v-193h30c12 0 22.6667 3.5 32 10.5c9.33334 7 19 22.1667 29 45.5l56 137h134l-70 -165c-13.3333 -30 -32 -52.6667 -56 -68c14.6667 -7.33333 26.8333 -16.1667 36.5 -26.5c9.66666 -10.3333 17.8333 -23.5 24.5 -39.5l77 -183h-139l-40 100
c-17.3333 34.6667 -26 52.6667 -26 54c-4.66666 8.66667 -11.5 15.3333 -20.5 20c-9 4.66667 -18.5 7 -28.5 7h-39v-181h-124z" />
    <glyph glyph-name="Lacute" unicode="&#x139;" horiz-adv-x="531" 
d="M73 0v667h128v-546h310v-121h-438zM54 704l-33 54l191 141l59 -83z" />
    <glyph glyph-name="lacute" unicode="&#x13a;" horiz-adv-x="308" 
d="M190 -11c-27.3333 0 -49.5 4.16667 -66.5 12.5s-30.1667 19 -39.5 32s-15.3333 27.1667 -18 42.5c-2.66667 15.3333 -4 29 -4 41v550h124v-526c0 -17.3333 3.5 -29.1667 10.5 -35.5c7 -6.33334 16.8333 -9.5 29.5 -9.5s26 3 40 9l22 -94
c-2.66666 -2.66667 -14.6667 -7 -36 -13c-20 -6 -40.6667 -9 -62 -9zM37 704l-33 54l191 141l59 -83z" />
    <glyph glyph-name="Lcommaaccent" unicode="&#x13b;" horiz-adv-x="531" 
d="M73 0v667h128v-546h310v-121h-438zM187 -181l59 137h110l-81 -137h-88z" />
    <glyph glyph-name="lcommaaccent" unicode="&#x13c;" horiz-adv-x="308" 
d="M190 -11c-27.3333 0 -49.5 4.16667 -66.5 12.5s-30.1667 19 -39.5 32s-15.3333 27.1667 -18 42.5c-2.66667 15.3333 -4 29 -4 41v550h124v-526c0 -17.3333 3.5 -29.1667 10.5 -35.5c7 -6.33334 16.8333 -9.5 29.5 -9.5s26 3 40 9l22 -94
c-2.66666 -2.66667 -14.6667 -7 -36 -13c-20 -6 -40.6667 -9 -62 -9zM65 -181l59 137h110l-81 -137h-88z" />
    <glyph glyph-name="Lcaron" unicode="&#x13d;" horiz-adv-x="531" 
d="M73 0v667h128v-546h310v-121h-438zM274 497v170h107l-34 -170h-73z" />
    <glyph glyph-name="lcaron" unicode="&#x13e;" horiz-adv-x="299" 
d="M190 -11c-27.3333 0 -49.5 4.16667 -66.5 12.5s-30.1667 19 -39.5 32s-15.3333 27.1667 -18 42.5c-2.66667 15.3333 -4 29 -4 41v550h124v-526c0 -17.3333 3.5 -29.1667 10.5 -35.5c7 -6.33334 16.8333 -9.5 29.5 -9.5s26 3 40 9l22 -94
c-2.66666 -2.66667 -14.6667 -7 -36 -13c-20 -6 -40.6667 -9 -62 -9zM242 497v170h107l-34 -170h-73z" />
    <glyph glyph-name="Lslash" unicode="&#x141;" horiz-adv-x="531" 
d="M73 0v251l-55 -32l-48 86l103 62v300h128v-230l92 59l55 -84l-147 -92v-199h310v-121h-438z" />
    <glyph glyph-name="lslash" unicode="&#x142;" horiz-adv-x="331" 
d="M213 -11c-27.3333 0 -49.5 4.16667 -66.5 12.5s-30.1667 19 -39.5 32s-15.3333 27.1667 -18 42.5s-4 29 -4 41v136l-58 -33l-42 79l100 59v309h124v-244l85 54l44 -78l-129 -80v-178c0 -17.3333 3.5 -29.1667 10.5 -35.5c7 -6.33334 16.8333 -9.5 29.5 -9.5
c12.6667 0 26 3 40 9l22 -94c-2.66666 -2.66667 -14.6667 -7 -36 -13c-20 -6 -40.6667 -9 -62 -9z" />
    <glyph glyph-name="Nacute" unicode="&#x143;" horiz-adv-x="660" 
d="M73 0v667h131l257 -416v416h126v-667h-112l-275 441v-441h-127zM234 704l-33 54l191 141l59 -83z" />
    <glyph glyph-name="nacute" unicode="&#x144;" horiz-adv-x="552" 
d="M62 0v482h113l6 -38c19.3333 16 41.1667 28.3333 65.5 37s48.8333 13 73.5 13c38.6667 0 71.6667 -8.66666 99 -26s46.5 -42.8333 57.5 -76.5s16.5 -69.1667 16.5 -106.5v-285h-124v275c0 36.6667 -7.5 65 -22.5 85s-36.5 30 -64.5 30c-19.3333 0 -37.1667 -5 -53.5 -15
s-30.5 -21 -42.5 -33v-342h-124zM187 538l-33 54l191 141l59 -83z" />
    <glyph glyph-name="Ncommaaccent" unicode="&#x145;" horiz-adv-x="660" 
d="M73 0v667h131l257 -416v416h126v-667h-112l-275 441v-441h-127zM243 -181l59 137h110l-81 -137h-88z" />
    <glyph glyph-name="ncommaaccent" unicode="&#x146;" horiz-adv-x="552" 
d="M62 0v482h113l6 -38c19.3333 16 41.1667 28.3333 65.5 37s48.8333 13 73.5 13c38.6667 0 71.6667 -8.66666 99 -26s46.5 -42.8333 57.5 -76.5s16.5 -69.1667 16.5 -106.5v-285h-124v275c0 36.6667 -7.5 65 -22.5 85s-36.5 30 -64.5 30c-19.3333 0 -37.1667 -5 -53.5 -15
s-30.5 -21 -42.5 -33v-342h-124zM175 -181l59 137h110l-81 -137h-88z" />
    <glyph glyph-name="Ncaron" unicode="&#x147;" horiz-adv-x="660" 
d="M73 0v667h131l257 -416v416h126v-667h-112l-275 441v-441h-127zM292 708l-115 126l68 48l92 -95l96 95l66 -41l-115 -133h-92z" />
    <glyph glyph-name="ncaron" unicode="&#x148;" horiz-adv-x="552" 
d="M62 0v482h113l6 -38c19.3333 16 41.1667 28.3333 65.5 37s48.8333 13 73.5 13c38.6667 0 71.6667 -8.66666 99 -26s46.5 -42.8333 57.5 -76.5s16.5 -69.1667 16.5 -106.5v-285h-124v275c0 36.6667 -7.5 65 -22.5 85s-36.5 30 -64.5 30c-19.3333 0 -37.1667 -5 -53.5 -15
s-30.5 -21 -42.5 -33v-342h-124zM243 544l-115 126l68 48l92 -95l96 95l66 -41l-115 -133h-92z" />
    <glyph glyph-name="napostrophe" unicode="&#x149;" horiz-adv-x="552" 
d="M62 0v482h113l6 -38c19.3333 16 41.1667 28.3333 65.5 37s48.8333 13 73.5 13c38.6667 0 71.6667 -8.66666 99 -26s46.5 -42.8333 57.5 -76.5s16.5 -69.1667 16.5 -106.5v-285h-124v275c0 36.6667 -7.5 65 -22.5 85s-36.5 30 -64.5 30c-19.3333 0 -37.1667 -5 -53.5 -15
s-30.5 -21 -42.5 -33v-342h-124zM-7 436l-33 45c11.3333 9.33334 22 20.5 32 33.5s15.6667 25.1666 17 36.5c-16 1.33331 -30.1667 8.83331 -42.5 22.5s-18.5 30.5 -18.5 50.5c0 18.6667 6 35.1667 18 49.5s29.3333 21.5 52 21.5c23.3333 0 41.3333 -8.33331 54 -25
s19 -38 19 -64c0 -24.6667 -7.33333 -52.1667 -22 -82.5c-14.6667 -30.3333 -40 -59.5 -76 -87.5z" />
    <glyph glyph-name="Eng" unicode="&#x14a;" horiz-adv-x="660" 
d="M441 -203l-53 96c32.6667 21.3333 52.3333 39.3333 59 54c7.33334 16 13 39.6667 17 71l-264 423v-441h-127v667h131l257 -416v416h126v-648c0 -47.3333 -9 -86.5 -27 -117.5s-39.1667 -54.3333 -63.5 -70c-24.3333 -15.6667 -42.8333 -27.1667 -55.5 -34.5z" />
    <glyph glyph-name="eng" unicode="&#x14b;" horiz-adv-x="552" 
d="M348 -202l-54 94c28 17.3333 47.5 33.6667 58.5 49c11 15.3333 16.5 35 16.5 59v275c0 36.6667 -7.5 65 -22.5 85s-36.5 30 -64.5 30c-19.3333 0 -37.1667 -5 -53.5 -15s-30.5 -21 -42.5 -33v-342h-124v482h113l6 -38c19.3333 16 41.1667 28.3333 65.5 37
s48.8333 13 73.5 13c38.6667 0 71.6667 -8.66666 99 -26s46.5 -42.8333 57.5 -76.5s16.5 -69.1667 16.5 -106.5v-285c0 -47.3333 -12.3333 -86.3333 -37 -117s-60.6667 -59 -108 -85z" />
    <glyph glyph-name="Omacron" unicode="&#x14c;" horiz-adv-x="672" 
d="M334 -14c-48.6667 0 -91.1667 10.1667 -127.5 30.5c-36.3333 20.3333 -66.6667 46.8333 -91 79.5c-24.3333 32.6667 -42.5 69.8333 -54.5 111.5c-12 41.6667 -18 83.8333 -18 126.5s6 84.8333 18 126.5c12 41.6667 30.1667 78.8333 54.5 111.5
c24.3333 32.6667 54.6667 59 91 79c36.3333 20 78.8333 30 127.5 30c68 0 125.667 -20 173 -60c47.3333 -40 79.3333 -87.3333 96 -142c17.3333 -57.3333 26 -105.667 26 -145c0 -42.6667 -6.16669 -84.8333 -18.5 -126.5s-30.6666 -78.8333 -55 -111.5
c-24.3333 -32.6667 -55 -59.1667 -92 -79.5c-37 -20.3333 -80.1667 -30.5 -129.5 -30.5zM334 105c26.6667 0 51.3333 7.16666 74 21.5c22.6667 14.3333 39.6667 31.3333 51 51s19.6667 38.8333 25 57.5c10 36.6667 15 69.6667 15 99c0 44 -8 85 -24 123
c-15.3333 38 -36 65.1667 -62 81.5s-52.3333 24.5 -79 24.5c-26 0 -49.1667 -6.33331 -69.5 -19c-20.3333 -12.6667 -37.3333 -29.6667 -51 -51c-13.6667 -21.3333 -24 -45.8333 -31 -73.5s-10.5 -56.1667 -10.5 -85.5s3.5 -57.8333 10.5 -85.5
c7 -27.6667 17.3333 -52.1667 31 -73.5s30.6667 -38.3333 51 -51c20.3333 -12.6667 43.5 -19 69.5 -19zM164 744v89h345v-89h-345z" />
    <glyph glyph-name="omacron" unicode="&#x14d;" horiz-adv-x="528" 
d="M264 -11c-38.6667 0 -72.5 7.33333 -101.5 22s-53 34 -72 58s-33.3333 51.1667 -43 81.5c-9.66667 30.3333 -14.5 61.1667 -14.5 92.5c0 48.6667 10.6667 93.6667 32 135c22 41.3333 51 71 87 89s73.3333 27 112 27c54 0 99.6667 -14.6667 137 -44
c36.6667 -28.6667 61.3333 -62.6667 74 -102c13.3333 -41.3333 20 -76.3333 20 -105c0 -48.6667 -11 -94 -33 -136c-16.6667 -32.6667 -38.5 -58.3333 -65.5 -77c-27 -18.6667 -52.1667 -30.1667 -75.5 -34.5s-42.3333 -6.5 -57 -6.5zM264 96
c21.3333 -1.33334 39.3333 3.83333 54 15.5c14.6667 11.6667 26.1667 25.5 34.5 41.5s14.1667 32.5 17.5 49.5c3.33334 17 4.33334 30.5 3 40.5c0 36 -7.5 66.3333 -22.5 91s-31 40.1667 -48 46.5s-29.8333 9.16669 -38.5 8.5c-28 0 -51.3333 -10 -70 -30
c-15.3333 -16.6667 -25.6667 -35.1667 -31 -55.5c-5.33333 -20.3333 -8 -40.5 -8 -60.5c0 -20.6667 2.33333 -39.8333 7 -57.5c4.66667 -17.6667 11.5 -33.1667 20.5 -46.5c9 -13.3333 20.3333 -23.8333 34 -31.5s29.5 -11.5 47.5 -11.5zM91 578v89h345v-89h-345z" />
    <glyph glyph-name="Obreve" unicode="&#x14e;" horiz-adv-x="672" 
d="M334 -14c-48.6667 0 -91.1667 10.1667 -127.5 30.5c-36.3333 20.3333 -66.6667 46.8333 -91 79.5c-24.3333 32.6667 -42.5 69.8333 -54.5 111.5c-12 41.6667 -18 83.8333 -18 126.5s6 84.8333 18 126.5c12 41.6667 30.1667 78.8333 54.5 111.5
c24.3333 32.6667 54.6667 59 91 79c36.3333 20 78.8333 30 127.5 30c68 0 125.667 -20 173 -60c47.3333 -40 79.3333 -87.3333 96 -142c17.3333 -57.3333 26 -105.667 26 -145c0 -42.6667 -6.16669 -84.8333 -18.5 -126.5s-30.6666 -78.8333 -55 -111.5
c-24.3333 -32.6667 -55 -59.1667 -92 -79.5c-37 -20.3333 -80.1667 -30.5 -129.5 -30.5zM334 105c26.6667 0 51.3333 7.16666 74 21.5c22.6667 14.3333 39.6667 31.3333 51 51s19.6667 38.8333 25 57.5c10 36.6667 15 69.6667 15 99c0 44 -8 85 -24 123
c-15.3333 38 -36 65.1667 -62 81.5s-52.3333 24.5 -79 24.5c-26 0 -49.1667 -6.33331 -69.5 -19c-20.3333 -12.6667 -37.3333 -29.6667 -51 -51c-13.6667 -21.3333 -24 -45.8333 -31 -73.5s-10.5 -56.1667 -10.5 -85.5s3.5 -57.8333 10.5 -85.5
c7 -27.6667 17.3333 -52.1667 31 -73.5s30.6667 -38.3333 51 -51c20.3333 -12.6667 43.5 -19 69.5 -19zM337 707c-24.6667 0 -47.1667 3.83331 -67.5 11.5c-20.3333 7.66669 -37.5 18.1667 -51.5 31.5s-24.3333 28.6666 -31 46c-6.66667 17.3333 -10 34.6666 -10 52h98
c4 -18.6667 11 -33.5 21 -44.5s23.6667 -16.5 41 -16.5s31.3333 5.5 42 16.5c10.6667 11 18 25.8333 22 44.5h95c-0.666656 -22.6667 -5.66666 -42.6667 -15 -60s-21.5 -32 -36.5 -44s-31.8333 -21.1667 -50.5 -27.5c-18.6667 -6.33331 -37.6667 -9.5 -57 -9.5z" />
    <glyph glyph-name="obreve" unicode="&#x14f;" horiz-adv-x="528" 
d="M264 -11c-38.6667 0 -72.5 7.33333 -101.5 22s-53 34 -72 58s-33.3333 51.1667 -43 81.5c-9.66667 30.3333 -14.5 61.1667 -14.5 92.5c0 48.6667 10.6667 93.6667 32 135c22 41.3333 51 71 87 89s73.3333 27 112 27c54 0 99.6667 -14.6667 137 -44
c36.6667 -28.6667 61.3333 -62.6667 74 -102c13.3333 -41.3333 20 -76.3333 20 -105c0 -48.6667 -11 -94 -33 -136c-16.6667 -32.6667 -38.5 -58.3333 -65.5 -77c-27 -18.6667 -52.1667 -30.1667 -75.5 -34.5s-42.3333 -6.5 -57 -6.5zM264 96
c21.3333 -1.33334 39.3333 3.83333 54 15.5c14.6667 11.6667 26.1667 25.5 34.5 41.5s14.1667 32.5 17.5 49.5c3.33334 17 4.33334 30.5 3 40.5c0 36 -7.5 66.3333 -22.5 91s-31 40.1667 -48 46.5s-29.8333 9.16669 -38.5 8.5c-28 0 -51.3333 -10 -70 -30
c-15.3333 -16.6667 -25.6667 -35.1667 -31 -55.5c-5.33333 -20.3333 -8 -40.5 -8 -60.5c0 -20.6667 2.33333 -39.8333 7 -57.5c4.66667 -17.6667 11.5 -33.1667 20.5 -46.5c9 -13.3333 20.3333 -23.8333 34 -31.5s29.5 -11.5 47.5 -11.5zM264 539
c-24.6667 0 -47.1667 3.83331 -67.5 11.5c-20.3333 7.66669 -37.5 18.1667 -51.5 31.5s-24.3333 28.6666 -31 46c-6.66667 17.3333 -10 34.6666 -10 52h98c4 -18.6667 11 -33.5 21 -44.5s23.6667 -16.5 41 -16.5c17.3333 0 31.3333 5.5 42 16.5
c10.6667 11 18 25.8333 22 44.5h95c-0.666656 -22.6667 -5.66666 -42.6667 -15 -60s-21.5 -32 -36.5 -44s-31.8333 -21.1667 -50.5 -27.5c-18.6667 -6.33331 -37.6667 -9.5 -57 -9.5z" />
    <glyph glyph-name="Ohungarumlaut" unicode="&#x150;" horiz-adv-x="672" 
d="M334 -14c-48.6667 0 -91.1667 10.1667 -127.5 30.5c-36.3333 20.3333 -66.6667 46.8333 -91 79.5c-24.3333 32.6667 -42.5 69.8333 -54.5 111.5c-12 41.6667 -18 83.8333 -18 126.5s6 84.8333 18 126.5c12 41.6667 30.1667 78.8333 54.5 111.5
c24.3333 32.6667 54.6667 59 91 79c36.3333 20 78.8333 30 127.5 30c68 0 125.667 -20 173 -60c47.3333 -40 79.3333 -87.3333 96 -142c17.3333 -57.3333 26 -105.667 26 -145c0 -42.6667 -6.16669 -84.8333 -18.5 -126.5s-30.6666 -78.8333 -55 -111.5
c-24.3333 -32.6667 -55 -59.1667 -92 -79.5c-37 -20.3333 -80.1667 -30.5 -129.5 -30.5zM334 105c26.6667 0 51.3333 7.16666 74 21.5c22.6667 14.3333 39.6667 31.3333 51 51s19.6667 38.8333 25 57.5c10 36.6667 15 69.6667 15 99c0 44 -8 85 -24 123
c-15.3333 38 -36 65.1667 -62 81.5s-52.3333 24.5 -79 24.5c-26 0 -49.1667 -6.33331 -69.5 -19c-20.3333 -12.6667 -37.3333 -29.6667 -51 -51c-13.6667 -21.3333 -24 -45.8333 -31 -73.5s-10.5 -56.1667 -10.5 -85.5s3.5 -57.8333 10.5 -85.5
c7 -27.6667 17.3333 -52.1667 31 -73.5s30.6667 -38.3333 51 -51c20.3333 -12.6667 43.5 -19 69.5 -19zM202 707l-37 43l156 151l61 -72zM378 707l-38 43l155 151l63 -72z" />
    <glyph glyph-name="ohungarumlaut" unicode="&#x151;" horiz-adv-x="528" 
d="M264 -11c-38.6667 0 -72.5 7.33333 -101.5 22s-53 34 -72 58s-33.3333 51.1667 -43 81.5c-9.66667 30.3333 -14.5 61.1667 -14.5 92.5c0 48.6667 10.6667 93.6667 32 135c22 41.3333 51 71 87 89s73.3333 27 112 27c54 0 99.6667 -14.6667 137 -44
c36.6667 -28.6667 61.3333 -62.6667 74 -102c13.3333 -41.3333 20 -76.3333 20 -105c0 -48.6667 -11 -94 -33 -136c-16.6667 -32.6667 -38.5 -58.3333 -65.5 -77c-27 -18.6667 -52.1667 -30.1667 -75.5 -34.5s-42.3333 -6.5 -57 -6.5zM264 96
c21.3333 -1.33334 39.3333 3.83333 54 15.5c14.6667 11.6667 26.1667 25.5 34.5 41.5s14.1667 32.5 17.5 49.5c3.33334 17 4.33334 30.5 3 40.5c0 36 -7.5 66.3333 -22.5 91s-31 40.1667 -48 46.5s-29.8333 9.16669 -38.5 8.5c-28 0 -51.3333 -10 -70 -30
c-15.3333 -16.6667 -25.6667 -35.1667 -31 -55.5c-5.33333 -20.3333 -8 -40.5 -8 -60.5c0 -20.6667 2.33333 -39.8333 7 -57.5c4.66667 -17.6667 11.5 -33.1667 20.5 -46.5c9 -13.3333 20.3333 -23.8333 34 -31.5s29.5 -11.5 47.5 -11.5zM134 541l-37 43l156 151l61 -72z
M310 541l-38 43l155 151l63 -72z" />
    <glyph glyph-name="OE" unicode="&#x152;" horiz-adv-x="920" 
d="M370 0c-50 0 -95.3333 7.83333 -136 23.5c-40.6667 15.6667 -75.5 38 -104.5 67s-51.3333 64 -67 105c-15.6667 41 -23.5 86.8333 -23.5 137.5c0 52 8.33333 98.5 25 139.5c16.6667 41 39.8333 76 69.5 105s64.6667 51.1667 105 66.5
c40.3333 15.3333 84.1667 23 131.5 23h501v-121h-307v-152h254v-121h-254v-152h329v-121h-523zM363 121h73v425h-73c-31.3333 0.666687 -59.1667 -5.5 -83.5 -18.5c-24.3333 -13 -44.6667 -29.6667 -61 -50c-16.3333 -20.3333 -28.5 -43.3333 -36.5 -69
s-11.3333 -50.5 -10 -74.5c0 -31.3333 5 -60 15 -86s23.6667 -48.5 41 -67.5s37.5 -33.6667 60.5 -44c23 -10.3333 47.8333 -15.5 74.5 -15.5z" />
    <glyph glyph-name="oe" unicode="&#x153;" horiz-adv-x="828" 
d="M258 -11c-37.3333 0 -70 7.33333 -98 22s-51.5 34 -70.5 58s-33.1667 51.1667 -42.5 81.5c-9.33334 30.3333 -14 61.1667 -14 92.5c0 48.6667 10.6667 93.6667 32 135c22 41.3333 51 71 87 89s73.3333 27 112 27c38 0 70.5 -7.33334 97.5 -22s49.1667 -34.6667 66.5 -60
c18.6667 25.3333 41 45.3333 67 60s56 22 90 22c54 0 98 -15 132 -45c34.6667 -30 57 -65.3333 67 -106c10 -40 15 -77 15 -111v-22h-312c2.66666 -40.6667 15.3333 -70 38 -88s52 -27 88 -27c32 0 60 5 84 15s40.3333 19.3333 49 28l33 -101
c-14.6667 -10.6667 -28.6667 -18.3333 -42 -23c-8.66669 -4 -28.3334 -9.33333 -59 -16c-29.3333 -6 -56.6666 -9 -82 -9c-36 0 -69.5 6.83333 -100.5 20.5s-54.8333 33.5 -71.5 59.5c-16.6667 -21.3333 -38 -40 -64 -56s-60 -24 -102 -24zM264 96
c21.3333 0 39.3333 5.5 54 16.5s26.1667 24.5 34.5 40.5s13.8333 32.5 16.5 49.5s4 30.5 4 40.5c0 36 -7.5 66.3333 -22.5 91s-31 40.1667 -48 46.5s-29.8333 9.16669 -38.5 8.5c-28 0 -51.3333 -10 -70 -30c-15.3333 -16.6667 -25.6667 -35.1667 -31 -55.5
c-5.33333 -20.3333 -8 -40.5 -8 -60.5c0 -20.6667 2.33333 -39.8333 7 -57.5c4.66667 -17.6667 11.5 -33.1667 20.5 -46.5c9 -13.3333 20.3333 -23.8333 34 -31.5s29.5 -11.5 47.5 -11.5zM490 299h183c-2 25.3333 -9.33331 45.3333 -22 60s-25.5 24.3333 -38.5 29
c-13 4.66666 -22.1667 7 -27.5 7c-21.3333 0 -41.6666 -8 -61 -24c-19.3333 -16 -30.6667 -40 -34 -72z" />
    <glyph glyph-name="Racute" unicode="&#x154;" horiz-adv-x="588" 
d="M73 0v667h233c49.3333 0 93 -10.3333 131 -31s63.3333 -46.3334 76 -77c11.3333 -29.3333 17 -59.3333 17 -90c0 -34 -7.66669 -65.3333 -23 -94c-15.3333 -28.6667 -39 -52.6667 -71 -72c18.6667 -9.33334 33.6667 -22.6667 45 -40
c11.3333 -17.3333 22.6667 -44.3333 34 -81l50 -182h-133l-50 167c-8 22 -15.3333 40 -22 54c-4.66666 10 -12.8333 17.3333 -24.5 22c-11.6667 4.66667 -24.8333 7 -39.5 7h-97v-250h-126zM199 365h90c76 0 114 30.3333 114 91c0 32 -9 55.8333 -27 71.5
c-18 15.6667 -47 23.5 -87 23.5h-90v-186zM177 704l-33 54l191 141l59 -83z" />
    <glyph glyph-name="racute" unicode="&#x155;" horiz-adv-x="356" 
d="M62 0v482h113l8 -51c11.3333 13.3333 23.8333 24.1667 37.5 32.5c13.6667 8.33334 27.8333 15.1667 42.5 20.5c14.6667 5.33334 27.6667 8 39 8c26 0 44 -2.33334 54 -7l-18 -108c-8.66666 2.66666 -22.6667 4 -42 4c-23.3333 0 -44.3333 -6.16666 -63 -18.5
c-18.6667 -12.3333 -34.3333 -25.1667 -47 -38.5v-324h-124zM125 538l-33 54l191 141l59 -83z" />
    <glyph glyph-name="Rcommaaccent" unicode="&#x156;" horiz-adv-x="588" 
d="M73 0v667h233c49.3333 0 93 -10.3333 131 -31s63.3333 -46.3334 76 -77c11.3333 -29.3333 17 -59.3333 17 -90c0 -34 -7.66669 -65.3333 -23 -94c-15.3333 -28.6667 -39 -52.6667 -71 -72c18.6667 -9.33334 33.6667 -22.6667 45 -40
c11.3333 -17.3333 22.6667 -44.3333 34 -81l50 -182h-133l-50 167c-8 22 -15.3333 40 -22 54c-4.66666 10 -12.8333 17.3333 -24.5 22c-11.6667 4.66667 -24.8333 7 -39.5 7h-97v-250h-126zM199 365h90c76 0 114 30.3333 114 91c0 32 -9 55.8333 -27 71.5
c-18 15.6667 -47 23.5 -87 23.5h-90v-186zM204 -181l59 137h110l-81 -137h-88z" />
    <glyph glyph-name="rcommaaccent" unicode="&#x157;" horiz-adv-x="356" 
d="M62 0v482h113l8 -51c11.3333 13.3333 23.8333 24.1667 37.5 32.5c13.6667 8.33334 27.8333 15.1667 42.5 20.5c14.6667 5.33334 27.6667 8 39 8c26 0 44 -2.33334 54 -7l-18 -108c-8.66666 2.66666 -22.6667 4 -42 4c-23.3333 0 -44.3333 -6.16666 -63 -18.5
c-18.6667 -12.3333 -34.3333 -25.1667 -47 -38.5v-324h-124zM17 -181l59 137h110l-81 -137h-88z" />
    <glyph glyph-name="Rcaron" unicode="&#x158;" horiz-adv-x="588" 
d="M73 0v667h233c49.3333 0 93 -10.3333 131 -31s63.3333 -46.3334 76 -77c11.3333 -29.3333 17 -59.3333 17 -90c0 -34 -7.66669 -65.3333 -23 -94c-15.3333 -28.6667 -39 -52.6667 -71 -72c18.6667 -9.33334 33.6667 -22.6667 45 -40
c11.3333 -17.3333 22.6667 -44.3333 34 -81l50 -182h-133l-50 167c-8 22 -15.3333 40 -22 54c-4.66666 10 -12.8333 17.3333 -24.5 22c-11.6667 4.66667 -24.8333 7 -39.5 7h-97v-250h-126zM199 365h90c76 0 114 30.3333 114 91c0 32 -9 55.8333 -27 71.5
c-18 15.6667 -47 23.5 -87 23.5h-90v-186zM233 710l-115 126l68 48l92 -95l96 95l66 -41l-115 -133h-92z" />
    <glyph glyph-name="rcaron" unicode="&#x159;" horiz-adv-x="356" 
d="M62 0v482h113l8 -51c11.3333 13.3333 23.8333 24.1667 37.5 32.5c13.6667 8.33334 27.8333 15.1667 42.5 20.5c14.6667 5.33334 27.6667 8 39 8c26 0 44 -2.33334 54 -7l-18 -108c-8.66666 2.66666 -22.6667 4 -42 4c-23.3333 0 -44.3333 -6.16666 -63 -18.5
c-18.6667 -12.3333 -34.3333 -25.1667 -47 -38.5v-324h-124zM158 544l-115 126l68 48l92 -95l96 95l66 -41l-115 -133h-92z" />
    <glyph glyph-name="Sacute" unicode="&#x15a;" horiz-adv-x="521" 
d="M257 -14c-30 0 -57.6667 2.66667 -83 8s-47.6667 11.5 -67 18.5s-35.5 14.1667 -48.5 21.5s-22.5 13.3333 -28.5 18l54 111c6 -5.33333 14.3333 -11.6667 25 -19c10.6667 -7.33333 23.1667 -14.3333 37.5 -21c14.3333 -6.66666 30.6667 -12.1667 49 -16.5
c18.3333 -4.33334 38.5 -6.5 60.5 -6.5c32 0 57.1667 7 75.5 21s27.5 32.6667 27.5 56c0 28 -9 49.6667 -27 65c-19.3333 16 -58.6667 34.3333 -118 55c-49.3333 14 -88.3333 32.6667 -117 56c-20 16.6667 -34.8333 34.6667 -44.5 54
c-9.66667 19.3333 -14.8333 36.1667 -15.5 50.5c-0.666672 14.3333 -0.666672 26.8333 0 37.5c0 42 10.3333 77.3333 31 106c20.6667 30 48.6667 50.8333 84 62.5c35.3333 11.6667 71.3333 17.5 108 17.5c36 0 69.1667 -5 99.5 -15s55.8333 -22.3333 76.5 -37
s36 -27.6667 46 -39l-67 -89c-12.6667 14 -31.6667 27 -57 39s-46.6667 20.1667 -64 24.5c-17.3333 4.33331 -30.3333 6.16663 -39 5.5c-34.6667 0 -59 -6.83331 -73 -20.5s-21 -30.1667 -21 -49.5c0 -23.3333 8 -41 24 -53c8.66667 -6 21.5 -13 38.5 -21
s38.8333 -16.6667 65.5 -26c59.3333 -20.6667 103.667 -43.6667 133 -69c29.3333 -24.6667 47 -49.6667 53 -75c5.33334 -23.3333 9 -48 11 -74c0 -45.3333 -13.6667 -84.6667 -41 -118c-27.3333 -32 -58.6667 -53 -94 -63c-35.3333 -10 -66.6667 -15 -94 -15zM171 704
l-33 54l191 141l59 -83z" />
    <glyph glyph-name="sacute" unicode="&#x15b;" horiz-adv-x="461" 
d="M238 -11c-17.3333 0 -34.8333 1.16667 -52.5 3.5s-35.8333 5.83333 -54.5 10.5c-36 9.33333 -61.3333 18.6667 -76 28c-14.6667 9.33333 -23.6667 16.6667 -27 22l45 95c12.6667 -13.3333 30.6667 -25.6667 54 -37c23.3333 -10 44.5 -16.6667 63.5 -20
s34.8333 -5 47.5 -5c30 0 50.8333 4.33334 62.5 13s17.5 20.3333 17.5 35c0 12.6667 -7.66666 24 -23 34s-45 20.6667 -89 32c-31.3333 6.66667 -57.1667 15 -77.5 25s-36.5 21.3333 -48.5 34c-12 12.6667 -20.1667 26.6667 -24.5 42
c-4.33334 15.3333 -6.16666 31.6667 -5.5 49c0 42.6667 15.8333 77.3333 47.5 104c31.6667 26.6667 79.8333 40 144.5 40c42 0 79.6667 -6 113 -18c34 -11.3333 57.6667 -22.6667 71 -34l-42 -90c-12.6667 10 -31.3333 20.3333 -56 31c-24.6667 10.6667 -53 16 -85 16
c-29.3333 0 -49.1667 -4.66666 -59.5 -14c-10.3333 -9.33334 -15.5 -20.6667 -15.5 -34c0 -16 6 -27.3333 18 -34c12.6667 -6.66666 39.3333 -14 80 -22c49.3333 -8.66666 87 -23.3333 113 -44c26 -20.6667 41.6667 -41 47 -61s8 -36.6667 8 -50
c0 -40 -12.3333 -72.3333 -37 -97c-25.3333 -24 -53.5 -39 -84.5 -45s-55.8333 -9 -74.5 -9zM162 538l-33 54l191 141l59 -83z" />
    <glyph glyph-name="Scircumflex" unicode="&#x15c;" horiz-adv-x="521" 
d="M257 -14c-30 0 -57.6667 2.66667 -83 8s-47.6667 11.5 -67 18.5s-35.5 14.1667 -48.5 21.5s-22.5 13.3333 -28.5 18l54 111c6 -5.33333 14.3333 -11.6667 25 -19c10.6667 -7.33333 23.1667 -14.3333 37.5 -21c14.3333 -6.66666 30.6667 -12.1667 49 -16.5
c18.3333 -4.33334 38.5 -6.5 60.5 -6.5c32 0 57.1667 7 75.5 21s27.5 32.6667 27.5 56c0 28 -9 49.6667 -27 65c-19.3333 16 -58.6667 34.3333 -118 55c-49.3333 14 -88.3333 32.6667 -117 56c-20 16.6667 -34.8333 34.6667 -44.5 54
c-9.66667 19.3333 -14.8333 36.1667 -15.5 50.5c-0.666672 14.3333 -0.666672 26.8333 0 37.5c0 42 10.3333 77.3333 31 106c20.6667 30 48.6667 50.8333 84 62.5c35.3333 11.6667 71.3333 17.5 108 17.5c36 0 69.1667 -5 99.5 -15s55.8333 -22.3333 76.5 -37
s36 -27.6667 46 -39l-67 -89c-12.6667 14 -31.6667 27 -57 39s-46.6667 20.1667 -64 24.5c-17.3333 4.33331 -30.3333 6.16663 -39 5.5c-34.6667 0 -59 -6.83331 -73 -20.5s-21 -30.1667 -21 -49.5c0 -23.3333 8 -41 24 -53c8.66667 -6 21.5 -13 38.5 -21
s38.8333 -16.6667 65.5 -26c59.3333 -20.6667 103.667 -43.6667 133 -69c29.3333 -24.6667 47 -49.6667 53 -75c5.33334 -23.3333 9 -48 11 -74c0 -45.3333 -13.6667 -84.6667 -41 -118c-27.3333 -32 -58.6667 -53 -94 -63c-35.3333 -10 -66.6667 -15 -94 -15zM168 711
l-64 45l115 130h92l113 -129l-64 -45l-96 96z" />
    <glyph glyph-name="scircumflex" unicode="&#x15d;" horiz-adv-x="461" 
d="M238 -11c-17.3333 0 -34.8333 1.16667 -52.5 3.5s-35.8333 5.83333 -54.5 10.5c-36 9.33333 -61.3333 18.6667 -76 28c-14.6667 9.33333 -23.6667 16.6667 -27 22l45 95c12.6667 -13.3333 30.6667 -25.6667 54 -37c23.3333 -10 44.5 -16.6667 63.5 -20
s34.8333 -5 47.5 -5c30 0 50.8333 4.33334 62.5 13s17.5 20.3333 17.5 35c0 12.6667 -7.66666 24 -23 34s-45 20.6667 -89 32c-31.3333 6.66667 -57.1667 15 -77.5 25s-36.5 21.3333 -48.5 34c-12 12.6667 -20.1667 26.6667 -24.5 42
c-4.33334 15.3333 -6.16666 31.6667 -5.5 49c0 42.6667 15.8333 77.3333 47.5 104c31.6667 26.6667 79.8333 40 144.5 40c42 0 79.6667 -6 113 -18c34 -11.3333 57.6667 -22.6667 71 -34l-42 -90c-12.6667 10 -31.3333 20.3333 -56 31c-24.6667 10.6667 -53 16 -85 16
c-29.3333 0 -49.1667 -4.66666 -59.5 -14c-10.3333 -9.33334 -15.5 -20.6667 -15.5 -34c0 -16 6 -27.3333 18 -34c12.6667 -6.66666 39.3333 -14 80 -22c49.3333 -8.66666 87 -23.3333 113 -44c26 -20.6667 41.6667 -41 47 -61s8 -36.6667 8 -50
c0 -40 -12.3333 -72.3333 -37 -97c-25.3333 -24 -53.5 -39 -84.5 -45s-55.8333 -9 -74.5 -9zM152 544l-64 45l115 130h92l113 -129l-64 -45l-96 96z" />
    <glyph glyph-name="Scedilla" unicode="&#x15e;" horiz-adv-x="521" 
d="M257 -14c-30 0 -57.6667 2.66667 -83 8s-47.6667 11.5 -67 18.5s-35.5 14.1667 -48.5 21.5s-22.5 13.3333 -28.5 18l54 111c6 -5.33333 14.3333 -11.6667 25 -19c10.6667 -7.33333 23.1667 -14.3333 37.5 -21c14.3333 -6.66666 30.6667 -12.1667 49 -16.5
c18.3333 -4.33334 38.5 -6.5 60.5 -6.5c32 0 57.1667 7 75.5 21s27.5 32.6667 27.5 56c0 28 -9 49.6667 -27 65c-19.3333 16 -58.6667 34.3333 -118 55c-49.3333 14 -88.3333 32.6667 -117 56c-20 16.6667 -34.8333 34.6667 -44.5 54
c-9.66667 19.3333 -14.8333 36.1667 -15.5 50.5c-0.666672 14.3333 -0.666672 26.8333 0 37.5c0 42 10.3333 77.3333 31 106c20.6667 30 48.6667 50.8333 84 62.5c35.3333 11.6667 71.3333 17.5 108 17.5c36 0 69.1667 -5 99.5 -15s55.8333 -22.3333 76.5 -37
s36 -27.6667 46 -39l-67 -89c-12.6667 14 -31.6667 27 -57 39s-46.6667 20.1667 -64 24.5c-17.3333 4.33331 -30.3333 6.16663 -39 5.5c-34.6667 0 -59 -6.83331 -73 -20.5s-21 -30.1667 -21 -49.5c0 -23.3333 8 -41 24 -53c8.66667 -6 21.5 -13 38.5 -21
s38.8333 -16.6667 65.5 -26c59.3333 -20.6667 103.667 -43.6667 133 -69c29.3333 -24.6667 47 -49.6667 53 -75c5.33334 -23.3333 9 -48 11 -74c0 -45.3333 -13.6667 -84.6667 -41 -118c-27.3333 -32 -58.6667 -53 -94 -63c-35.3333 -10 -66.6667 -15 -94 -15zM148 -181
l59 137h110l-81 -137h-88z" />
    <glyph glyph-name="scedilla" unicode="&#x15f;" horiz-adv-x="461" 
d="M238 -11c-17.3333 0 -34.8333 1.16667 -52.5 3.5s-35.8333 5.83333 -54.5 10.5c-36 9.33333 -61.3333 18.6667 -76 28c-14.6667 9.33333 -23.6667 16.6667 -27 22l45 95c12.6667 -13.3333 30.6667 -25.6667 54 -37c23.3333 -10 44.5 -16.6667 63.5 -20
s34.8333 -5 47.5 -5c30 0 50.8333 4.33334 62.5 13s17.5 20.3333 17.5 35c0 12.6667 -7.66666 24 -23 34s-45 20.6667 -89 32c-31.3333 6.66667 -57.1667 15 -77.5 25s-36.5 21.3333 -48.5 34c-12 12.6667 -20.1667 26.6667 -24.5 42
c-4.33334 15.3333 -6.16666 31.6667 -5.5 49c0 42.6667 15.8333 77.3333 47.5 104c31.6667 26.6667 79.8333 40 144.5 40c42 0 79.6667 -6 113 -18c34 -11.3333 57.6667 -22.6667 71 -34l-42 -90c-12.6667 10 -31.3333 20.3333 -56 31c-24.6667 10.6667 -53 16 -85 16
c-29.3333 0 -49.1667 -4.66666 -59.5 -14c-10.3333 -9.33334 -15.5 -20.6667 -15.5 -34c0 -16 6 -27.3333 18 -34c12.6667 -6.66666 39.3333 -14 80 -22c49.3333 -8.66666 87 -23.3333 113 -44c26 -20.6667 41.6667 -41 47 -61s8 -36.6667 8 -50
c0 -40 -12.3333 -72.3333 -37 -97c-25.3333 -24 -53.5 -39 -84.5 -45s-55.8333 -9 -74.5 -9zM121 -181l59 137h110l-81 -137h-88z" />
    <glyph glyph-name="Scaron" unicode="&#x160;" horiz-adv-x="521" 
d="M257 -14c-30 0 -57.6667 2.66667 -83 8s-47.6667 11.5 -67 18.5s-35.5 14.1667 -48.5 21.5s-22.5 13.3333 -28.5 18l54 111c6 -5.33333 14.3333 -11.6667 25 -19c10.6667 -7.33333 23.1667 -14.3333 37.5 -21c14.3333 -6.66666 30.6667 -12.1667 49 -16.5
c18.3333 -4.33334 38.5 -6.5 60.5 -6.5c32 0 57.1667 7 75.5 21s27.5 32.6667 27.5 56c0 28 -9 49.6667 -27 65c-19.3333 16 -58.6667 34.3333 -118 55c-49.3333 14 -88.3333 32.6667 -117 56c-20 16.6667 -34.8333 34.6667 -44.5 54
c-9.66667 19.3333 -14.8333 36.1667 -15.5 50.5c-0.666672 14.3333 -0.666672 26.8333 0 37.5c0 42 10.3333 77.3333 31 106c20.6667 30 48.6667 50.8333 84 62.5c35.3333 11.6667 71.3333 17.5 108 17.5c36 0 69.1667 -5 99.5 -15s55.8333 -22.3333 76.5 -37
s36 -27.6667 46 -39l-67 -89c-12.6667 14 -31.6667 27 -57 39s-46.6667 20.1667 -64 24.5c-17.3333 4.33331 -30.3333 6.16663 -39 5.5c-34.6667 0 -59 -6.83331 -73 -20.5s-21 -30.1667 -21 -49.5c0 -23.3333 8 -41 24 -53c8.66667 -6 21.5 -13 38.5 -21
s38.8333 -16.6667 65.5 -26c59.3333 -20.6667 103.667 -43.6667 133 -69c29.3333 -24.6667 47 -49.6667 53 -75c5.33334 -23.3333 9 -48 11 -74c0 -45.3333 -13.6667 -84.6667 -41 -118c-27.3333 -32 -58.6667 -53 -94 -63c-35.3333 -10 -66.6667 -15 -94 -15zM224 710
l-115 126l68 48l92 -95l96 95l66 -41l-115 -133h-92z" />
    <glyph glyph-name="scaron" unicode="&#x161;" horiz-adv-x="461" 
d="M238 -11c-17.3333 0 -34.8333 1.16667 -52.5 3.5s-35.8333 5.83333 -54.5 10.5c-36 9.33333 -61.3333 18.6667 -76 28c-14.6667 9.33333 -23.6667 16.6667 -27 22l45 95c12.6667 -13.3333 30.6667 -25.6667 54 -37c23.3333 -10 44.5 -16.6667 63.5 -20
s34.8333 -5 47.5 -5c30 0 50.8333 4.33334 62.5 13s17.5 20.3333 17.5 35c0 12.6667 -7.66666 24 -23 34s-45 20.6667 -89 32c-31.3333 6.66667 -57.1667 15 -77.5 25s-36.5 21.3333 -48.5 34c-12 12.6667 -20.1667 26.6667 -24.5 42
c-4.33334 15.3333 -6.16666 31.6667 -5.5 49c0 42.6667 15.8333 77.3333 47.5 104c31.6667 26.6667 79.8333 40 144.5 40c42 0 79.6667 -6 113 -18c34 -11.3333 57.6667 -22.6667 71 -34l-42 -90c-12.6667 10 -31.3333 20.3333 -56 31c-24.6667 10.6667 -53 16 -85 16
c-29.3333 0 -49.1667 -4.66666 -59.5 -14c-10.3333 -9.33334 -15.5 -20.6667 -15.5 -34c0 -16 6 -27.3333 18 -34c12.6667 -6.66666 39.3333 -14 80 -22c49.3333 -8.66666 87 -23.3333 113 -44c26 -20.6667 41.6667 -41 47 -61s8 -36.6667 8 -50
c0 -40 -12.3333 -72.3333 -37 -97c-25.3333 -24 -53.5 -39 -84.5 -45s-55.8333 -9 -74.5 -9zM200 544l-115 126l68 48l92 -95l96 95l66 -41l-115 -133h-92z" />
    <glyph glyph-name="Tcommaaccent" unicode="&#x162;" horiz-adv-x="516" 
d="M194 0v546h-189v121h506v-121h-189v-546h-128zM140 -181l59 137h110l-81 -137h-88z" />
    <glyph glyph-name="tcommaaccent" unicode="&#x163;" horiz-adv-x="350" 
d="M208 -11c-42.6667 0 -74.3333 12 -95 36s-31 53 -31 87v270h-68v100h68v125h123v-125h111v-100h-111v-245c0 -15.3333 3.66667 -26 11 -32s16 -9 26 -9c24.6667 0 46 7 64 21l32 -89c-15.3333 -11.3333 -34.5 -20.6667 -57.5 -28s-47.1667 -11 -72.5 -11zM96 -181l59 137
h110l-81 -137h-88z" />
    <glyph glyph-name="Tcaron" unicode="&#x164;" horiz-adv-x="516" 
d="M194 0v546h-189v121h506v-121h-189v-546h-128zM214 710l-115 126l68 48l92 -95l96 95l66 -41l-115 -133h-92z" />
    <glyph glyph-name="tcaron" unicode="&#x165;" horiz-adv-x="350" 
d="M208 -11c-42.6667 0 -74.3333 12 -95 36s-31 53 -31 87v270h-68v100h68v125h123v-125h111v-100h-111v-245c0 -15.3333 3.66667 -26 11 -32s16 -9 26 -9c24.6667 0 46 7 64 21l32 -89c-15.3333 -11.3333 -34.5 -20.6667 -57.5 -28s-47.1667 -11 -72.5 -11zM265 538v170
h107l-34 -170h-73z" />
    <glyph glyph-name="Tbar" unicode="&#x166;" horiz-adv-x="516" 
d="M194 0v276h-146v97h146v173h-189v121h506v-121h-188v-173h143v-97h-143v-276h-129z" />
    <glyph glyph-name="tbar" unicode="&#x167;" horiz-adv-x="350" 
d="M208 -11c-22 0 -41 3.33333 -57 10s-29 15.8333 -39 27.5c-10 11.6667 -17.5 25.3333 -22.5 41s-7.5 32.1667 -7.5 49.5v90h-68v101h68v74h-68v100h68v125h123v-125h111v-100h-111v-74h111v-101h-111v-71c0 -15.3333 3.83333 -25.8333 11.5 -31.5s15.8333 -8.5 24.5 -8.5
c24 0 45.6667 7 65 21l32 -90c-18 -11.3333 -37.5 -20.5 -58.5 -27.5s-44.8333 -10.5 -71.5 -10.5z" />
    <glyph glyph-name="Utilde" unicode="&#x168;" horiz-adv-x="653" 
d="M326 -14c-56.6667 0 -105.333 12.3333 -146 37c-41.3333 25.3333 -70.1667 56.5 -86.5 93.5s-24.5 74.5 -24.5 112.5v438h128v-425c0 -40 11.1667 -72.8333 33.5 -98.5c22.3333 -25.6667 54.5 -38.5 96.5 -38.5s73.8333 12.8333 95.5 38.5
c21.6667 25.6667 32.5 58.5 32.5 98.5v425h128v-438c0 -38 -6.66669 -72 -20 -102s-31.6666 -55.5 -55 -76.5c-23.3333 -21 -50.5 -37 -81.5 -48s-64.5 -16.5 -100.5 -16.5zM205 706l-68 38c12 34 28.5 61.3333 49.5 82s45.5 31 73.5 31c17.3333 0 41.6667 -9.66669 73 -29
c26.6667 -18.6667 45.3333 -28 56 -28c6 0 14.6667 3.83331 26 11.5s22.3333 24.8334 33 51.5l69 -37c-9.33331 -34 -25.3333 -61.5 -48 -82.5s-48.3333 -31.5 -77 -31.5c-18.6667 0 -43.3333 10 -74 30c-27.3333 18 -45.6667 27 -55 27
c-7.33333 0 -16.1667 -3.83331 -26.5 -11.5s-20.8333 -24.8334 -31.5 -51.5z" />
    <glyph glyph-name="utilde" unicode="&#x169;" horiz-adv-x="550" 
d="M232 -10c-56.6667 0 -99.6667 17 -129 51c-29.3333 34 -44 85.3333 -44 154v287h124v-274c0 -33.3333 6 -60.3333 18 -81c12 -20.6667 32.6667 -31 62 -31c24 0 44.3333 4.83334 61 14.5s30 18.8333 40 27.5v344h124v-482h-114l-4 38
c-22 -18.6667 -44.8333 -31.3333 -68.5 -38s-46.8333 -10 -69.5 -10zM152 540l-68 38c12 34 28.5 61.3333 49.5 82s45.5 31 73.5 31c17.3333 0 41.6667 -9.66669 73 -29c26.6667 -18.6667 45.3334 -28 56 -28c6 0 14.6667 3.83331 26 11.5s22.3333 24.8334 33 51.5l69 -37
c-9.33334 -34 -25.3333 -61.5 -48 -82.5s-48.3333 -31.5 -77 -31.5c-18.6667 0 -43.3333 10 -74 30c-27.3333 18 -45.6667 27 -55 27c-7.33333 0 -16.1667 -3.83331 -26.5 -11.5s-20.8333 -24.8334 -31.5 -51.5z" />
    <glyph glyph-name="Umacron" unicode="&#x16a;" horiz-adv-x="653" 
d="M326 -14c-56.6667 0 -105.333 12.3333 -146 37c-41.3333 25.3333 -70.1667 56.5 -86.5 93.5s-24.5 74.5 -24.5 112.5v438h128v-425c0 -40 11.1667 -72.8333 33.5 -98.5c22.3333 -25.6667 54.5 -38.5 96.5 -38.5s73.8333 12.8333 95.5 38.5
c21.6667 25.6667 32.5 58.5 32.5 98.5v425h128v-438c0 -38 -6.66669 -72 -20 -102s-31.6666 -55.5 -55 -76.5c-23.3333 -21 -50.5 -37 -81.5 -48s-64.5 -16.5 -100.5 -16.5zM155 744v89h345v-89h-345z" />
    <glyph glyph-name="umacron" unicode="&#x16b;" horiz-adv-x="550" 
d="M232 -10c-56.6667 0 -99.6667 17 -129 51c-29.3333 34 -44 85.3333 -44 154v287h124v-274c0 -33.3333 6 -60.3333 18 -81c12 -20.6667 32.6667 -31 62 -31c24 0 44.3333 4.83334 61 14.5s30 18.8333 40 27.5v344h124v-482h-114l-4 38
c-22 -18.6667 -44.8333 -31.3333 -68.5 -38s-46.8333 -10 -69.5 -10zM103 578v89h345v-89h-345z" />
    <glyph glyph-name="Ubreve" unicode="&#x16c;" horiz-adv-x="653" 
d="M326 -14c-56.6667 0 -105.333 12.3333 -146 37c-41.3333 25.3333 -70.1667 56.5 -86.5 93.5s-24.5 74.5 -24.5 112.5v438h128v-425c0 -40 11.1667 -72.8333 33.5 -98.5c22.3333 -25.6667 54.5 -38.5 96.5 -38.5s73.8333 12.8333 95.5 38.5
c21.6667 25.6667 32.5 58.5 32.5 98.5v425h128v-438c0 -38 -6.66669 -72 -20 -102s-31.6666 -55.5 -55 -76.5c-23.3333 -21 -50.5 -37 -81.5 -48s-64.5 -16.5 -100.5 -16.5zM335 705c-24.6667 0 -47.1667 3.83331 -67.5 11.5c-20.3333 7.66669 -37.5 18.1667 -51.5 31.5
s-24.3333 28.6666 -31 46c-6.66667 17.3333 -10 34.6666 -10 52h98c4 -18.6667 11 -33.5 21 -44.5s23.6667 -16.5 41 -16.5s31.3333 5.5 42 16.5c10.6667 11 18 25.8333 22 44.5h95c-0.666656 -22.6667 -5.66666 -42.6667 -15 -60s-21.5 -32 -36.5 -44
s-31.8333 -21.1667 -50.5 -27.5c-18.6667 -6.33331 -37.6667 -9.5 -57 -9.5z" />
    <glyph glyph-name="ubreve" unicode="&#x16d;" horiz-adv-x="550" 
d="M232 -10c-56.6667 0 -99.6667 17 -129 51c-29.3333 34 -44 85.3333 -44 154v287h124v-274c0 -33.3333 6 -60.3333 18 -81c12 -20.6667 32.6667 -31 62 -31c24 0 44.3333 4.83334 61 14.5s30 18.8333 40 27.5v344h124v-482h-114l-4 38
c-22 -18.6667 -44.8333 -31.3333 -68.5 -38s-46.8333 -10 -69.5 -10zM281 539c-24.6667 0 -47.1667 3.83331 -67.5 11.5c-20.3333 7.66669 -37.5 18.1667 -51.5 31.5s-24.3333 28.6666 -31 46c-6.66667 17.3333 -10 34.6666 -10 52h98c4 -18.6667 11 -33.5 21 -44.5
s23.6667 -16.5 41 -16.5s31.3333 5.5 42 16.5c10.6667 11 18 25.8333 22 44.5h95c-0.666656 -22.6667 -5.66666 -42.6667 -15 -60s-21.5 -32 -36.5 -44s-31.8333 -21.1667 -50.5 -27.5c-18.6667 -6.33331 -37.6667 -9.5 -57 -9.5z" />
    <glyph glyph-name="Uring" unicode="&#x16e;" horiz-adv-x="653" 
d="M326 -14c-56.6667 0 -105.333 12.3333 -146 37c-41.3333 25.3333 -70.1667 56.5 -86.5 93.5s-24.5 74.5 -24.5 112.5v438h128v-425c0 -40 11.1667 -72.8333 33.5 -98.5c22.3333 -25.6667 54.5 -38.5 96.5 -38.5s73.8333 12.8333 95.5 38.5
c21.6667 25.6667 32.5 58.5 32.5 98.5v425h128v-438c0 -38 -6.66669 -72 -20 -102s-31.6666 -55.5 -55 -76.5c-23.3333 -21 -50.5 -37 -81.5 -48s-64.5 -16.5 -100.5 -16.5zM332 695c-30 0 -54.8333 10 -74.5 30c-19.6667 20 -29.5 46 -29.5 78
c0 17.3333 3.16666 32.8333 9.5 46.5c6.33333 13.6667 14.6667 25.1667 25 34.5c10.3333 9.33331 21.8333 16.3333 34.5 21s25.6667 7 39 7c29.3333 0 53.5 -10.3333 72.5 -31s28.5 -46.3334 28.5 -77c0 -14.6667 -2.5 -28.6667 -7.5 -42s-12.1667 -25 -21.5 -35
s-20.5 -17.8333 -33.5 -23.5s-27.1667 -8.5 -42.5 -8.5zM332 758c12.6667 0 22.5 4.33331 29.5 13s10.5 19.6667 10.5 33s-3.5 24.3333 -10.5 33s-16.8333 13 -29.5 13c-12 0 -21.5 -4.33331 -28.5 -13s-10.5 -19.6667 -10.5 -33s3.5 -24.3333 10.5 -33s16.5 -13 28.5 -13z
" />
    <glyph glyph-name="uring" unicode="&#x16f;" horiz-adv-x="550" 
d="M232 -10c-56.6667 0 -99.6667 17 -129 51c-29.3333 34 -44 85.3333 -44 154v287h124v-274c0 -33.3333 6 -60.3333 18 -81c12 -20.6667 32.6667 -31 62 -31c24 0 44.3333 4.83334 61 14.5s30 18.8333 40 27.5v344h124v-482h-114l-4 38
c-22 -18.6667 -44.8333 -31.3333 -68.5 -38s-46.8333 -10 -69.5 -10zM281 529c-30 0 -54.8333 10 -74.5 30c-19.6667 20 -29.5 46 -29.5 78c0 17.3333 3.16666 32.8333 9.5 46.5c6.33333 13.6667 14.6667 25.1667 25 34.5c10.3333 9.33331 21.8333 16.3333 34.5 21
s25.6667 7 39 7c29.3333 0 53.5 -10.3333 72.5 -31s28.5 -46.3334 28.5 -77c0 -14.6667 -2.5 -28.6667 -7.5 -42s-12.1667 -25 -21.5 -35s-20.5 -17.8333 -33.5 -23.5s-27.1667 -8.5 -42.5 -8.5zM281 592c12.6667 0 22.5 4.33331 29.5 13s10.5 19.6667 10.5 33
s-3.5 24.3333 -10.5 33s-16.8333 13 -29.5 13c-12 0 -21.5 -4.33331 -28.5 -13s-10.5 -19.6667 -10.5 -33s3.5 -24.3333 10.5 -33s16.5 -13 28.5 -13z" />
    <glyph glyph-name="Uhungarumlaut" unicode="&#x170;" horiz-adv-x="653" 
d="M326 -14c-56.6667 0 -105.333 12.3333 -146 37c-41.3333 25.3333 -70.1667 56.5 -86.5 93.5s-24.5 74.5 -24.5 112.5v438h128v-425c0 -40 11.1667 -72.8333 33.5 -98.5c22.3333 -25.6667 54.5 -38.5 96.5 -38.5s73.8333 12.8333 95.5 38.5
c21.6667 25.6667 32.5 58.5 32.5 98.5v425h128v-438c0 -38 -6.66669 -72 -20 -102s-31.6666 -55.5 -55 -76.5c-23.3333 -21 -50.5 -37 -81.5 -48s-64.5 -16.5 -100.5 -16.5zM199 707l-37 43l156 151l61 -72zM375 707l-38 43l155 151l63 -72z" />
    <glyph glyph-name="uhungarumlaut" unicode="&#x171;" horiz-adv-x="550" 
d="M232 -10c-56.6667 0 -99.6667 17 -129 51c-29.3333 34 -44 85.3333 -44 154v287h124v-274c0 -33.3333 6 -60.3333 18 -81c12 -20.6667 32.6667 -31 62 -31c24 0 44.3333 4.83334 61 14.5s30 18.8333 40 27.5v344h124v-482h-114l-4 38
c-22 -18.6667 -44.8333 -31.3333 -68.5 -38s-46.8333 -10 -69.5 -10zM140 541l-37 43l156 151l61 -72zM316 541l-38 43l155 151l63 -72z" />
    <glyph glyph-name="Uogonek" unicode="&#x172;" horiz-adv-x="653" 
d="M326 -14c-56.6667 0 -105.333 12.3333 -146 37c-41.3333 25.3333 -70.1667 56.5 -86.5 93.5s-24.5 74.5 -24.5 112.5v438h128v-425c0 -40 11.1667 -72.8333 33.5 -98.5c22.3333 -25.6667 54.5 -38.5 96.5 -38.5s73.8333 12.8333 95.5 38.5
c21.6667 25.6667 32.5 58.5 32.5 98.5v425h128v-438c0 -38 -6.66669 -72 -20 -102s-31.6666 -55.5 -55 -76.5c-23.3333 -21 -50.5 -37 -81.5 -48s-64.5 -16.5 -100.5 -16.5zM376 -198c-34 0 -59.3333 8.16667 -76 24.5s-25 37.1667 -25 62.5c0 18 3.83334 34.5 11.5 49.5
s17.1667 28.3333 28.5 40c11.3333 11.6667 22.6667 21.1667 34 28.5c11.3333 7.33333 19.6667 12.3333 25 15l72 -12c-19.3333 -13.3333 -36.8333 -28 -52.5 -44s-23.5 -32 -23.5 -48c0 -8.66666 2.16669 -15.6667 6.5 -21s11.5 -8 21.5 -8c12 0 23 3 33 9l23 -75
c-12.6667 -7.33333 -25.5 -12.6667 -38.5 -16c-13 -3.33333 -26.1667 -5 -39.5 -5z" />
    <glyph glyph-name="uogonek" unicode="&#x173;" horiz-adv-x="550" 
d="M232 -10c-56.6667 0 -99.6667 17 -129 51c-29.3333 34 -44 85.3333 -44 154v287h124v-274c0 -33.3333 6 -60.3333 18 -81c12 -20.6667 32.6667 -31 62 -31c24 0 44.3333 4.83334 61 14.5s30 18.8333 40 27.5v344h124v-482h-114l-4 38
c-22 -18.6667 -44.8333 -31.3333 -68.5 -38s-46.8333 -10 -69.5 -10zM410 -198c-34 0 -59.3333 8.16667 -76 24.5s-25 37.1667 -25 62.5c0 18 3.83334 34.5 11.5 49.5s17.1667 28.3333 28.5 40c11.3333 11.6667 22.6667 21.1667 34 28.5
c11.3333 7.33333 19.6667 12.3333 25 15l72 -12c-19.3333 -13.3333 -36.8333 -28 -52.5 -44s-23.5 -32 -23.5 -48c0 -8.66666 2.16669 -15.6667 6.5 -21s11.5 -8 21.5 -8c12 0 23 3 33 9l23 -75c-12.6667 -7.33333 -25.5 -12.6667 -38.5 -16
c-13 -3.33333 -26.1667 -5 -39.5 -5z" />
    <glyph glyph-name="Wcircumflex" unicode="&#x174;" horiz-adv-x="759" 
d="M136 0l-126 667h127l76 -450l108 450h117l113 -450l75 450h123l-127 -667h-127l-118 480l-113 -480h-128zM283 710l-64 45l115 130h92l113 -129l-64 -45l-96 96z" />
    <glyph glyph-name="wcircumflex" unicode="&#x175;" horiz-adv-x="681" 
d="M158 0l-158 482h129l83 -305l78 305h100l79 -305l83 305h129l-158 -482h-100l-83 314l-81 -314h-101zM246 544l-64 45l115 130h92l113 -129l-64 -45l-96 96z" />
    <glyph glyph-name="Ycircumflex" unicode="&#x176;" horiz-adv-x="552" 
d="M214 0v268l-214 399h143l137 -265l131 265h141l-210 -399v-268h-128zM186 710l-64 45l115 130h92l113 -129l-64 -45l-96 96z" />
    <glyph glyph-name="ycircumflex" unicode="&#x177;" horiz-adv-x="503" 
d="M37 -191l-11 111c36 0 68.1667 4.33334 96.5 13c28.3333 8.66667 50.1667 22.6667 65.5 42c2.66667 3.33333 5 7 7 11s4.33333 8 7 12l-198 484h133l134 -370c28.6667 76 48 133 58 171c25.3333 93.3333 42.6667 159.667 52 199h122
c-24.6667 -98 -50.8333 -186.667 -78.5 -266c-27.6667 -79.3333 -55.5 -147.333 -83.5 -204c-26.6667 -50.6667 -50.6667 -90 -72 -118c-21.3333 -26 -52.3333 -46.5 -93 -61.5s-87 -22.8333 -139 -23.5zM175 544l-64 45l115 130h92l113 -129l-64 -45l-96 96z" />
    <glyph glyph-name="Ydieresis" unicode="&#x178;" horiz-adv-x="552" 
d="M214 0v268l-214 399h143l137 -265l131 265h141l-210 -399v-268h-128zM189 726c-23.3333 0 -40.8333 6.83331 -52.5 20.5c-11.6667 13.6667 -17.5 28.8334 -17.5 45.5c0 16 5.83333 30.8333 17.5 44.5c11.6667 13.6667 29.1667 20.5 52.5 20.5
c22.6667 0 39.6667 -6.83331 51 -20.5s17 -28.5 17 -44.5c0 -16.6667 -5.66667 -31.8334 -17 -45.5c-11.3333 -13.6667 -28.3333 -20.5 -51 -20.5zM397 726h-3.05176e-05c-23.3333 0 -40.8333 6.83331 -52.5 20.5s-17.5 28.8334 -17.5 45.5c0 16 5.83334 30.8333 17.5 44.5
s29.1667 20.5 52.5 20.5c22.6667 0 39.6667 -6.83331 51 -20.5s17 -28.5 17 -44.5c0 -16.6667 -5.66666 -31.8334 -17 -45.5c-11.3333 -13.6667 -28.3333 -20.5 -51 -20.5z" />
    <glyph glyph-name="Zacute" unicode="&#x179;" horiz-adv-x="538" 
d="M25 0v110l323 436h-296v121h453v-114l-320 -432h326v-121h-486zM203 704l-33 54l191 141l59 -83z" />
    <glyph glyph-name="zacute" unicode="&#x17a;" horiz-adv-x="483" 
d="M34 0v89l262 293h-251v100h394v-94l-258 -289h266v-99h-413zM174 538l-33 54l191 141l59 -83z" />
    <glyph glyph-name="Zdotaccent" unicode="&#x17b;" horiz-adv-x="538" 
d="M25 0v110l323 436h-296v121h453v-114l-320 -432h326v-121h-486zM288 720c-20 0 -36.6667 7.66669 -50 23s-20 33.3333 -20 54s6.66667 38.6667 20 54s30 23 50 23c20.6667 0 37.6667 -7.66669 51 -23c13.3333 -15.3333 20 -33.3333 20 -54s-6.66666 -38.6667 -20 -54
s-30.3333 -23 -51 -23z" />
    <glyph glyph-name="zdotaccent" unicode="&#x17c;" horiz-adv-x="483" 
d="M34 0v89l262 293h-251v100h394v-94l-258 -289h266v-99h-413zM250 554h1.52588e-05c-20 0 -36.6667 7.66669 -50 23s-20 33.3333 -20 54s6.66667 38.6667 20 54s30 23 50 23c20.6667 0 37.6667 -7.66669 51 -23c13.3333 -15.3333 20 -33.3333 20 -54
s-6.66666 -38.6667 -20 -54s-30.3333 -23 -51 -23z" />
    <glyph glyph-name="Zcaron" unicode="&#x17d;" horiz-adv-x="538" 
d="M25 0v110l323 436h-296v121h453v-114l-320 -432h326v-121h-486zM240 710l-115 126l68 48l92 -95l96 95l66 -41l-115 -133h-92z" />
    <glyph glyph-name="zcaron" unicode="&#x17e;" horiz-adv-x="483" 
d="M34 0v89l262 293h-251v100h394v-94l-258 -289h266v-99h-413zM207 544l-115 126l68 48l92 -95l96 95l66 -41l-115 -133h-92z" />
    <glyph glyph-name="longs" unicode="&#x17f;" horiz-adv-x="318" 
d="M78 0v508c0 46.6667 10 83.6667 30 111c15.3333 22 34.3333 37.6667 57 47c22.6667 9.33331 47 14 73 14c30 0 54.8333 -2.83331 74.5 -8.5s31.1667 -9.5 34.5 -11.5l-14 -103c-4 2 -11.8333 4.83331 -23.5 8.5s-27.1667 5.5 -46.5 5.5
c-17.3333 0 -31.6667 -5.16669 -43 -15.5c-11.3333 -10.3333 -17 -27.1666 -17 -50.5v-505h-125z" />
    <glyph glyph-name="florin" unicode="&#x192;" 
d="M-20 -149v116c34 1.33333 62.8333 10.1667 86.5 26.5s39.8333 43.5 48.5 81.5l57 249h-77v114h102c12 64.6667 33 114 63 148s62.6667 55 98 63c36 8 68 12 96 12v-115c-44.6667 0 -75.6667 -8.66669 -93 -26c-16 -16 -29.6667 -43.3333 -41 -82h134v-114h-161l-51 -236
c-12.6667 -59.3333 -31 -106.667 -55 -142c-16.6667 -26 -39.3333 -46.5 -68 -61.5s-55.6667 -24.3333 -81 -28c-25.3333 -3.66667 -44.6667 -5.5 -58 -5.5z" />
    <glyph glyph-name="Scommaaccent" unicode="&#x218;" horiz-adv-x="521" 
d="M257 -14c-30 0 -57.6667 2.66667 -83 8s-47.6667 11.5 -67 18.5s-35.5 14.1667 -48.5 21.5s-22.5 13.3333 -28.5 18l54 111c6 -5.33333 14.3333 -11.6667 25 -19c10.6667 -7.33333 23.1667 -14.3333 37.5 -21c14.3333 -6.66666 30.6667 -12.1667 49 -16.5
c18.3333 -4.33334 38.5 -6.5 60.5 -6.5c32 0 57.1667 7 75.5 21s27.5 32.6667 27.5 56c0 28 -9 49.6667 -27 65c-19.3333 16 -58.6667 34.3333 -118 55c-49.3333 14 -88.3333 32.6667 -117 56c-20 16.6667 -34.8333 34.6667 -44.5 54
c-9.66667 19.3333 -14.8333 36.1667 -15.5 50.5c-0.666672 14.3333 -0.666672 26.8333 0 37.5c0 42 10.3333 77.3333 31 106c20.6667 30 48.6667 50.8333 84 62.5c35.3333 11.6667 71.3333 17.5 108 17.5c36 0 69.1667 -5 99.5 -15s55.8333 -22.3333 76.5 -37
s36 -27.6667 46 -39l-67 -89c-12.6667 14 -31.6667 27 -57 39s-46.6667 20.1667 -64 24.5c-17.3333 4.33331 -30.3333 6.16663 -39 5.5c-34.6667 0 -59 -6.83331 -73 -20.5s-21 -30.1667 -21 -49.5c0 -23.3333 8 -41 24 -53c8.66667 -6 21.5 -13 38.5 -21
s38.8333 -16.6667 65.5 -26c59.3333 -20.6667 103.667 -43.6667 133 -69c29.3333 -24.6667 47 -49.6667 53 -75c5.33334 -23.3333 9 -48 11 -74c0 -45.3333 -13.6667 -84.6667 -41 -118c-27.3333 -32 -58.6667 -53 -94 -63c-35.3333 -10 -66.6667 -15 -94 -15zM148 -181
l59 137h110l-81 -137h-88z" />
    <glyph glyph-name="scommaaccent" unicode="&#x219;" horiz-adv-x="461" 
d="M238 -11c-17.3333 0 -34.8333 1.16667 -52.5 3.5s-35.8333 5.83333 -54.5 10.5c-36 9.33333 -61.3333 18.6667 -76 28c-14.6667 9.33333 -23.6667 16.6667 -27 22l45 95c12.6667 -13.3333 30.6667 -25.6667 54 -37c23.3333 -10 44.5 -16.6667 63.5 -20
s34.8333 -5 47.5 -5c30 0 50.8333 4.33334 62.5 13s17.5 20.3333 17.5 35c0 12.6667 -7.66666 24 -23 34s-45 20.6667 -89 32c-31.3333 6.66667 -57.1667 15 -77.5 25s-36.5 21.3333 -48.5 34c-12 12.6667 -20.1667 26.6667 -24.5 42
c-4.33334 15.3333 -6.16666 31.6667 -5.5 49c0 42.6667 15.8333 77.3333 47.5 104c31.6667 26.6667 79.8333 40 144.5 40c42 0 79.6667 -6 113 -18c34 -11.3333 57.6667 -22.6667 71 -34l-42 -90c-12.6667 10 -31.3333 20.3333 -56 31c-24.6667 10.6667 -53 16 -85 16
c-29.3333 0 -49.1667 -4.66666 -59.5 -14c-10.3333 -9.33334 -15.5 -20.6667 -15.5 -34c0 -16 6 -27.3333 18 -34c12.6667 -6.66666 39.3333 -14 80 -22c49.3333 -8.66666 87 -23.3333 113 -44c26 -20.6667 41.6667 -41 47 -61s8 -36.6667 8 -50
c0 -40 -12.3333 -72.3333 -37 -97c-25.3333 -24 -53.5 -39 -84.5 -45s-55.8333 -9 -74.5 -9zM121 -181l59 137h110l-81 -137h-88z" />
    <glyph glyph-name="uni021A" unicode="&#x21a;" horiz-adv-x="516" 
d="M194 0v546h-189v121h506v-121h-189v-546h-128zM140 -181l59 137h110l-81 -137h-88z" />
    <glyph glyph-name="uni021B" unicode="&#x21b;" horiz-adv-x="350" 
d="M208 -11c-42.6667 0 -74.3333 12 -95 36s-31 53 -31 87v270h-68v100h68v125h123v-125h111v-100h-111v-245c0 -15.3333 3.66667 -26 11 -32s16 -9 26 -9c24.6667 0 46 7 64 21l32 -89c-15.3333 -11.3333 -34.5 -20.6667 -57.5 -28s-47.1667 -11 -72.5 -11zM96 -181l59 137
h110l-81 -137h-88z" />
    <glyph glyph-name="dotlessj" unicode="&#x237;" horiz-adv-x="257" 
d="M51 -203l-55 97c28 18.6667 47.5 37.6667 58.5 57c11 19.3333 16.5 42 16.5 68v463h124v-463c0 -55.3333 -11.5 -100.333 -34.5 -135s-59.5 -63.6667 -109.5 -87z" />
    <glyph glyph-name="circumflex" unicode="&#x2c6;" horiz-adv-x="442" 
d="M113 544l-64 45l115 130h92l113 -129l-64 -45l-96 96z" />
    <glyph glyph-name="caron" unicode="&#x2c7;" horiz-adv-x="442" 
d="M164 544l-115 126l68 48l92 -95l96 95l66 -41l-115 -133h-92z" />
    <glyph glyph-name="uni02C9" unicode="&#x2c9;" horiz-adv-x="442" 
d="M38 578v89h345v-89h-345z" />
    <glyph glyph-name="breve" unicode="&#x2d8;" horiz-adv-x="442" 
d="M210 539c-24.6667 0 -47.1667 3.83331 -67.5 11.5c-20.3333 7.66669 -37.5 18.1667 -51.5 31.5s-24.3333 28.6666 -31 46c-6.66667 17.3333 -10 34.6666 -10 52h98c4 -18.6667 11 -33.5 21 -44.5s23.6667 -16.5 41 -16.5s31.3333 5.5 42 16.5
c10.6667 11 18 25.8333 22 44.5h95c-0.666656 -22.6667 -5.66666 -42.6667 -15 -60s-21.5 -32 -36.5 -44s-31.8333 -21.1667 -50.5 -27.5c-18.6667 -6.33331 -37.6667 -9.5 -57 -9.5z" />
    <glyph glyph-name="dotaccent" unicode="&#x2d9;" horiz-adv-x="442" 
d="M221 554c-20 0 -36.6667 7.66669 -50 23s-20 33.3333 -20 54s6.66667 38.6667 20 54s30 23 50 23c20.6667 0 37.6667 -7.66669 51 -23c13.3333 -15.3333 20 -33.3333 20 -54s-6.66666 -38.6667 -20 -54s-30.3333 -23 -51 -23z" />
    <glyph glyph-name="ring" unicode="&#x2da;" horiz-adv-x="442" 
d="M221 529c-30 0 -54.8333 10 -74.5 30c-19.6667 20 -29.5 46 -29.5 78c0 17.3333 3.16666 32.8333 9.5 46.5c6.33333 13.6667 14.6667 25.1667 25 34.5c10.3333 9.33331 21.8333 16.3333 34.5 21s25.6667 7 39 7c29.3333 0 53.5 -10.3333 72.5 -31s28.5 -46.3334 28.5 -77
c0 -14.6667 -2.5 -28.6667 -7.5 -42s-12.1667 -25 -21.5 -35s-20.5 -17.8333 -33.5 -23.5s-27.1667 -8.5 -42.5 -8.5zM221 592c12.6667 0 22.5 4.33331 29.5 13s10.5 19.6667 10.5 33s-3.5 24.3333 -10.5 33s-16.8333 13 -29.5 13c-12 0 -21.5 -4.33331 -28.5 -13
s-10.5 -19.6667 -10.5 -33s3.5 -24.3333 10.5 -33s16.5 -13 28.5 -13z" />
    <glyph glyph-name="ogonek" unicode="&#x2db;" horiz-adv-x="442" 
d="M186 -198c-34 0 -59.3333 8.16667 -76 24.5s-25 37.1667 -25 62.5c0 18 3.83334 34.5 11.5 49.5s17.1667 28.3333 28.5 40c11.3333 11.6667 22.6667 21.1667 34 28.5c11.3333 7.33333 19.6667 12.3333 25 15l72 -12c-19.3333 -13.3333 -36.8333 -28 -52.5 -44
s-23.5 -32 -23.5 -48c0 -8.66666 2.16667 -15.6667 6.5 -21s11.5 -8 21.5 -8c12 0 23 3 33 9l23 -75c-12.6667 -7.33333 -25.5 -12.6667 -38.5 -16c-13 -3.33333 -26.1667 -5 -39.5 -5z" />
    </font>
</defs>
</svg>
